/* XPM */
static char *_e988418cdbe45338278bf261261e0009fldkKhWikZuyk17[] = {
/* columns rows colors chars-per-pixel */
"32 32 17 1 ",
"  c #0A1627",
". c #191C2A",
"X c #293038",
"o c #7F513B",
"O c #0C1C59",
"+ c #172459",
"@ c #2C2D51",
"# c #2A3151",
"$ c #395050",
"% c #424D5C",
"& c #53596D",
"* c #AA775F",
"= c #636B8E",
"- c #698592",
"; c #89A2AE",
": c #A0BBC2",
"> c #BBD1DB",
/* pixels */
"X.++++ &X.+++++&X.+++++&.+++++ &",
"X.+$$+ &X.+$$$+&X.+$$$+&.+$$$+ &",
"X.+$$+ &X.+$$$+&X.+$$$+&.+$$$+ &",
"X.+                          + &",
"X. >>>>>>>>>>>>>>>>>>>>>>>>>> +&",
" X >>>>>>>>>>>>>>>>>>>>>>>>>> X&",
"X  ;------------------------=  &",
"X. ;--:::-:--:--------::::--= +&",
"X. ;--:::-:-::-------::::---= +&",
"X. ;--::--::::--------------= +&",
"X. ;--::-::::-----::::::::--= +&",
"X. ;--::::--::-----::----:--= +&",
"X. ;---::---::-----::-::-:--= +&",
"XX ;---::--:::-----:::::::--= X&",
"X  ;------------------------=  &",
"X.  ;;;=;===================  +&",
".+++      O+++O   O+++O     +++&",
".+$$$+ &X. ->= &X. ->= &X.+$$$+&",
".+$$$+ &X. ->= &X. ->= &X.+$$$+&",
".+$$$+ &X.+ - +&X.+ - +&X.+$$$+&",
"X.+$$$+&%.+$ $+&%.+$ $+&%.+$$$+&",
" XXXXXX  X.$$$X  X.$$$X  X.$$$X ",
"          XXXX    XXXX    XXXX  ",
"X.    +XXX    XXXX    XXXX    XX",
"&&&&&&&&&&&&&&&&&&&&&&&&&&&&&&&&",
"                                ",
" @@@+++++++++++++++++++++++@@@@ ",
" @@@+oooooooooooooooooooooo@@@@ ",
" @@@+@@@@@@@@@@@@@@@@@@@@@@@@@@ ",
" ooo@                      @ooo ",
" ***@ +++++++++++++++++++++@*** ",
" ooo@ #####################@ooo "
};
