/* XPM */
static char *_c0da47b7e63457be0d6ee399d2ccdd6ftKew29DPv5W41uB[] = {
/* columns rows colors chars-per-pixel */
"80 80 200 2 ",
"   c None",
".  c #010000",
"X  c #0C0602",
"o  c #0E0C0A",
"O  c #130C05",
"+  c #140E09",
"@  c #17100B",
"#  c #1B130C",
"$  c #1E1812",
"%  c #290700",
"&  c #270300",
"*  c #3B0A02",
"=  c #23170B",
"-  c #241A11",
";  c #271F17",
":  c #301700",
">  c #392209",
",  c #2A2017",
"<  c #2F261B",
"1  c #332416",
"2  c #32261A",
"3  c #36291C",
"4  c #4E0D01",
"5  c #570C01",
"6  c #4F1702",
"7  c #6A0B01",
"8  c #7A0C01",
"9  c #790501",
"0  c #7E1900",
"q  c #482402",
"w  c #572B00",
"e  c #493B00",
"r  c #5E3100",
"t  c #452C13",
"y  c #47301B",
"u  c #593718",
"i  c #6A2700",
"p  c #6A3300",
"a  c #673804",
"s  c #7E3600",
"d  c #713C03",
"f  c #723700",
"g  c #692617",
"h  c #683A10",
"j  c #443423",
"k  c #523B22",
"l  c #4C4802",
"z  c #564200",
"x  c #5B5300",
"c  c #734007",
"v  c #744809",
"b  c #645B05",
"n  c #774915",
"m  c #725511",
"M  c #6E6907",
"N  c #726C0C",
"B  c #75710D",
"V  c #7B740E",
"C  c #7E7610",
"Z  c #5C4227",
"A  c #674728",
"S  c #6E563E",
"D  c #794C22",
"F  c #5C5C5C",
"G  c #745B41",
"H  c #77624D",
"J  c #7D7C7C",
"K  c #8D0200",
"L  c #830E02",
"P  c #850401",
"I  c #940401",
"U  c #920C02",
"Y  c #9A0D03",
"T  c #9A0000",
"R  c #891607",
"E  c #A60000",
"W  c #A70802",
"Q  c #B20C02",
"!  c #BB0C03",
"~  c #BB0603",
"^  c #A91803",
"/  c #B11803",
"(  c #8A2501",
")  c #972A00",
"_  c #823B00",
"`  c #843300",
"'  c #982716",
"]  c #8F3A17",
"[  c #A12D00",
"{  c #C60B04",
"}  c #DC0E05",
"|  c #DB0A04",
" . c #C71207",
".. c #D91006",
"X. c #E20B06",
"o. c #F80E07",
"O. c #ED1107",
"+. c #F11107",
"@. c #F91107",
"#. c #FF1208",
"$. c #85490B",
"%. c #834412",
"&. c #885919",
"*. c #915617",
"=. c #A95518",
"-. c #AD591A",
";. c #866D18",
":. c #A5631F",
">. c #8F5926",
",. c #AF4F35",
"<. c #816323",
"1. c #9D6224",
"2. c #9A6429",
"3. c #99672C",
"4. c #9A6835",
"5. c #906A38",
"6. c #A86A28",
"7. c #AB712E",
"8. c #B77927",
"9. c #AB6E32",
"0. c #AA7539",
"q. c #B4793A",
"w. c #85694B",
"e. c #846748",
"r. c #926D45",
"t. c #9B7B43",
"y. c #977756",
"u. c #9D7D5A",
"i. c #B77F46",
"p. c #AC7F4C",
"a. c #C69A37",
"s. c #C28126",
"d. c #C2B52D",
"f. c #CFAE3C",
"g. c #DDC13F",
"h. c #E5D33D",
"j. c #B88249",
"k. c #BB8B55",
"l. c #BF9156",
"z. c #8A837C",
"x. c #A78561",
"c. c #B18D67",
"v. c #B69169",
"b. c #BB9369",
"n. c #C78F56",
"m. c #C4915B",
"M. c #C8945A",
"N. c #D19552",
"B. c #C99966",
"V. c #D39D61",
"C. c #C59C71",
"Z. c #C99F73",
"A. c #DC9E73",
"S. c #DDA86E",
"D. c #DDAA74",
"F. c #DBAD7D",
"G. c #D4A677",
"H. c #E5AF7D",
"J. c #E1AA75",
"K. c #E5B17A",
"L. c #EBB77E",
"P. c #EDD943",
"I. c #F5DD43",
"U. c #FBE445",
"Y. c #F8E544",
"T. c #FFF149",
"R. c #2B40C2",
"E. c #3058CF",
"W. c #304FD7",
"Q. c #2B49EF",
"!. c #314BE3",
"~. c #3559E9",
"^. c #2A5FF1",
"/. c #3A9BEB",
"(. c #3C9CFC",
"). c #3096F9",
"_. c #3EA9FC",
"`. c #78A3F6",
"'. c #5AC3FB",
"]. c #7EDCFD",
"[. c #8C8C8B",
"{. c #ABA8A5",
"}. c #E5B481",
"|. c #EAB684",
" X c #EBBA84",
".X c #EBBB8A",
"XX c #E7B880",
"oX c #F2BC86",
"OX c #F0BE8A",
"+X c #F2C28D",
"@X c #F5C591",
"#X c #FCCB95",
"$X c #FDCE99",
"%X c #F7C894",
"&X c #FFD39A",
"*X c #FFDDA8",
"=X c #8691E1",
"-X c #80E5FF",
";X c #FDEFE3",
":X c #FFF7EB",
/* pixels */
"                                                                                                                                                                ",
"                                                                                                                                                                ",
"                                                                                                                                                                ",
"                                                                                                                                                                ",
"                                                                                                                                                                ",
"                                                                                                                                                                ",
"                                                                                                                                                                ",
"                                                                                                                                                                ",
"                                                                                                                                                                ",
"                                                                                                                                                                ",
"                                                                                                                                                                ",
"                                                                                                                                                                ",
"                                                                                                                                                                ",
"                                                                                                                                                                ",
"                                                                                                                                                                ",
"                                                                                                                                                                ",
"                                                                                                                                                                ",
"                                                                                                                                                                ",
"                                                                                                                                                                ",
"                                                                                                                                                                ",
"                                                                          # # # # # # #                                                                         ",
"                                                                  + O   # # # # # # # # #                                                                       ",
"                                                                + - - # # - - - # # # - # # # +                                                                 ",
"                                                              @ X S v.# X w..XC.2 . G c.# + # @ +                                                               ",
"                                                              + e..X#Xb.2 w.&XF.< H .X#Xv., : q # #                                                             ",
"                                                              > 5.u.y.u.A p.#XF.A e.u.y.u.w.4.n # #                                                             ",
"                                                              a t , , 1 D B.#X}.4.y ; - 1 b.L.r.# @                                                             ",
"                                                              + x.#X%X.Xj w.#XG.3 x.$XoXl.1 u.c.# # # O                                                         ",
"                                                              w 7.>.1 j t.D.@X.Xl.Z 1 Z 0.B..Xm.w = #                                                           ",
"                                                          f p $.h H J $ k b.#X}.e.z.F O u F.$XS.2.- o +                                                         ",
"                                                        n :.7.i.t F {.; . w.$XG.; [.z.X # C.#XOXB.t > > =                                                       ",
"                                                      a q.D.#X#XS X O # # y.#XF.j X O # 2 Z.%X%XK.*.1.:.a                                                       ",
"                                                    d q.D.+X+X+Xj.u X + r.J.@X.Xm.y . 1 k. X+X+X XM.H.m.*.d                                                     ",
"                                                    c V.+X+X+X+XK.Z.c.v.F.OX+X+X XC.c.C.XX+X+X+XOX X+X.Xn.d                                                     ",
"                                                    c S.#X+X+X%X$X$X#X#X@X+X+X+X@X#X#X#X@X+X+X+X+X@X+X#XJ.%.                                                    ",
"                                                    c V.@X+XOXJ.A.}.@X+X+X+X+X+X+X+X+X+X+X+X+X+X+X+X+X@XK.4.                                                    ",
"                                                    d j.K.%XH.' 9 ,.@X+X+X+X+X+X+X+X+X+X+X+X+X+X+X+X+X+XoXk.                                                    ",
"                                                      c q.XX|.' ~  .,.|.@X+X+X@X#X$X XB.0.&.&.&.1.V.@XS.9.n                                                     ",
"                                                        n 7.9.R | { ' OX$X#X+XD.n.i.4.<.$.) ^ 0 w >.0.6.c                                                       ",
"                                                          p i L ! ^ ] m.B.B.l.0.&.` ( ) [  .| ~ L ( i p                                                         ",
"                                                            4 L U ( _ s s s s _ _ / X.o.o.O.O.@.+.{ 9                                                           ",
"                                                            5 ..+.O.O.O.O.O.O.O.O.O.O.+.O.Y { @.+.O.L %                                                         ",
"                                                          7 W +.{ ! +.+.+.+.+.+.+.+.+.+.O.} U W #.+.L %                                                         ",
"                                                        % L } Q Y { +.+.+.+.+.+.+.+.+.+.+.@.Y 7 Q O.L %                                                         ",
"                                                        % 8 ! 5 U } +.+.+.+.+.+.+.+.+.+.+.+. .8 5 ! 8 &                                                         ",
"                                                        * 4 4 4 Y } +.O.O.O.O.+.+.O.O.O.O.O.@.! 4 4 5 *                                                         ",
"                                                        q 2.B.g Q #.X.I K Q } @.@.Q K K I ! O.~ g Z.|.i.r                                                       ",
"                                                        q q..Xg P E / s.1.R T E E ' 6.8.] I E P g .X*XN.r                                                       ",
"                                                          2.j.h %.=.8.I.f.8.-.-.=.8.g.P.a.:.=.%.h k.V.0.                                                        ",
"                                                            a x d.T.U.I.Y.I.P.h.Y.U.I.I.Y.Y.T.d.x a f                                                           ",
"                                                              l d.U.I.I.U.a.&.M h.U.I.I.I.I.U.d.l                                                               ",
"                                                              l B B N M B N b b V ;.C N M N B B l                                                               ",
"                                                                z v <.t.m e         e m t.<.v z                                                                 ",
"                                                                  $.q.oX1.            1.oXq.$.                                                                  ",
"                                                                    2.XX3.            4.XX2.                                                                    ",
"                                                              R.Q.=X;X:X:X            :X:X;X=XQ.R.                                                              ",
"                                                            E./._.'.-X].`.            `.].-X'._./.E.                                                            ",
"                                                            ~.(._.(.).).^.            ^.).).(._.(.~.                                                            ",
"                                                            W.!.!.!.!.!.~.            ~.!.!.!.!.!.W.                                                            ",
"                                                                                                                                                                ",
"                                                                                                                                                                ",
"                                                                                                                                                                ",
"                                                                                                                                                                ",
"                                                                                                                                                                ",
"                                                                                                                                                                ",
"                                                                                                                                                                ",
"                                                                                                                                                                ",
"                                                                                                                                                                ",
"                                                                                                                                                                ",
"                                                                                                                                                                ",
"                                                                                                                                                                ",
"                                                                                                                                                                ",
"                                                                                                                                                                ",
"                                                                                                                                                                ",
"                                                                                                                                                                ",
"                                                                                                                                                                ",
"                                                                                                                                                                ",
"                                                                                                                                                                ",
"                                                                                                                                                                ",
"                                                                                                                                                                "
};
