/* XPM */
static char *b64d143d5f274214a22f4272e52393b6PBLb1hym0XogOUTq[] = {
/* columns rows colors chars-per-pixel */
"38 38 8 1 ",
"  c #141B1B",
". c #E46D3A",
"X c #EF914F",
"o c #548789",
"O c #79B8CE",
"+ c #9BA7AA",
"@ c #FCE2CA",
"# c white",
/* pixels */
"                                      ",
"           OOOOO                      ",
"     OO  OOOOOOOOOO                   ",
"     OO   OOOOOOOOOOOO                ",
"           OOOOOOOOOOOOO              ",
"          OOOO++OOOOOOOOOO            ",
"         OOOO+##+++OOOOOOOO           ",
"         OOOO+#####+OOOOOOOOo         ",
"        OOOO+#######++OOOOOOOo        ",
"        OOO+##########++OOOOOOo       ",
"       OOOO+############+OOOOOo       ",
"       OOO+##############+OOOOOo      ",
"      OOOO+#####.....#####+OOOOoo     ",
"      OOO+####.........####+OOOoo     ",
"      OOO+###...XXXXX...####+Ooooo    ",
"     OOOO+##..@@@@@@XXX..####ooooo    ",
"     OOOO+##.@@@@@@@@XXX..###+ooooo   ",
"     OOOO+#..@@@   @@@XX..###+ooooo   ",
"    oOOO+##.X@@ ##  @X..X..#++ooooo   ",
"    oOOO+##.X@@ ##  @@XX...++++oooo   ",
"    oOOO+##.X@@     @@X.X..++++ooooo  ",
"    ooOO+##.XX@@   @@@XXX..++++ooooo  ",
"     ooO+##..X@@@@@@@XXX...++++ooooo  ",
"     oooo+##.XX@@@@@XXXX..+++++ooooo  ",
"     oooo+++..XXXXXX.XX...++++oooooo  ",
"     oooo++++...XXXXX....+++++oooooo  ",
"      oooo++++..........+++++oooooo   ",
"      ooooo+++++.....++++++++oooooo   ",
"       oooo+++++++++++++++++ooo oo    ",
"        oooo+++++++++++++++oooo       ",
"        oooooo+++++++++++ooooo        ",
"         ooooooo+++++++oooooooo       ",
"          ooooooooooooooooooooo       ",
"           ooooooooooooooooooo        ",
"             ooooo  ooooooooo         ",
"               ooo    ooooo           ",
"                                      ",
"                                      "
};
