/* XPM */
static char *e1db1ea5af00402c8ae8a59e0bcc7ddeFLJsgDfw5M4TUsgw[] = {
/* columns rows colors chars-per-pixel */
"32 32 174 2 ",
"   c #030606",
".  c #0C0D0C",
"X  c #0D110F",
"o  c #0F1212",
"O  c #111515",
"+  c #121817",
"@  c #141B1B",
"#  c #171F20",
"$  c #172020",
"%  c #1A2525",
"&  c #1D2A2B",
"*  c #202523",
"=  c #222D2F",
"-  c #223234",
";  c #2B3234",
":  c #253539",
">  c #26383B",
",  c #283E3E",
"<  c #2A3E43",
"1  c #2B4242",
"2  c #2F4649",
"3  c #30464C",
"4  c #314B4D",
"5  c #334C52",
"6  c #345253",
"7  c #375259",
"8  c #3A5B5C",
"9  c #3D5C63",
"0  c #3E6364",
"q  c #4D4842",
"w  c #54544F",
"e  c #69645A",
"r  c #416768",
"t  c #446B6D",
"y  c #476B76",
"u  c #497577",
"i  c #4D7B7C",
"p  c #61696C",
"a  c #746C62",
"s  c #E56B2D",
"d  c #EC682F",
"f  c #E36731",
"g  c #E56C35",
"h  c #E96A32",
"j  c #E36D3B",
"k  c #EB7334",
"l  c #E6733D",
"z  c #EA7A3B",
"x  c #8A7F71",
"c  c #DC7245",
"v  c #D9764B",
"b  c #CF7A57",
"n  c #CF7D59",
"m  c #D37A53",
"M  c #DB7B52",
"N  c #E87843",
"B  c #EA7F44",
"V  c #E67648",
"C  c #E7794A",
"Z  c #E77E52",
"A  c #8B8275",
"S  c #B7917F",
"D  c #EB8344",
"F  c #ED8946",
"G  c #EC8648",
"H  c #EE8D4C",
"J  c #EF904D",
"K  c #F09049",
"L  c #EF9352",
"P  c #EE9059",
"I  c #C98263",
"U  c #C58569",
"Y  c #EB8D64",
"T  c #EB926B",
"R  c #F09960",
"E  c #F1A067",
"W  c #F2A56C",
"Q  c #F3A877",
"!  c #F4AB75",
"~  c #527B88",
"^  c #4E8486",
"/  c #518486",
"(  c #538689",
")  c #568A8C",
"_  c #5C8B8E",
"`  c #598696",
"'  c #548C91",
"]  c #598F91",
"[  c #5A9294",
"{  c #5E939A",
"}  c #608C8E",
"|  c #7F8383",
" . c #678E91",
".. c #6C9294",
"X. c #60989E",
"o. c #729597",
"O. c #749698",
"+. c #7A989B",
"@. c #6499A9",
"#. c #6CA3B6",
"$. c #6BA9B7",
"%. c #79A9B9",
"&. c #7CABBB",
"*. c #73AEC1",
"=. c #79AEC1",
"-. c #74B1C5",
";. c #7BB1C5",
":. c #75B5CB",
">. c #78B7CC",
",. c #77B8CF",
"<. c #79B8CE",
"1. c #76BAD2",
"2. c #7BBCD3",
"3. c #7BBFD8",
"4. c #7EC0D7",
"5. c #7FC1D8",
"6. c #AF978B",
"7. c #A79B8B",
"8. c #A79D97",
"9. c #A69E99",
"0. c #8B9FA2",
"q. c #8CA4A7",
"w. c #94A4A7",
"e. c #97A5A9",
"r. c #9AA7AA",
"t. c #95A9AF",
"y. c #9BA8AC",
"u. c #85AEBA",
"i. c #95ABB3",
"p. c #99ACB2",
"a. c #96B1BB",
"s. c #99B4BE",
"d. c #A1AAAD",
"f. c #A0AFB4",
"g. c #A5B5BB",
"h. c #ACB4B8",
"j. c #EEA485",
"k. c #F2AD8B",
"l. c #F5B381",
"z. c #F7B789",
"x. c #F1B59B",
"c. c #F7B99F",
"v. c #C3B6A4",
"b. c #F9C49C",
"n. c #F3C2AE",
"m. c #F5C7B3",
"M. c #FCD9B5",
"N. c #83B2C3",
"B. c #A4BAC2",
"V. c #81C5DC",
"C. c #B3C2C6",
"Z. c #BAC5C9",
"A. c #85CBE4",
"S. c #C6CBCD",
"D. c #CACDCE",
"F. c #CCCFD1",
"G. c #CED2D4",
"H. c #D3D6D6",
"J. c #D9DBDA",
"K. c #FADDC9",
"L. c #FCE0C6",
"P. c #FDE5CD",
"I. c #FFEAD2",
"U. c #FFEEDA",
"Y. c #FFF3DC",
"T. c #D8DEE0",
"R. c #DAE3E7",
"E. c #E2E3E3",
"W. c #EBEAEA",
"Q. c #FCEFE9",
"!. c #FFF7E1",
"~. c #F4F3F3",
"^. c #FBF8F6",
"/. c #FFFFFE",
/* pixels */
"@ @ @ @ o X @ O . & - - - # . X @ @ @ @ @ @ @ @ @ @ @ @ @ @ @ @ ",
"@ @ @ + 2 5 O : 7 @.5.2.V.( 3 4 o . O @ @ @ @ @ @ @ @ @ @ @ @ @ ",
"@ @ + O *.3.O > -.V.<.2.<.3.V.2.y y <   + @ @ @ @ @ @ @ @ @ @ @ ",
"@ @ @ + 5 7 @ . = #.3.<.,.,.<.2.V.A.#.~ & X + @ @ @ @ @ @ @ @ @ ",
"@ @ @ @ o X @ O 9 :.2.N.p.N.:.:.<.>.3.V.#.` @ o + @ @ @ @ @ @ @ ",
"@ @ @ @ @ @ . 5 V.2.-.g.~.G.f.g.;.1.<.<.4.V.` & @ + @ @ @ @ @ @ ",
"@ @ @ @ @ + @ ~ V.,.&.S./././.^.C.%.;.1.<.<.3.*.8 o + @ @ @ @ @ ",
"@ @ @ @ @ . < V.,.N.S./././././.^.S.B.%.>.2.<.3.-.9 @ + @ @ @ @ ",
"@ @ @ @ O % ` 3.1.i.^./././././././.~.H.s.:.<.<.3.@.% O @ @ @ @ ",
"@ @ @ @ O : 4.1.u.H././././././././././.W.a.:.2.2.-.t @ + @ @ @ ",
"@ @ @ + # @.2.,.i.W././.Q.x.V Z C j.Q././.W.a.:.2.3.X.0 O @ @ @ ",
"@ @ @ + + %.3.&.H././.m.f f s s s j f x././.W.a.,.-.[ i % + @ @ ",
"@ @ @ O 5 -.2.&.J./.n.j T Q l.l.! D z f x././.W.u.' / [ 8 . @ @ ",
"@ @ + O @.V.1.&.J./.Z k.U.Y.Y.!.P.! K G f x././.C./ / ) i - O @ ",
"@ @ + O @.5.1.&.T.c.C P.Y.7.q e K.P.! H g V /./.F.} ^ ( [ 6 o @ ",
"@ @ O 6 *.2.=.Z.^.Y D I.7.| D.= w M.P l D g k.R.d.../ ( [ 4 o @ ",
"@ @ o 0 <.2.&.D./.T H Y.x p E.; * I.z.D N h m p.r.e._ ( ] 8 @ + ",
"@ @ o 0 $.2.&.S./.T F M.v.*     a Y.b.z H h b t.y.y._ ( ( ] , o ",
"@ @ O , i #.;.G./.Y s E !.v.a A I.L.W J G h m p.y.r._ ( ( ] , o ",
"@ @ @ o t ] { q.W.K.N J b.Y.Y.!.K.E F L l j 6.t.y.y._ ( ( ] , o ",
"@ @ @ O u _ ^  .h.C.M k L W W W R z L B h v p.y.d.O.( ( ( [ 1 o ",
"@ @ @ O 0 ) ^ ..r.e.9.c d z F F F B h h c 9.t.y.r.} / ( ) / > O ",
"@ @ @ + $ / ) / o.r.p.8.n c d h d l n m 8.p.r.d.O.^ ] ( [ 6 o @ ",
"@ @ @ + + 8 ] ( ^ 0.d.t.i.6.I U I S i.p.t.r.d.e.} ^ r [ / - O @ ",
"@ @ @ @ + O 8 ) ( ..r.d.y.t.i.i.i.p.r.r.y.d.e.} ( ) & 2 - o @ @ ",
"@ @ @ @ @ o - ] ) / } O.y.y.y.y.y.y.y.y.r..._ ^ ) 4 + o O @ @ @ ",
"@ @ @ @ @ + + 4 ) ) ^ ( _ +.r.w.w.w.r.o._ / / ( ) i % + @ @ @ @ ",
"@ @ @ @ @ @ + O 4 _ [ ( / ( ) ] ] ) ) ( / ( ( ( ] i % + @ @ @ @ ",
"@ @ @ @ @ @ @ @ O 4 r ] ] ( ( 0 0 [ ) ( ( ( ) [ u % O @ @ @ @ @ ",
"@ @ @ @ @ @ @ @ @ o + 2 r [ [ % + 4 t [ ] [ i 5 & O @ @ @ @ @ @ ",
"@ @ @ @ @ @ @ @ @ @ + . % 1 , % + . % 1 , 1 - . O @ @ @ @ @ @ @ ",
"@ @ @ @ @ @ @ @ @ @ @ @ + o o + @ @ O o o o O @ @ @ @ @ @ @ @ @ "
};
