/* XPM */
static char *_a70a9d0f34142ddfa678bfa4f41df1beOojh7EIFi0PE9GU[] = {
/* columns rows colors chars-per-pixel */
"64 64 230 2 ",
"   c None",
".  c #000002",
"X  c #0C010B",
"o  c #080107",
"O  c #1A0204",
"+  c #12010C",
"@  c #1B020D",
"#  c #140207",
"$  c #0D0314",
"%  c #130412",
"&  c #1C0312",
"*  c #1B0D1C",
"=  c #180918",
"-  c #1A121D",
";  c #250104",
":  c #24030D",
">  c #2D080B",
",  c #37050B",
"<  c #230413",
"1  c #2B0414",
"2  c #250A14",
"3  c #280B18",
"4  c #330212",
"5  c #3C0B16",
"6  c #370A17",
"7  c #2C1215",
"8  c #26121B",
"9  c #381517",
"0  c #3A130B",
"q  c #161426",
"w  c #0D1420",
"e  c #270C23",
"r  c #291827",
"t  c #391729",
"y  c #301E30",
"u  c #300F25",
"i  c #2B232E",
"p  c #352334",
"a  c #312732",
"s  c #440C16",
"d  c #420D1A",
"f  c #470A16",
"g  c #4C141B",
"h  c #471519",
"j  c #54131C",
"k  c #5B131D",
"l  c #541A1D",
"z  c #5A1A1C",
"x  c #581716",
"c  c #571B0D",
"v  c #621C1D",
"b  c #66191C",
"n  c #5E221F",
"m  c #40231B",
"M  c #67221B",
"N  c #76241E",
"B  c #7C311D",
"V  c #491625",
"C  c #541423",
"Z  c #5B1623",
"A  c #5C1B23",
"S  c #531A28",
"D  c #641D22",
"F  c #6B1C22",
"G  c #621D2B",
"H  c #661925",
"J  c #751E21",
"K  c #47283A",
"L  c #592A38",
"P  c #5D3636",
"I  c #532A27",
"U  c #642222",
"Y  c #6C2324",
"T  c #6D2B23",
"R  c #682927",
"E  c #732424",
"W  c #7A2525",
"Q  c #752B24",
"!  c #7B2B25",
"~  c #762C29",
"^  c #693828",
"/  c #7D3026",
"(  c #7B342B",
")  c #7C3B2C",
"_  c #76372A",
"`  c #642632",
"'  c #7D3337",
"]  c #643E35",
"[  c #7B4236",
"{  c #68402C",
"}  c #3A2D44",
"|  c #2A3853",
" . c #33334E",
".. c #5B3C51",
"X. c #4A354B",
"o. c #7D3C40",
"O. c #3E4663",
"+. c #48474F",
"@. c #484757",
"#. c #504953",
"$. c #554B50",
"%. c #6A4953",
"&. c #754E51",
"*. c #5C5568",
"=. c #4C4A69",
"-. c #685F6B",
";. c #676575",
":. c #756571",
">. c #80271D",
",. c #872C26",
"<. c #853224",
"1. c #8B3325",
"2. c #83342A",
"3. c #8B3429",
"4. c #843B2C",
"5. c #8C3B2D",
"6. c #853927",
"7. c #933C2D",
"8. c #953728",
"9. c #883F36",
"0. c #913F33",
"q. c #A13D2A",
"w. c #86412E",
"e. c #9C432E",
"r. c #94432E",
"t. c #8D4331",
"y. c #864432",
"u. c #944432",
"i. c #9D4A33",
"p. c #9A4A35",
"a. c #9A543A",
"s. c #8F513D",
"d. c #A5472D",
"f. c #A24732",
"g. c #A34B34",
"h. c #AA4C33",
"j. c #A64F38",
"k. c #AD5336",
"l. c #A4553A",
"z. c #AC553A",
"x. c #AC5A3B",
"c. c #A65136",
"v. c #B35335",
"b. c #BC5A36",
"n. c #B45639",
"m. c #B45C3C",
"M. c #BC5C3B",
"N. c #BC5637",
"B. c #B04F31",
"V. c #BC623E",
"C. c #B5613D",
"Z. c #C35E3A",
"A. c #C4633D",
"S. c #CB653D",
"D. c #CC6B3D",
"F. c #D16A3E",
"G. c #D5693E",
"H. c #E2723C",
"J. c #985441",
"K. c #844A51",
"L. c #884A4C",
"P. c #A45B42",
"I. c #B55E41",
"U. c #B46445",
"Y. c #BD6442",
"T. c #BB6947",
"R. c #B57153",
"E. c #A8684F",
"W. c #8E696F",
"Q. c #B87E61",
"!. c #C36542",
"~. c #CA6641",
"^. c #C46A44",
"/. c #CC6C44",
"(. c #C66D49",
"). c #CD6E48",
"_. c #D26D44",
"`. c #D86D41",
"'. c #CC724A",
"]. c #CB734A",
"[. c #D47245",
"{. c #DC7446",
"}. c #DA7A46",
"|. c #D3744A",
" X c #DC7B4C",
".X c #D7774B",
"XX c #C57854",
"oX c #D47D53",
"OX c #DC7D51",
"+X c #E27443",
"@X c #E37C4B",
"#X c #E67B47",
"$X c #E17F51",
"%X c #DC8556",
"&X c #D68858",
"*X c #CD8056",
"=X c #E9834D",
"-X c #E88754",
";X c #E9945D",
":X c #F29056",
">X c #D49978",
",X c #CD8B6B",
"<X c #EF9D67",
"1X c #F29D62",
"2X c #ECAB77",
"3X c #666D86",
"4X c #6E7494",
"5X c #717997",
"6X c #777288",
"7X c #747CA4",
"8X c #857B8B",
"9X c #957782",
"0X c #788499",
"qX c #888C9B",
"wX c #8C93AC",
"eX c #C9B29D",
"rX c #EEB58B",
"tX c #F6BD8A",
"yX c #F1BB96",
"uX c #F5C997",
"iX c #EDC6A9",
"pX c #F4DBBC",
"aX c #F9D4B1",
"sX c #F1D9B3",
"dX c #F6E1BF",
"fX c #F7DDC3",
"gX c #F8E5C9",
"hX c #FDF8D5",
"jX c #FEF7EC",
"kX c white",
/* pixels */
"                                                                                                                                ",
"                                                                                                                                ",
"                                                                                                                                ",
"                                                                                                                                ",
"                                                                                                                                ",
"                                                                                                                                ",
"                                                                                                                                ",
"                                                                                                                                ",
"                                                                                                                                ",
"                                                                                                                                ",
"                                                                                                                                ",
"                                                                                                                                ",
"                                                          z 1.w.6.Q s 8                                                         ",
"                                                        M I.>XdXpXoX1.g &                                                       ",
"                                                      c Q.hXaX<X;X#X=Xi.f +                                                     ",
"                                                    ; R.gX2X+X#X=XG.+XM.4.1 X                                                   ",
"                                                  # [ pX2X+X@Xg.n XX{.M.h.Y +                                                   ",
"                                                  , XXuX+X=X[.Q , M.@X/.v.2.< X                                                 ",
"                                                  B iXuX#X[.|.U.u..X@X_.M.f.j +                                                 ",
"                                                ; Q.aX-X X(.OX'.OXV.3.l._.h.Y & o                                               ",
"                                    ; ; ; ; ; O R sX1XF.[.).S.[. Xl.4 g (.M.g.l @ O O @ # # +                                   ",
"                              O , _ s.a.P.a.a.t.eXrXS._.].~.).'.$X).6.) '.(.z.U.w._ ) 4.) _ T s @                               ",
"                            , J.,XpXgXfXfXgXpXfXrX XZ.v z '.OXp.( _.[.'.Y.U.).^.,XuX2X2X2X2X;XY.2.4 8                           ",
"                          0 R.pXfXuX:X{.$X-X@X{.#X=XT.z 5.%X%Xc.2.oXF.)./.z.M Y.{./.).~.|.Y.{.%XoXi.6 #                         ",
"                        , x.hXtXH.+XS.{.|.'._.{.6.( .X).S.-X^.A.^.(.D.}..Xc.s J.=X5.Y m. Xn.c.k.c.oX6.:                         ",
"                        b iXyX{.=X^.oX~.oX(.oX).M j _.OX'.T 7 7 9 7 I P.%X[.T.'..Xg.N V.!.|.g.k.x.1.8.f %                       ",
"                      : u.uX;X/./. X^.(._.U.u./.|.n.`.T.0 K W.E.J.[ V % ^ |.[.[.Z.Z.A.U.(.m./.e.z.i.Y C & u                     ",
"                      > e.1X_.{._./.d.j |.l.v  X)./.A.9 -.jXhXXXp.9.( C X ^  XA.(.~.I.).T.I.g.g.h.3.Y C 2 <                     ",
"                      : M ).|._.~.M.^.l c.OXm.S.F./.s { jXkX>Xr.t.4.~ Y 5 X s.[.^.!.^.M.n.V.k.5.7.E A S = &                     ",
"                      h > 1.n._.~.'.M.(./.Y.[.[._.l.2 T.tX>Xg.5.4.4.~ A g + m [.A.M.Z.B.b.v.g.6.! W Z 9 q t                     ",
"                      J 4 5 8.8.m.A.M.^.T.x.[.S.[.[ 7 z.j.r.5.4.2.! R z d & 7 x.S.A.F.M.x.j.5.8.E j S X  .X.                    ",
"                      v v # l 1.1.n.S.z.p.~.M._.`.w.7 r.5.2.2.( Q T U l 5 & 7 x.D.M.t.u.l.u.t.v Z S 8 $ 4XX.                    ",
"                      9 W 1 X l 1.8.z.S.n.<.! ~.G.4.: Q ( ~ / Q T U z d 1 & 7 z.}.4., f a.t.D F S u X @.3Xy                     ",
"                        R ' < X l ! 7.N.F.p.z.^.S.m.2 d A U U U D l d 1 e | 9 M./.m.n w.c.U Z S e $ } wX+.                      ",
"                          ] o.1 o > Q q.N.!.C.).F.F._ % V f g j g 5 : e O.w w._.A.S.V.f.! Z V X % } wX;.                        ",
"                          - %.K.5 X @ z..XA.|.n.g.[.Y.9 e t 6 4 4 1 r =.| 7 m._.m.m.M.e.~ V X q =.wX3X                          ",
"                              $.L.5 > ^.&X(. X/ f m.[.C.t = y y p } O.q 7 z.|.^.k j M.h.3.6 $ 3X5X@.                            ",
"                                P 6 T <X*XY.).Q Q /.D.}.U.^ * - - q - l T._./.(.i.l U.e.7.A *  .r                               ",
"                                % : l.;X/.!.n.V.^.[.A.A.[.S.x.w.4.) r.~.[.Y.6.m.~.x.k.d.7.G 3 %                                 ",
"                                  g ]..XS.m.z.S.S.S././.M.(.).[.b.}.S./.].x.j i._.b.v.1.2.~ V +                                 ",
"                                & T -XS.v.).M.^.~.^.c.g.v.^.k.! x z.n.!.m.^.n.n.u.k.j.r.2.F Z &                                 ",
"                                1 <.D.A.~.h.S.g.b x.v.>.h.i.n.Q j U. Xu./ n._.6.4 <.h.e.Q E Z 1 X                               ",
"                                1 <.h.n.v.!.S.2., n ).h.g.M.v.v.e.v.v.V.k.h.~.r.Y e.N 3.u.F C 1 o                               ",
"                                @ N v.b.k.m.j.n./ h.v.f.7.e.<.3.,.1.d.k.g.h.g.z.g.7.~ e.~ Z S < r                               ",
"                                1 5 r.h.i.g.j.g.i.r.3.1.! F H Z C D E <.3.8.5.5.1.,.f.! k S L % p                               ",
"                                U 2 U 7.5.3.7.7./ ! N b k H V % X 2 A E W W ~ Y F ,.E C j ` 3 r X.                              ",
"                                Y j : k J E Y Y F b k Z C 2 + & 1 + @ 9 A F F E F b Z j Z t $ =...                              ",
"                                l ,.< @ k H k k Z G G V + X u %.&.L 1 X & g G H k k Z G V o  .7Xt                               ",
"                                + E Y @ & 6 V K L t 8 X * X.6X*.#.P ' V & X 8 t K K K u + q 5X:..                               ",
"                                  9 0.Y 1 + = * * + = } ;.qX+.X   % K L.' g @ % q * % X y 4XwXr                                 ",
"                                    9 9.L.` d 6 t ..:.6X;.i           t &.&.K.L 4 6 p *.5XqXa                                   ",
"                                      2 &.K.W.8XwX8X-.y .               . 8 &.W.W.9XwX0X=.o                                     ",
"                                          p #.#.#.i                           y @.*.@.                                          ",
"                                                                                                                                ",
"                                                                                                                                ",
"                                                                                                                                ",
"                                                                                                                                ",
"                                                                                                                                ",
"                                                                                                                                ",
"                                                                                                                                ",
"                                                                                                                                ",
"                                                                                                                                ",
"                                                                                                                                ",
"                                                                                                                                "
};
