/* XPM */
static char *e1ee958d72164b8e816386aa9617d6fc5A3k6S00TLnJnNZs[] = {
/* columns rows colors chars-per-pixel */
"52 48 13 1 ",
"  c None",
". c black",
"X c #0F1806",
"o c #1F3010",
"O c #2C4418",
"+ c #527435",
"@ c #502241",
"# c #739B4F",
"$ c #B35896",
"% c #D77BBA",
"& c #B8E78D",
"* c #FFB4E7",
"= c white",
/* pixels */
"                                                    ",
"                                                    ",
"                                                    ",
"                                                    ",
"                                                    ",
"                                                    ",
"                                                    ",
"                                                    ",
"                                                    ",
"                                                    ",
"                                                    ",
"                                                    ",
"                                                    ",
"                                                    ",
"                                                    ",
"                  ==                                ",
"                ==@@===                             ",
"               =@@**@@@=                            ",
"              =@**%%***@==                          ",
"             =@*$%$$%$$$OO=                         ",
"            =@*%++++++++&&O=                        ",
"            =@$+&&&&&&&&##&O=                       ",
"            =@+&##..#######o=                       ",
"            =o&##....#####..o=                      ",
"            =o###....#####..o=                      ",
"            =o###....#####..o=                      ",
"            =X###....#####..o=                      ",
"            =X+########oo###o=                      ",
"            =XX+++####oooo##X=                      ",
"             =XXXX+###oooo#+X=                      ",
"              =XXXX++++++++X=                       ",
"               ===XXXXXXXXXX=       ===             ",
"                  =XXXXXXXX=   === =XXX=            ",
"                  ==========  =XXX=XoooX=           ",
"                 =XXXXXXXXXX==X###X=XooX=           ",
"                =X++++++++++X==X##X==XX=            ",
"                =o##########o= =XX=  ==             ",
"                =o##########o=  ==                  ",
"                =X+++++++++XX=                      ",
"                =X+++++++++X=                       ",
"                =XXXXXXXXXXX=                       ",
"                 =XXXXXXXXX=                        ",
"                 ============                       ",
"                =XX=      =XX=                      ",
"               =X##X=    =XooX=                     ",
"               =XXXX=    =XXXX=                     ",
"               =XXXX=    =XXXX=                     ",
"                ====      ====                      "
};
