/* XPM */
static char *_04464e2240f4d66b8bc6bc8dbcdc498mi3DdEVPq91hgcTg[] = {
/* columns rows colors chars-per-pixel */
"32 32 141 2 ",
"   c None",
".  c #143D37",
"X  c #183B37",
"o  c #1B3E3B",
"O  c #14433A",
"+  c #1C413C",
"@  c #134440",
"#  c #1E4743",
"$  c #1F4840",
"%  c #1C4E4A",
"&  c #1E504F",
"*  c #224C46",
"=  c #224C4A",
"-  c #23504E",
";  c #264F51",
":  c #235553",
">  c #295455",
",  c #24565A",
"<  c #2B565A",
"1  c #25585C",
"2  c #2C5A5D",
"3  c #34565D",
"4  c #305C5D",
"5  c #255E63",
"6  c #2B5C63",
"7  c #2C5E6B",
"8  c #325C64",
"9  c #385863",
"0  c #325D6A",
"q  c #2C6167",
"w  c #26626A",
"e  c #2C636B",
"r  c #2E6B6F",
"t  c #306367",
"y  c #33626C",
"u  c #32696E",
"i  c #2E6470",
"p  c #2F6F72",
"a  c #376773",
"s  c #3A6671",
"d  c #346D73",
"f  c #3A6C74",
"g  c #366D7A",
"h  c #396E7A",
"j  c #2E7376",
"k  c #337274",
"l  c #3B7177",
"z  c #357279",
"x  c #3B737A",
"c  c #367E7A",
"v  c #3C7B7C",
"b  c #51716E",
"n  c #5C746E",
"m  c #416E7B",
"M  c #457977",
"N  c #497B76",
"B  c #447379",
"V  c #437C7D",
"C  c #4C7B7C",
"Z  c #5C7272",
"A  c #557C76",
"S  c #597B73",
"D  c #517E79",
"F  c #5D7E7A",
"G  c #657B75",
"H  c #667D79",
"J  c #6B7F7D",
"K  c #707B7A",
"L  c #3C817E",
"P  c #41827E",
"I  c #4E877E",
"U  c #5E857F",
"Y  c #65837C",
"T  c #69867C",
"R  c #63887E",
"E  c #76817D",
"W  c #3C7580",
"Q  c #3E7C82",
"!  c #437D82",
"~  c #4A7C83",
"^  c #607E83",
"/  c #3D8482",
"(  c #3E8985",
")  c #448383",
"_  c #4A8484",
"`  c #438A84",
"'  c #4B8985",
"]  c #4C868A",
"[  c #448A88",
"{  c #4B8A8A",
"}  c #538383",
"|  c #5C8584",
" . c #548B84",
".. c #5F8882",
"X. c #5D8A80",
"o. c #5B8987",
"O. c #5D8A85",
"+. c #5F8987",
"@. c #5F8987",
"#. c #55878C",
"$. c #5E8789",
"%. c #5A8689",
"&. c #518988",
"*. c #528D89",
"=. c #518F8A",
"-. c #548C89",
";. c #548B8A",
":. c #588888",
">. c #5A8F89",
",. c #5B8D8A",
"<. c #5B8F8B",
"1. c #5F8C89",
"2. c #5D8F8C",
"3. c #5F8F8F",
"4. c #5B8C8A",
"5. c #48918A",
"6. c #4B928C",
"7. c #4A918E",
"8. c #56938B",
"9. c #51928E",
"0. c #52938F",
"q. c #55908C",
"w. c #55908E",
"e. c #52958E",
"r. c #5A918C",
"t. c #5F908D",
"y. c #548D94",
"u. c #5F8C91",
"i. c #569793",
"p. c #5C9390",
"a. c #608484",
"s. c #658585",
"d. c #6C8184",
"f. c #628A82",
"g. c #658882",
"h. c #658A86",
"j. c #64878B",
"k. c #658E8A",
"l. c #768383",
"z. c #708B82",
"x. c #64918A",
/* pixels */
"                    K     e.5.6.=.                              ",
"                        ,.=.L / ' 3.a.                          ",
"            T         :.} _ { / [ P :.} +.    J R               ",
"          F S       t.w.} ~ x k k L _ _ '  .    A f.            ",
"          X.      :.&.V ] d , x g z v ) ' ' r.    b g.          ",
"        U N     &.0.) ) d 7 a 7 f z z z ) ) L =.    X.          ",
"        F     o.i.c ) d d e 6 0 y y a d l Q ( 0.^   A           ",
"        Z   1.-./ / k z e 7 y 6 0 0 y y h d / L $.    J         ",
"            ,.L ) r z e t 8 1 6 7 6 e 5 e x Q ) w.+.            ",
"            :.` ) k d t 8 8 1 2 , , 5 e e z z ) ` ,.            ",
"            3.v L k 8 8 < 2 : & : , 1 y 7 g k ` L *.            ",
"            B { z d 8 9 < > - @ % : > 0 7 d z / ` '     K       ",
"      F   | } ! k u y 8 < - = . O = 3 9 y i z j c 8.    z.      ",
"      D   u._ ! d e t < > * # . O * 3 3 y 7 z p ) -.x.  Y       ",
"          _ ~ m h w q < = * o o $ = > > 0 7 h z ~ N  .          ",
"    Z   =.) ~ m h w q 6 = = X o + * % 2 0 7 g h ~ } -.          ",
"        :.) #.s a y 5 2 4 = o o + * % , e e g d C } }           ",
"          V B B a y 5 1 > * o + X * 2 5 e g g l } C +.          ",
"          %.} d l f e 5 2 > * = + = 2 1 q l d k V I |           ",
"    l.    j.&.k k d e 6 2 > ; = * - < > q k d k _ :.g.    E     ",
"      d.  ^ V / z d e 6 2 2 > = - < 3 8 y u x V P I h.          ",
"          d._ ) L k y 7 6 6 5 , , 2 < y f k ! ) `  .            ",
"            :.` / k u t 6 6 5 1 5 5 2 q l ! ) ) ' :.            ",
"            :.{ [ c l f t 7 q 5 w w y q d ) ) &.-.              ",
"              p.L [ l u y e e e e w k k d _ _ :.                ",
"        H     } =.v d f l d 5 w e Q j / { V &.                  ",
"              ^ ,._ V d d x v g W d j / V M 1.                  ",
"                | C &.V ) k r d d ! ) ' ,.| k.                  ",
"                  | M _ ) p x x h _ V N |                       ",
"        n H       s.} P L { r ~ ~ C C h.R                       ",
"          G         3.` / / ! ~ #.$.                            ",
"                        6.6.y.#.                                "
};
