/* XPM */
static char *_97db7ee25d24a93e529c9a2cfed16cb14xOZLZm3J9MyzEb[] = {
/* columns rows colors chars-per-pixel */
"64 64 146 2 ",
"   c None",
".  c #0E0606",
"X  c #0E0E0E",
"o  c #0E100F",
"O  c #13110E",
"+  c #19170F",
"@  c #1F1D0F",
"#  c #0E0F10",
"$  c #110F10",
"%  c #0F1111",
"&  c #131313",
"*  c #1C1212",
"=  c #11161A",
"-  c #11191D",
";  c #191919",
":  c #201D0F",
">  c #211413",
",  c #2B1514",
"<  c #3E1514",
"1  c #341816",
"2  c #381817",
"3  c #342D11",
"4  c #3C3413",
"5  c #111B24",
"6  c #13222B",
"7  c #18292F",
"8  c #132633",
"9  c #152A35",
"0  c #132B3A",
"q  c #182E3B",
"w  c #17313F",
"e  c #461A17",
"r  c #421B19",
"t  c #4B1B1A",
"y  c #5C1917",
"u  c #571918",
"i  c #5D1918",
"p  c #631A17",
"a  c #621B18",
"s  c #5E221F",
"d  c #403613",
"f  c #662522",
"g  c #6E2723",
"h  c #6F2823",
"j  c #702723",
"k  c #702824",
"l  c #7A2A25",
"z  c #173443",
"x  c #193748",
"c  c #1A3D4C",
"v  c #1A4455",
"b  c #1C465B",
"n  c #1C495D",
"m  c #1E4D63",
"M  c #1E5167",
"N  c #1E5269",
"B  c #20566D",
"V  c #205972",
"C  c #215E7B",
"Z  c #22627E",
"A  c #851F1D",
"S  c #95211E",
"D  c #9A221F",
"F  c #AC231F",
"G  c #882E27",
"H  c #9A2120",
"J  c #9D332D",
"K  c #A12320",
"L  c #AD2320",
"P  c #A7352E",
"I  c #B3352D",
"U  c #B73933",
"Y  c #BA3B33",
"T  c #C43D34",
"R  c #CC3F35",
"E  c #D44137",
"W  c #DE4437",
"Q  c #D74338",
"!  c #DE4338",
"~  c #E04437",
"^  c #E04439",
"/  c #C4A41E",
"(  c #C1A320",
")  c #DEBA23",
"_  c #E2BC21",
"`  c #F0C71F",
"'  c #F2C91F",
"]  c #ECC521",
"[  c #F0C620",
"{  c #1B6A9D",
"}  c #256C8D",
"|  c #246F93",
" . c #277699",
".. c #287598",
"X. c #287A9F",
"o. c #1B6EA5",
"O. c #1C77B3",
"+. c #1B78B5",
"@. c #1B7DBC",
"#. c #297CA2",
"$. c #1B7FC0",
"%. c #2A80A7",
"&. c #2A84AC",
"*. c #2A89B2",
"=. c #2081BE",
"-. c #2B8EB9",
";. c #2B91BC",
":. c #1E82C2",
">. c #2087C5",
",. c #2088C6",
"<. c #208BCB",
"1. c #2E94C3",
"2. c #2E9CCA",
"3. c #279AD6",
"4. c #299BD4",
"5. c #299FDB",
"6. c #2FA3D6",
"7. c #2CA3DC",
"8. c #2FA9DD",
"9. c #30A4D6",
"0. c #31A5D9",
"q. c #31A8DD",
"w. c #31AADE",
"e. c #2FAAE5",
"r. c #31AAE0",
"t. c #31ABE1",
"y. c #30AAE0",
"u. c #31ABE2",
"i. c #31ABE2",
"p. c #32B1E7",
"a. c #32B3EB",
"s. c #33B2E9",
"d. c #32B3EC",
"f. c #33B3EC",
"g. c #33B3ED",
"h. c #33B4EC",
"j. c #32B4ED",
"k. c #33B5EC",
"l. c #33B5EF",
"z. c #33B6EF",
"x. c #32B6EF",
"c. c #31B4EC",
"v. c #34B5EF",
"b. c #32B3EC",
"n. c #33B6F0",
"m. c #34B9F2",
/* pixels */
"                                                                                                                                ",
"                                                                                                                                ",
"                                                                                                                                ",
"                                ; & & & & & & & & & & & & & & & & & & & & & & & & & & & & & & ;                                 ",
"                                ; & * > > > > > > > > > > > > > > > > > > > > > > > > > > * & &                                 ",
"                            ; ; & * J Y Y Y Y Y Y U U U U U U U U U U U U U U U U U U U Y G & & ; ;                             ",
"                            & $ X * U ^ ! ! ! ! ! ! ! ! ! ! ! ! ! ! ! ! ! ! ! ! ! ! ! ! ^ J $ o o &                             ",
"                          ; % , k l T R R R R R R R R R R R R R R R R R R R R R R R R R E I a u * % ;                           ",
"                      ; & & X t Q ^ Y r 1 1 1 1 1 1 1 1 1 1 1 1 1 1 1 1 1 1 1 2 2 2 2 1 e K L K , # & & ;                       ",
"                      ; $ * , s Q ! U * X X X X X X X X X X X X X X X X X X X X X X X X * S L K < > * % ;                       ",
"                      ; X h R R ! ^ U > = B } } } } } } } } } } } } } } } } } } } } m % > S L L H D u o ;                       ",
"                      ; X l ~ ! P l f * = -.m.z.z.v.z.z.z.z.z.z.z.v.v.v.v.v.v.v.v.m.%.= * t u A L L p X ;                       ",
"                      ; X l ! W g # # X = *.z.f.f.f.f.f.f.f.f.f.f.f.f.f.f.f.f.f.f.z.#.% X X o a L L a X ;                       ",
"                      ; X l ! ! j # - c v 1.z.f.f.f.f.f.f.f.f.f.f.f.f.f.f.f.f.f.f.z.-.v v 5 o a L L a # ;                       ",
"                      ; X l ! ! j X w 0.p.a.f.f.f.f.f.f.f.f.f.f.f.f.f.f.f.f.f.f.f.f.a.p.q.z X a L L a # ;                       ",
"                      ; X l ! ! j X z y.z.f.f.f.f.f.f.f.f.f.f.f.f.f.f.f.f.f.f.f.f.f.f.z.y.z X a L L a # ;                       ",
"                      ; X l ! ! j X z y.f.f.f.f.f.f.f.f.f.f.z.z.z.z.a.f.f.f.f.f.f.f.f.f.y.z X a F L a # ;                       ",
"                      ; X l ! ! j X z y.z.f.f.f.f.f.f.f.f.f.9.&.*.8.z.f.f.f.f.f.f.f.f.f.y.z X a L L a # ;                       ",
"                      ; X l ! ! j X z y.z.f.f.f.f.f.f.f.f.z.%.= 5 ;.z.f.f.f.f.f.f.f.f.f.y.z X a L L a # ;                       ",
"                      ; X l ! ! j X z y.z.f.a.a.f.f.f.a.a.z.#.= - -.z.a.f.f.f.f.f.f.f.f.y.z X a L L a # ;                       ",
"                      ; X l ! ! g X z y.z.f.f.f.f.f.z.q.V b V  ...V n C t.f.f.f.f.f.f.f.y.z X a L L a # ;                       ",
"                      ; X l ! ! g X z y.z.f.a.f.f.f.z.6.6 . v n.a.x . 0 q.z.f.f.f.f.f.f.y.z X a L L a # ;                       ",
"                      ; X l ! ! g X z y.z.f.f.f.f.f.z.0.b q N 1.;.m q n q.z.f.f.f.f.f.f.y.z X a L L a # ;                       ",
"                      ; X l ! ! g X z y.z.f.f.f.f.f.f.a.y.t.X.5 6 *.y.y.a.f.f.f.f.f.f.f.y.z X a L L a # ;                       ",
"                      ; X l ! ! g X z y.z.a.f.f.f.f.f.f.f.n.#.$ = -.z.f.a.f.f.f.f.f.f.f.y.z X a L L a # ;                       ",
"                      ; X l ! ! g X z y.z.f.f.f.f.f.a.f.a.z.2.} | 6.z.f.f.f.f.f.f.f.f.f.y.z X a L L a # ;                       ",
"                      ; X l ! ! g X z y.y.Z M N N M Z y.z.f.z.z.n.z.f.f.f.f.f.f.f.f.f.f.y.z X a L L a # ;                       ",
"                      ; X l ! ! g X z t.0.7 X X X X 9 0.z.f.f.f.f.f.f.f.f.f.f.f.f.f.f.f.y.z X a L L a # ;                       ",
"                      ; X l ! ! g X z t.0.9 + d d + 9 0.z.f.f.f.f.f.f.f.f.f.f.f.f.f.f.f.y.z X a L L a # ;                       ",
"                      ; X l ! ! h X z u.q.9 3 ) _ 4 0 0.z.f.f.f.f.f.f.f.f.f.f.f.f.f.f.f.y.z X a L L a # ;                       ",
"                      ; X l ! ! h X 9 *.&.6 4 ] ` 4 9 0.z.f.f.f.f.f.f.f.f.f.f.f.f.f.f.f.y.z X a L L a # ;                       ",
"                      ; X l ! ! h # & - = # 4 ] [ 4 0 0.z.f.f.f.f.f.f.f.f.f.f.f.f.f.f.f.y.z X a L F a # ;                       ",
"                      ; X l ! ! h # & & & # 4 ] [ 4 0 0.z.f.f.f.f.f.f.f.f.f.f.f.f.f.f.f.y.z X a L L a # ;                       ",
"                      ; X l ! ! h X 9 %.#.6 4 ] ' d 9 0.z.f.f.f.f.f.f.f.f.f.f.f.f.f.f.f.y.z X a L L a # ;                       ",
"                      ; X l ! ! h X z u.q.9 3 ( / 3 0 0.z.f.f.f.f.f.f.f.f.f.f.f.f.f.f.f.y.z X a L L a # ;                       ",
"                      ; X l ! ! h X z y.6.9 O @ : O 0 0.z.f.f.f.f.f.f.f.f.f.f.f.f.f.f.f.y.z X a L L a # ;                       ",
"                      ; X l ! ! h X z y.6.9 o % % o q 0.z.f.f.f.f.f.f.f.f.f.f.f.f.f.f.f.y.z X a F F a # ;                       ",
"                      ; X l W ! h X z q.u.&.X.#.#.X.&.u.z.f.f.f.f.f.f.f.f.f.f.f.f.f.f.f.y.z X a F L a # ;                       ",
"                      ; X l W ! h X z q.z.z.n.n.z.n.z.k.f.f.f.f.f.f.f.f.f.f.f.f.f.f.f.f.y.z X a L L a # ;                       ",
"                      ; X l W ! h X z q.z.f.f.f.f.f.f.f.f.f.f.f.f.f.f.f.f.f.f.f.f.f.f.f.y.z X a L L a # ;                       ",
"                      ; X l W ! k X z q.z.f.f.f.f.f.f.f.f.f.f.f.f.f.f.f.f.f.f.f.f.f.f.z.t.z X a L L a # ;                       ",
"                      ; X l W ! k X z q.z.f.f.f.f.f.f.f.f.f.f.f.f.f.f.f.f.f.f.f.f.f.a.7.4.z X a L L a # ;                       ",
"                      ; X l W ! k X z q.z.f.f.f.f.f.f.f.f.f.f.f.f.f.f.f.f.f.f.f.f.f.e.:.O.0 X a L L a # ;                       ",
"                      ; X l W ! k X z q.z.f.f.f.f.f.f.f.f.f.f.f.f.f.f.f.f.f.f.z.z.z.u.:.O.0 X a L L a # ;                       ",
"                      ; X l W ! k X z q.z.f.f.f.f.f.f.f.f.f.f.f.f.f.f.f.f.f.a.7.5.5.3.:.O.0 X a F F a # ;                       ",
"                      ; X l W ! k X z q.z.f.f.f.f.f.f.f.f.f.f.f.f.f.f.f.f.f.e.:.@.@.@.@.O.0 X a F L a # ;                       ",
"                      ; X l W ! k X z q.z.f.f.f.f.f.f.f.f.f.f.f.f.f.f.f.f.z.e.:.@.@.@.@.+.0 X a L L a # ;                       ",
"                      ; X l W ! k X z q.z.f.f.f.f.f.f.f.f.f.f.f.f.f.f.a.a.a.e.:.@.@.@.@.+.0 X a L L a # ;                       ",
"                      ; X l W ! k X z q.z.f.f.f.f.f.f.f.f.f.f.f.f.z.e.<.,.,.>.@.@.@.@.@.+.0 X a L L a # ;                       ",
"                      ; X l W ! k X z q.z.f.f.f.f.f.f.f.f.f.f.f.f.z.e.$.@.@.@.@.@.@.@.@.+.0 X i L L a # ;                       ",
"                      ; X l W ! k X z y.f.f.f.f.f.f.f.f.f.f.f.z.z.z.e.:.@.@.@.@.@.@.@.@.+.0 X i L L a # ;                       ",
"                      ; X l W ! k X z y.f.f.f.f.f.f.f.f.f.f.a.7.7.7.3.@.@.@.@.@.@.@.@.@.+.0 X i L L a # ;                       ",
"                      ; X l W ! k X z y.z.f.f.f.f.f.f.f.f.f.u.:.@.@.@.@.@.@.@.@.@.@.@.@.+.0 X i L L a # ;                       ",
"                      ; X l W ! k X z y.z.f.f.f.f.f.f.f.f.z.u.:.@.@.@.@.@.@.@.@.@.@.@.@.+.0 X i L L a # ;                       ",
"                      ; X l W ! k X z q.a.a.a.a.a.a.a.a.a.a.e.:.@.@.@.@.@.@.@.@.@.@.@.@.+.0 X i L L a # ;                       ",
"                      ; X l W ! k X 0 =.,.,.,.,.,.,.,.,.,.,.>.@.@.@.@.@.@.@.@.@.@.@.@.@.+.0 X i L F a # ;                       ",
"                      ; X l W ! k X 9 O.@.@.@.@.@.@.@.@.@.@.@.@.@.@.@.@.@.@.@.@.@.@.@.@.+.0 X a F L a # ;                       ",
"                      ; X l ^ ! k X 9 +.@.@.@.@.@.@.@.@.@.@.@.@.@.@.@.@.@.@.@.@.@.@.@.@.+.0 X a L L a # ;                       ",
"                      ; X g T T f X 8 { o.o.o.o.o.o.o.o.o.o.o.o.o.o.o.o.o.o.o.o.o.o.o.o.{ 8 X u D H u X ;                       ",
"                ; & & & & * , , * $ = 5 5 5 5 5 5 5 5 5 5 5 5 5 5 5 5 5 5 5 5 5 5 5 5 5 5 = % * > > * & & & &                   ",
"                ; & & & & & % % & & & & & & $ $ & & & & & & $ $ & & & & & & $ $ & & & & & & & $ & & & & & & & ;                 ",
"                                                                                                                                ",
"                                                                                                                                ",
"                                                                                                                                "
};
