/* XPM */
static char *_624ec6f50bb4be4d30162e93800b7beXg30uq30jYBBn61a[] = {
/* columns rows colors chars-per-pixel */
"64 64 68 1 ",
"  c #8FA96D",
". c #93AF72",
"X c #98AF75",
"o c #9AAF7E",
"O c #97B174",
"+ c #98B174",
"@ c #9DB77C",
"# c #9EB97E",
"$ c #9CB581",
"% c #9EBB80",
"& c #A2B786",
"* c #A3BB85",
"= c #A4B788",
"- c #A4BD89",
"; c #A5C285",
": c #A8C287",
"> c #A6C18A",
", c #ACC58D",
"< c #AFCC8F",
"1 c #B3C88E",
"2 c #ACC590",
"3 c #B0C791",
"4 c #B3CB93",
"5 c #B6CE99",
"6 c #B7D29B",
"7 c #BCD59E",
"8 c #BDD89E",
"9 c #BED4A2",
"0 c #BFD9A1",
"q c #C1D4A4",
"w c #C3DBA5",
"e c #C8DDA4",
"r c #C5DCA9",
"t c #C8DDAB",
"y c #CDDEB3",
"u c #C7E0A6",
"i c #C8E0A7",
"p c #C7E0AA",
"a c #CCE3AE",
"s c #CDE3B1",
"d c #CFEAB2",
"f c #CFE6B8",
"g c #D1E7B2",
"h c #D2E5B5",
"j c #D1E4B6",
"k c #D3E8B7",
"l c #D5E9B4",
"z c #D1E2B9",
"x c #D2E3B8",
"c c #D4E3B9",
"v c #D3E6B8",
"b c #D2E6BB",
"n c #D4E7B8",
"m c #D7E7BA",
"M c #D3E4BC",
"N c #D5E7BC",
"B c #D8E7BB",
"V c #D9E6BC",
"C c #D2E8BA",
"Z c #D3E9BB",
"A c #D7E9BB",
"S c #D7EABC",
"D c #D6ECBD",
"F c #D8E8BC",
"G c #D9EDBF",
"H c #DCF0BF",
"J c #DBEEC0",
"K c #DCF0C1",
/* pixels */
"&ehvvvvCvvvffvvvvvvkw:5gaaaaaaaaaaaaaaaaapaaaaaaaaaaapaaaaaaaadr",
"&whvvvvvvvvvvvvvvvvvr,7VxvvvvhhhxhhvvvvhhhhvxhhvvhvhhhhvvvvvhvDv",
"=whvvvvvvvvvvvvvvvvCr,9FvvvvvvvfvvvvvvvvhvvvvvvvvvvvvvvvvvvvvAGv",
"=whvvvvvvvvvvvvvvvfCr,9FvvvvvvvfvvvvvvvvhvvhvvvvvvvvvvhhvvvvvvGx",
"&whvvvvvvvvvvvvvvvvCr,9SvvvvhffffvvvvvvvvvvvvvvvvvvvvvhfvvvhvmGx",
"&whvvvvvvvvvvvvvvvvvr,9AvvvhhhhhvvvvvvvvvvvvvvfvvvvvvvhhvvvvvAGx",
"&whhvvvvvvvvvvvvvvvCr29ShvvhhhhhhhvvvvvvvvvvvvfvvvvvvvvhhvvvvAGx",
"=whvvvvvvvvvvvvvvvvCr29AhvvvhhhhhhvvvvvvvvvvvvfvvvvvvvhhhhvvvmGx",
"=phvvvvvvvvvvvvvvvvvr29mhvvvvvhhvvhvvvfvvvvhvvvvhhvvvvhhvvvvhmGx",
"=rhvvvvvvvvvvvvvvvvvr29FhvvvvvhhvvvvvvfvvvvvvvvvhhhhvvvvvvvvhmGx",
"=phvvvvvvvvvvvvvvvvCr29FhvvvvvhhvvvvvvfvvvvvvvvvvhhhvvvvvvvvvAGx",
"=phvvhvvvvvvvvvvvvvCr,9FvvvvvvvvvvhhhvvvvvvvvvhhvhhvvvvvvvvvvmGx",
"&pvvvhhvvvvvvvvvvvvCr,9SvvvvvvvvhhhhhvvvvvvvvhhhvvvhvvvvhvvvvAGx",
"&rvvvvhhvvvhvvvvvvvCr,9SvvvvhhhvhhhhvvvvvvvvvvhhvvvvvhhhhhvvvmDx",
"&rhvvvvhhhvvvvvvvvvCr,9SvvvvhhvvvhhhvvvvvvvvvvhvvvvvvvhhhvvvvAGv",
"=phvvvvvvvvvvvvvvvvCr,9SvvvvvhhhhvvvvvvvvvvvhvvvvvvhhvhhhvvvvAGx",
"&phvvvhhhvvvhvvvvvvCr,9FvvvvvhhhhvvvvvvvvvvvhhvvvvvhvhhhhvhvvAGx",
"&whvvvhhhvvvhhvvvvvCr,9SvvvvvvhvvvvvvvvvvvvvvvvvvvvvvvvvvvvmvAGx",
"=whvvvvvhvvvvvvvvvvCr,9DvmvkkhhhkhhhhhhvmmmmmmmmvvCvmmvmmmmNmAGc",
"=ihvvvvvvvvvvvvvvvvCr:6kggggsssssssssgggggsaaaaaaasaaaasssssaaly",
"&ihvvvvvvvvvvvvvvvvCr;*54454444444444444445444445554444455454575",
"&ihvvvvvvvvvvvvvvvfvr; +OOOX++OO+++++++OO.@:114444333323444444<$",
"&ihvvvvvvvvvvvvvvvhvr>*544444444444444445**7aasssaassssyyyssssw=",
"&ihvvhvvvvvvvvvvvvvCr,7AhhhhhhhfhhhhhhhhA9,wAAlAAmAAmAmvmmmmSGs-",
"&ihvvvvvvvvvffvvvvvCr,qFmmmvvvmmmmmmvvmvFq,whhhhhvvvvvffvvhvvCa-",
"&ihvvvvffvvvffvvvvvCr,qSvvvhhhhhvvvvvhhhFq,whhhhhvvvvvvfvvvvvCa-",
"&ihhvvhvvvvvvvvvvvvCr,qFvvvhhvhhhvvvvhhhFq,whmvvvvvvvvvvvvvvvCa-",
"&uhhvvvvvvvvvvvvvvvCr,qFmvhvvvvhhvvvvhfvFq,wmmvvvvvvvvvvhvvvhva*",
"&wfhhhvvvhvvhvvvvvvAr,qFmhhvvvhhhhhhvvhhFq,wvvvvvvvvvvvvvvvvhCa*",
"&wfvvvvhvvvhhvvvvvvCr,qFhhhhvvvhhhhvvvhhFq,whhhhvvhvvvvvvvvvhCs-",
"&rfvvvfvvvvvhhhvvvvCr,9ShvhhvvvvvvvvvvvhNq,whvvvvvvvvhhhvhhvhAs-",
"=rfvvvfvvhvhvvvvvvvCr29SvhhhhvvvvvvvvvvvFq,whvvvvvvvvvhhhvvvkCs-",
"&whhvvfffvvvvvvvvvvCr,qSvhhhhvvvvvmvvvvmFq,whmvvhvvvvvvvvvvvhCa-",
"&whhvvvffvvmvvvvvvvmr,qFhvvvvvvvvhhhhvhhSq,whmvvvvvvvvvvvvvvhms-",
"&whvvvvvvvvvvvvvvhvmr2qFvhvvvvvvvhhhhhhhNq,whvvvvvvvvvvvvvvvvAs*",
"&whvvvvvvvhhvvvvvvvAr,qFvhhvvvvvvhhhhvhhSq,whvvvvvvvvvhvhhvvvAs-",
"&whvvvvvvvvvhvvvvvvCr,qSvhhvvvvvvvhvvvvvSq,wmvvvvvvvvvvvvvvvvma-",
"=phvvvvvvvvvvvvvhvvCw,9SvvvvvvvvvvvvvvvvAq,wvvvvvffvvvvvvvvvvma-",
"=phvvvvvvvvxhhvvvvvCr,9SvvvvvvvvvvvvhhvvAq,wvvvvvvvvvvvvvvvvvva-",
"=pvvvvvvmmvvvvmvvvvSr,9FvvvmmmmvmmmmvvvvDq,wvvvvvvvvvvvvvvvvvva-",
"&tvvvvvvvvvvvvvvvvvAr>4trrrrrrrwwrrwwrwwr5>wmmvvvvvvvvvvvvvvvAa-",
"o599999999999999q9qq5@O%%*%@%%%%%%%@%*%%*O*rvvvvvvvvvvvvvvvvvAa-",
"=222,,,,,,,,22,,,2,,,*##@@@@@@@@@@@@@@@@@.*rvvvvvvvvhvvvvvvvvCa-",
"tarwqqqwqwwqwwqwwwwwwrrrrrrrrrwrrrrwwrrwt4:wvvhvvvvvvvvvvvvvvCa-",
"MHSmmmmmmmmmmmmmvvmAmmmAmmmmmmmmBmmmmAAmG9>wvvhhvvvvvvvvvvvvvCa-",
"xGAvvxvvvmmmvvvvvvvvvvmmvvvmvvvvmmmmxvvvA9,wvvvhhvvvvvvvvvvvvCa-",
"xJCvhvvvvvvvvvvvvvvvvvvvvvvvvvvvvvhhhhvvA9>wvvvvvvvvvvvvvvvvvAa*",
"xJCvvvvvvvvvvvvvvvvvvvvvvvvvvvvvvhhhhhhvA9>whvvvvvvvhhhvvvvvvAa*",
"xJCvvvvvvvvvvvvvvvvvvvvvvvvvvhvvvhhhvvvvA9:whhvvvvvvvhvvvhvvvAa-",
"xGCvvvvvvvvvvvvvvvvvvvvvvvvvvvvvvhhhvvvvA9,whvhvvvvvvvvvvvvvvAa-",
"hGCvvvvvvvvvvvvvvvvvvvvvvvvvvvvvvvhhvvvvS9,wmvhvvvvvvvvvvvvvvAa-",
"hJCvhvhvvvvvhvhhvvvvvvvhvvvhhvvvvvhhvvvvA9,wmmvvvvvvvvvvvvvvvAa-",
"xJCvvvvvvvvvhhhvvhvvvvhhhhvhhvvvvhvvvvvvA7:wmmvvvvvvvvvvvvvvCAs-",
"cJCvvvvvvvvvhhvvvvvvvvhhhhhhvhvvvvhhvvvvA7:whvvvvvvvvvvvvvvvCAs-",
"cKChvvvvvvvvvvvvvvvvvvvvvhhhvvvvvhvvvvvvA9:whvvvvvvvvvvvvvvvvAa-",
"mKAvhvvvvhvvvvvvvvvvvvvvvvvvvvvvhhvhvvvmA9:whvvvvvvvvvvvvvvvvCa>",
"xKChhvvvhhvvvvvvvvvvvvfffvvvvvvvvhhhvvvvA9>whvvvvvvvvvvvvvvvvCa>",
"xKChhvvvvvvvvvvvvvvvvvhhvvvvvvvvvhhhvvvvS9>whvvvvvvvvvvvvvvvvCa-",
"xJCvhvvvvvvvvhhvvvvvvvvvvvhvvvvvvvvvvvvmS9,wvvvvvvvvvvvvvvvvvAs-",
"xJChhhvvvvvvvhhvvvvvvvvvvhhvvvvvvvvvvvvvS9:wvvvvvvvvvvvvvvvvmAs-",
"xGChhvvvvvvvhvvvvvvvvvvvvvvvvvvvvvvvvvvvA9>wvvvvvvvvvvvvvvvvvAs-",
"MJSvvvhhhhvhhhhvmvvvhvvvvvvvvvvvvvvvvxvvA7:0vvvvvvfvvvvfvvvvvCa-",
"yksaaaaaasssaaaasssssaaaasaaaaaasaaaatass5>wCvvvvvvvvvvvvvvvvCa-",
"9w09778777988777077777777777977797777777w:;rCvvvvvvvvvvvvvvvvCa="
};
