/* XPM */
static char *ba659fb18e9c44cfe94c57d0c26abd69zy8nxNDUTEd94gdQ[] = {
/* columns rows colors chars-per-pixel */
"64 63 76 1 ",
"  c #8AA569",
". c #8CA969",
"X c #94AD6F",
"o c #8FAE70",
"O c #92AE71",
"+ c #95AE7A",
"@ c #9AAE7E",
"# c #97B375",
"$ c #9BB57C",
"% c #9FB484",
"& c #9FBA83",
"* c #9FBA88",
"= c #A1B584",
"- c #A2BB85",
"; c #A1BB89",
": c #A6C185",
"> c #A8C186",
", c #A7C18A",
"< c #AAC38B",
"1 c #ABC291",
"2 c #ADC891",
"3 c #B4CD95",
"4 c #B9CD94",
"5 c #B6CD99",
"6 c #B6D09A",
"7 c #BCD49E",
"8 c #BDD89E",
"9 c #BDD3A1",
"0 c #BED9A1",
"q c #C1D4A4",
"w c #C4DBA5",
"e c #C9DCA6",
"r c #C6DDAA",
"t c #C9DEAA",
"y c #CCDDB4",
"u c #D1DFB9",
"i c #C7E1A7",
"p c #C9E1A7",
"a c #C7E1A9",
"s c #CBE2AD",
"d c #CEE8AF",
"f c #D1E7AF",
"g c #CDE3B2",
"h c #CEE9B1",
"j c #CFE6B8",
"k c #D3E6B7",
"l c #D4E6B7",
"z c #D0EBB2",
"x c #D3E8B4",
"c c #D2E8B5",
"v c #D4E8B6",
"b c #D1E1B9",
"n c #D3E3B9",
"m c #D4E3B9",
"M c #D3E5B9",
"N c #D0E7B9",
"B c #D4E6B9",
"V c #D3E4BC",
"C c #D6E7BD",
"Z c #D8E7BB",
"A c #D2E8BA",
"S c #D4E9B8",
"D c #D6EBB8",
"F c #D3E9BD",
"G c #D4E9BD",
"H c #D9E9BC",
"J c #D9EBBD",
"K c #DBEABF",
"L c #D8EDBF",
"P c #DAECBE",
"I c #DCECBE",
"U c #DCF1BF",
"Y c #DCE8C0",
"T c #DAECC0",
"R c #DBEDC1",
"E c #DDF1C2",
/* pixels */
"=evBMMAAMAMMMMAAAMMSr:3xssssssssssssssssspssssssssssspsssssssszr",
"=ekBMBBMMMMMMMMMMMMSr<7YnMMMMMMMMMBBBBMkklMMMMMMMMMMkkMMMMMMMBRM",
"=ikBMMBMMMMMMMBMMMMAr<9JMMMMMMMMMMMMMMMMMMMMMMMMMMMMMMMMMMMMMSRV",
"%ikBBBBMMMMMMMMMMMMAr<9JMMMMMMMMMMMMMMMMkMMkMMMMMMMMMMkkMMMMMBRn",
"%ikBMMMMMMMMMMMMMMMAr<9JkMMMMjjjMMMMMMMMMMMMMMMMMMMMMMkkMMMkMBPn",
"%pkMMMMMMMMMMMMMMMMFr<9JkMMkkkkMMMMMMMMMMMMMMMMMMBMMMMMMMBMMMSPn",
"%ekMMMMMMMMMBMBMMMMFr<9PkMMkkkkMkkMMMMMMMMMMMMMMMMMMMMMMkMMMBSPn",
"=pkBMMMMMMMMMMMMMMMGr<9JkMMMkMMkkkMMMMMMMMMMMMMMMMMMMMMkkMMMMBPn",
"=pkBMMMMBMMMMMMMMMMGr<9JkMMBMMkkMMMMMMjMMMMMMMMMkMMMMMMMMMMMkBPn",
"%akMMMMBMBBMMMMBMMMGr<9JkMBMMMkkMMMMMMjMBBMMMMMMMkkMMMMMMMMMMBUM",
"=pkMBMMBMMMMMMMMMMMGr<9IkMBMMMMBBMMMMAAMMMMMMMMMMkMMMMBMMBMMMSPn",
"=pMMMkMMMMMMMMMMMMMGt<9RMAMMMMMBBkkkkMMMMMMMMMkkMMMMMMMMMMMMMBPn",
"=pABMMMMMMMMMMMMMMMGr<9RMMMMMMMMkkkkMMMMMMMMMMkkMMMMMMMMkMMMMSPn",
"=pAMMMMkMMMMMMMMMMMGr<9JMMMMkkMBMkkkMMMMMMMMMMkMMMMMMMMMMMMMMBPn",
"=pMMMMMMMMMMMMMMBMMGr<9RMMMMMMBBMMMMMMMMMMMMMMMMMMMMMMMkkMMMBSPM",
"=pAMMMMMMMMMMMMMBBMFr<9RMMMMMMkkkMMMMMMMMMMMMMMMMMMMMMMkkMMMMSPn",
"=pAMMMMkMMMMkMMMMMMGr<9RMMMMMMkkMMMMMMMMMMMMMMMMMMMMMMMBMMMMMSPn",
"=pkMMMMMMMMMMMMMMMASr<9PMBMMMMMMMMMMMMMMBBBMBBMBMMAMMMMBMMBBBSPn",
"=pkMMMMMMMMMMMMMMMMAr<9PkBMxxkkxxxxxkllBBBBBBBBBMAASBBBCBBCCSSUm",
"=pkMMMMMMMMMMMMMMMMGr:3xsggddsssddddssssssstttttttpttttttttttpxt",
"=pkMMMMMMMMMMMMAMMMAs:#<>>>>:>>>>>>>>>>:-:<<<<<<<<<<<<<<<<<<<<31",
"=pMMMMBMMMMMMMAAMMxAg: OOOOOOOOXXOOOXOOXX.#<4355533355555555573+",
"=pMMMMMBBMMMMMMMMMMAr<3swwrrrrwweeewwweep3>pPPPPPJPPPPJJJJJJPUz-",
"=pkMMMMMMMMMMMMMMMMSr<qRGCGSBSGSSGSSSSSSRq<wBkkBMMMMMMkkMMkBMSz;",
"=pkMMMMMMMMMjMMMBMMAr<qRMMBMkkMMMMBMMMMkRq<wSkkMMMMMMMMjMMMMMSh;",
"=pxMMMMMMMMMjMMMBMMSr<qJMBBkkkkkMMMMMkkkJq<wBkMkMBBMMMMMMMMMMSh*",
"%pxkMMMMMMMMMMMMMMMAr<qJMMMMMMMkMMMMMkkkJq<wSBMBMMMMMBMMMMBMMAg-",
"%pxkMMMMMMMMMMMMBMMSr<qJBMkMMMMkMMMMMAMMRq<wSBMBMMMMMMMMMMBMkAh-",
"%ikMMMMMMMMMkMMMBMMSr<qYBMMMMMMkkkkMMMkkRq<wSMMMMMMMMMMMMMMMkAh-",
"=pkMMMMMMMMMkMMMMMMGr<9JkMkMMMMkkMMMMMMkJq<wvMMMMMMMMMMMMMMMMSh;",
"=pMMMMMMMMMMMMMMMMMFr<9PkkkMMMMMMBMMMMMMJq<wvBMMBMMMBMkMMMMMkSh;",
"=pMMMMMMMkMMMBMMMMMGr<9RMkMkMMMMMBBMMBBBRq<wSBMMMMMBBMMMMMBMkSg;",
"%pkMMMAMAMMBMMMBBMMSr<qJkMMkMMMMMMBMMMMMRq<wlBMMMMMMMMMMMMBMkSg-",
"%pkMMMAAMMMMMMMMMMMSr<qRkMMMMMMMMkkkkMkkJq<wBBMMMMMBMMMMMMBMMSx-",
"%pkMMMMMMMMMMMMMMMMSt<qRMkkMMMMMMkkkkMkkJq<wSMMMMMMBMMMMMMMMBGz-",
"%aABMMMMMMMMMMMMMMMSr<qRMkkMMMMMMMkMMMMMJq<wSMMMMMMMMMMMMMMMMSx-",
"%aMMMMMMMMMMMMMMMMMAr<qPMMMMMMMMMBMMMMMMPq<eSBMMMMAAMMMMMMMMMSd*",
"%aBMMMMMMMMMMMMMMMMSr<9JMMMMMMMMMMMMkMMMJq<eBBMMMMAMBMMMBMMMMSd-",
"%pMMMMMMMMMMMMMMMMMGr<9JMMMBMBBBBBBBMMMMPq<wSBMMMMMMMMMMMMMMMSf-",
"=dABBSCGGGSSCBGGFGGPt<9PkkAkkSSkklkkkkkkP9<wBBMMMMMMMMMMMMMMMSf-",
"@wgggggggggggggggggkw-$2<<<<<<<<<<<<<<<<2&-rBBMMMMMMMMMMMMMMMSf-",
"@<;<<<<,,<<<<,,<<<<<-$XOOOOOOooOOOOOOOOOO -sBMMMMMMMMMMMMMMMMSd-",
"qw97777777777767777779977788787998877898w<:rMMMMMMMMMMMBMMMMMAd-",
"VUGBBBBBBBBBBBBBxkSABSGGSBBBZZBBJBBBSSSSI9<wMMkMMMMMMMMMBBMBMAd-",
"nRGBBBBBMBBBBBBBBMMBBBBBBBBBBMMBBBBBBMBMJ9<wBBMkMMMBMMMMMBMAMSh-",
"uRAMMMMMMMMMMBMMMMMMMMMMMMMMMMMMBMkkkkMMG9<wSMMMMMMMMMMMMMMBMSx-",
"nRAMMMMMMMMMMMMMMMMMMMMMMMMMMMMMMMMkkkBMG9,wSMMMMMMMMMMMMMMMBSx-",
"nEAMMMBMMMMBMMMMMBMMMMMMMBMMMMMMMkkkMMMMJ9<wSMMMMMMMMMMMMMMMMSd-",
"nRFMMMBMBMMBMMMMMBBMMMMMMMMMMMMMMkkkMMMMJ9<wlBMMMMMMMMMMMMMMMSf-",
"nRFMMMMMMMMMMMMMMBBMMMMMMMMMMBMMMMkMMMMMP9<wlMkkMMMMMMMMBBMMMSz;",
"nEFMMMMMMMMMMMkMMMMMMMMMMMAMMMMMMMkkMMMMP9<wBBMkMMMMMBMMMMMMMSx;",
"nEFMMMMMBMMBkkkMMMMMBMMkkMSkkBBMMMMMMMBMJ7:wSBMMMMMMMMMMBBMMMGx-",
"nEFMMMMMMMMMkkMMMMMMMMkkkkMMMMMMMMMMMMMMG7>wBBMMMBBBBBMMBBMBAGx-",
"mEFkMMMMMMBMMMMMMMMMMMMMMMkMMMMMMMMMMMMMG9<wSBMMMMMMMMMMMBMMMSx-",
"mESMMMBMMMBMMMMMMMMMMMMMMMMMMMMMklBMMBBBP9<wSMMMMMMMMMMMMMMMMAh;",
"nEAkMMMMMkMMMMMMMMMMMMMMMAMMMMMMMlkkMMMMJ9<wSBMMBMMMMMMMBBMBBSh;",
"nEAkBMMMMMMBMMMMBMMMMMkkMAMMMMMMMkkkMMBMJ9<wSBMMMMBMBMMMMMMBMAh-",
"nEFMMBBBBBMMMMMMBMMMMMMMMMBMMMMMMMMBBBBBP9<wBMMMMMMMMMMMMMMMBSg-",
"nEFkkMMMMBBMMMkBBBMMMMMMMMkMMMMMMMMBBMMMJ9<wBBMMMBMMMMMMBBMBBSx-",
"nRFkkMMMMMMMMMMBMMMMMMMMMBMMMMMMMMMMBBMMP9,wBBMMMMMMMMMMMMMBBGx-",
"VEGBBMMMMMMMkMMBBBMMBMMMBBMMMMMMMMMMMMBMG9,wAMjMMMMMMMMjAMMBBSh;",
"ySjggggsggjgsssggggggggsggssgssgggsggssgx6:wAMjjMMMMAAAAAMMMMAh-",
"7w08888888888778088887788888987787888888w<:rGAMjMMMAAAAAAAAMMSh="
};
