/* XPM */
static char *bf60a4032e1441ea9b2063ed2bfa56b6BCt9HY9QHgVQVMNF[] = {
/* columns rows colors chars-per-pixel */
"32 32 7 1 ",
"  c #191C2A",
". c #1F2C2C",
"X c #273535",
"o c #172459",
"O c #303D43",
"+ c #35444A",
"@ c #405156",
/* pixels */
"XXXXXXXXXXXXXXXXXX ...XXXXXXXXXX",
"XXXXXXXXXXXXXXXX  .....XXXXXXXXX",
"XXXXXXXXXXXXXX  ........XXXXXXXX",
"XXXXXXXXXXXXX ...........XXXXXXX",
"XXXXXXXXX ................XXXXXX",
"XXXXXXX  ..................XXXXX",
"XXXXXX ....................XXXXX",
"XXXXXX ...................XXXXXX",
"XXXXXX ..................XXXXXXX",
"XXXXXXX ......XXXXX.....XXXXXXXX",
"XXXXXXXX ....XXXXXXXXXXXXXXXXXXX",
"XXXXXXXXX ..XXXXXXXXXXXXXXXXXXXX",
"XXXXXXXXXXXXXXXXXXXXXXXXXXXXXXXX",
"XXXXXXXXXXXXXXXXXXXXXXXXXXXXXXXX",
"XXXXXXXXXXXXXXXXXXXXXXXXXXXXXXXX",
"XXXXXXXXXXOOOOXXXXXXXXXXXXXXXXXX",
"XXXXXXXXXXXXOOOOXXXXOOOOOXXXXXXX",
"XXXXXXXXXXXXXXXXXXOOOOXXXXXXXXXX",
"XXXXXXXXXXXXXXXXXXXXXXXXXXXXXXXX",
"XXXXXX++++XXXXXXXXXXXXXXXXXXXXXX",
"XXX+++++++++++XXXXXXXXXXXXXXXXXX",
"XXX++++++++++XXXXXXXXX+++XXXXXXX",
"XX++++++XXXXXXXXXXX+++++++XXXXXX",
"+++++++XXXXXXXXXXX++++++++++XXXX",
"+++++XXXXXXXXXXXXXXXXXXX++++++++",
"++XXXXXXXXX@@XXXXXXXXXXXXX++++++",
"XXXXXXXXXX@@@XXXXXXXXXXXXXXXXXXX",
"XXXXXXXX@@@@@@XXXXX@@@@XXXXXXXXX",
"XXXXX@@@@@@@@@@@@@@@XXXXX@@@XXXX",
"@@@@@@@@@@@@@@@@@@@@@XXXXX@@@XX@",
"@@@@@@@@@@@@@@@@@@@@@@@@@@@@@@@@",
"oooooooooooooooooooooooooooooooo"
};
