/* XPM */
static char *eaa9ac52fac040c2f671a8d711658478fuSf4GutOtFIu8Qc[] = {
/* columns rows colors chars-per-pixel */
"64 64 228 2 ",
"   c #1D0A19",
".  c #24080E",
"X  c #230614",
"o  c #250914",
"O  c #2B0914",
"+  c #240C1B",
"@  c #2B0B1A",
"#  c #370C15",
"$  c #330C1C",
"%  c #3B0D1C",
"&  c #2E1117",
"*  c #391717",
"=  c #33131D",
"-  c #3C141C",
";  c #1E1123",
":  c #261423",
">  c #2B1423",
",  c #2B1829",
"<  c #301125",
"1  c #351725",
"2  c #291D32",
"3  c #3C2327",
"4  c #2B2437",
"5  c #3C2A37",
"6  c #440D18",
"7  c #43111C",
"8  c #4A121B",
"9  c #491819",
"0  c #52161D",
"q  c #54191D",
"w  c #5C1C1D",
"e  c #651D1F",
"r  c #4B231E",
"t  c #52221F",
"y  c #67231F",
"u  c #471724",
"i  c #5B1622",
"p  c #551824",
"a  c #5C1A22",
"s  c #461D31",
"d  c #601623",
"f  c #631B22",
"g  c #6A1D22",
"h  c #482628",
"j  c #45292F",
"k  c #582624",
"l  c #5A332C",
"z  c #572933",
"x  c #483635",
"c  c #5D3B3A",
"v  c #632223",
"b  c #6C2623",
"n  c #682926",
"m  c #732424",
"M  c #732B25",
"N  c #7B2B24",
"B  c #792B28",
"V  c #67352B",
"C  c #7D3329",
"Z  c #79362A",
"A  c #692D33",
"S  c #663738",
"D  c #763937",
"F  c #58433E",
"G  c #684638",
"H  c #764C3A",
"J  c #322D46",
"K  c #2F3245",
"L  c #36334A",
"P  c #4F3647",
"I  c #423D55",
"U  c #534A51",
"Y  c #5E535A",
"T  c #694846",
"R  c #6B544A",
"E  c #765846",
"W  c #734D54",
"Q  c #79634D",
"!  c #6A6459",
"~  c #6B6B5B",
"^  c #716E5A",
"/  c #5A4D61",
"(  c #51536D",
")  c #595869",
"_  c #645D69",
"`  c #735766",
"'  c #5D616F",
"]  c #67646A",
"[  c #716C6E",
"{  c #797666",
"}  c #676479",
"|  c #777777",
" . c #842E26",
".. c #863226",
"X. c #853529",
"o. c #8C362A",
"O. c #833A2C",
"+. c #8C3A2C",
"@. c #963B2A",
"#. c #933C2C",
"$. c #893E31",
"%. c #86422D",
"&. c #8B442F",
"*. c #94422E",
"=. c #9B442E",
"-. c #93492D",
";. c #8B4632",
":. c #954331",
">. c #9C4631",
",. c #964C35",
"<. c #9C4B34",
"1. c #995339",
"2. c #A5482F",
"3. c #A14733",
"4. c #A44B33",
"5. c #AA4D33",
"6. c #A45136",
"7. c #AB5236",
"8. c #A4543A",
"9. c #AB5539",
"0. c #A35B3B",
"q. c #AD5A3C",
"w. c #B25335",
"e. c #B75837",
"r. c #B25639",
"t. c #B45A3B",
"y. c #BB5D3B",
"u. c #B6623E",
"i. c #BC613D",
"p. c #C25E3C",
"a. c #C3633D",
"s. c #CA683E",
"d. c #875C47",
"f. c #9F5B42",
"g. c #B15F40",
"h. c #99634D",
"j. c #8C6550",
"k. c #86755C",
"l. c #AB6849",
"z. c #B96543",
"x. c #BC6441",
"c. c #A36F54",
"v. c #B27256",
"b. c #8D7567",
"n. c #C36541",
"m. c #C46944",
"M. c #CB6B43",
"N. c #C86A45",
"B. c #D16E44",
"V. c #CB7045",
"C. c #CC7149",
"Z. c #D37246",
"A. c #D2744A",
"S. c #D9784A",
"D. c #CE7B51",
"F. c #DC7D50",
"G. c #E37B4A",
"H. c #C07F65",
"J. c #7E8060",
"K. c #7C8672",
"L. c #87836A",
"P. c #8C8B69",
"I. c #858874",
"U. c #8B8B73",
"Y. c #948B73",
"T. c #8D9878",
"R. c #939878",
"E. c #AD8D76",
"W. c #DF804E",
"Q. c #DB8657",
"!. c #E58756",
"~. c #D0906C",
"^. c #C59478",
"/. c #E8986A",
"(. c #E79C70",
"). c #EAA476",
"_. c #6E7287",
"`. c #938E85",
"'. c #8B9584",
"]. c #949D83",
"[. c #989E83",
"{. c #9BA687",
"}. c #A5AB89",
"|. c #A4AB8B",
" X c #A6B88C",
".X c #ABB694",
"XX c #ADBB97",
"oX c #B0BC98",
"OX c #CF9F82",
"+X c #D8AC8C",
"@X c #ECAD86",
"#X c #ECB68D",
"$X c #E9B893",
"%X c #F0BA94",
"&X c #ADC78E",
"*X c #AFC893",
"=X c #B1C993",
"-X c #B3C39C",
";X c #B5CA99",
":X c #B7D19A",
">X c #BBD29C",
",X c #B7C6A1",
"<X c #BCCCA4",
"1X c #BED4A3",
"2X c #BFD5A6",
"3X c #C0D79F",
"4X c #F0C49B",
"5X c #C1D5A4",
"6X c #C3DAA6",
"7X c #C3D3AA",
"8X c #C5DBAB",
"9X c #C9DDAE",
"0X c #CBDDB2",
"qX c #E8C9AB",
"wX c #CBE2AE",
"eX c #CEE3B3",
"rX c #CFE6B8",
"tX c #D1E5B7",
"yX c #D2E8B6",
"uX c #D2E5B8",
"iX c #D5E6B9",
"pX c #D6E9BB",
"aX c #D8ECBF",
"sX c #E9D7CB",
"dX c #D7E7C0",
"fX c #DAECC1",
"gX c #DFEDC8",
"hX c #E0EFC9",
/* pixels */
"7XtXaXdXdXdXdXdXdXdXdXpXpXdXdXdXdXdXpXpX8X;X5XtXuXrXtXtXtXtXtXrXrXtXtXtXtXtXtXtXtXtXtXtXtXtXtXtXtXtXtXtXtXrXrXrXrXtXrXrXtXtXyXpX",
">XwXtXuXuXuXuXuXuXuXuXuXuXuXuXuXuXuXuXtX5X&X1XtXtXrXtXtXtXtXeXeXrXtXtXtXtXtXtXtXyXyXtXtXtXtXtXtXtXtXtXtXrXeXrXrXrXrXtXtXtXtXpXaX",
"1XwXtXuXuXuXuXuXuXuXuXuXuXuXuXuXuXuXuXtX5X=X5XiXiXuXuXuXuXuXuXuXuXuXuXuXuXuXuXuXtXuXuXuXuXuXuXuXuXuXuXuXtXtXuXtXuXuXuXuXuXuXpXfX",
"1XwXtXuXuXuXuXuXuXuXuXuXtXuXuXuXuXuXuXtX5X*X5XiXuXuXuXuXuXuXuXuXuXuXuXuXtXuXuXuXtXtXtXtXuXuXuXuXuXuXuXuXtXtXtXtXuXuXuXuXuXuXpXfX",
"1XwXtXuXuXuXuXuXuXuXuXuXuXuXuXuXuXuXuXtX5X*X5XiXuXtXuXtXtXtXtXtXuXuXuXuXuXuXuXuXtXtXuXuXuXuXtXuXuXuXuXuXtXtXtXtXuXuXuXtXtXuXpXfX",
"1XwXtXuXuXuXuXuXuXuXuXuXuXuXuXuXuXuXuXrX2X=X5XiXuXuXuXtXtXtXtXtXuXuXuXuXuXuXuXuXuXtXuXuXuXuXtXuXuXuXuXuXtXtXtXtXuXuXuXuXuXuXpXfX",
"1XwXtXuXuXuXuXuXuXuXuXuXuXuXuXuXuXuXuXuX5X=X5XiXuXuXuXtXtXtXtXtXtXtXuXuXuXuXuXuXuXuXuXuXuXuXtXuXuXuXuXuXuXuXuXuXtXtXuXuXuXuXpXfX",
"1XwXtXuXuXuXuXuXuXuXuXuXuXuXuXuXuXuXuXuX5X=X5XuXuXuXuXtXtXtXtXtXtXtXtXuXuXuXuXuXuXuXuXuXuXuXtXuXuXuXuXuXuXtXuXtXtXtXtXuXuXuXpXfX",
"2XeXtXuXuXuXuXuXuXuXuXuXuXuXuXuXuXuXuXuX5X=X5XiXtXuXuXuXuXuXtXtXtXtXtXuXuXuXuXuXuXuXuXtXtXtXtXuXuXtXuXuXuXtXtXtXtXuXuXuXuXuXpXfX",
"2XeXtXuXuXuXuXuXuXuXuXuXuXuXuXuXuXuXuXuX5X=X5XiXuXuXuXuXuXuXtXtXuXuXtXuXuXuXuXuXuXuXuXtXuXuXuXuXuXtXtXtXuXtXuXuXuXuXuXuXuXuXpXfX",
"2XeXtXuXuXuXuXuXuXuXuXuXtXuXuXuXuXuXuXuX5X=X5XiXiXuXuXuXuXuXeXtXtXtXtXtXuXuXuXuXuXuXuXuXuXuXuXuXuXtXtXtXtXuXuXuXuXuXuXuXuXuXpXfX",
"5XeXuXuXuXuXuXuXuXuXuXuXuXuXuXuXuXuXuXuX5X=X5XiXuXuXuXuXeX<X.X}.}.}.oX8XtXuXuXuXuXuXuXuXuXuXuXtXuXtXtXuXtXuXuXuXuXuXuXuXuXuXpXfX",
"5XeXuXuXuXtXuXuXuXtXuXuXuXuXuXuXuXuXuXuX5X=X5XiXuXuXuX0X}.k.d.d.d.E E U.,XeXuXuXuXuXuXuXuXuXtXtXtXuXuXtXtXuXuXuXtXtXuXuXuXuXpXfX",
"5XeXuXuXuXuXtXtXuXtXtXuXuXuXuXuXuXuXuXuX5X=X5XiXuXuX0X}.d.1.v.^.^.l.Z c ~ .X0XuXuXuXuXuXuXuXtXtXuXuXuXuXuXtXtXtXtXtXtXuXuXuXpXfX",
"5XeXuXuXuXuXuXtXtXtXuXuXuXuXuXuXuXuXuXuX5X=X5XiXuX0X}.Q h.OX$X#X@XQ.i.O.k R }.0XuXuXuXuXuXuXtXuXuXuXuXuXuXtXuXtXtXtXuXuXuXuXpXfX",
"5XeXuXuXuXuXuXuXuXuXuXuXuXuXuXuXuXuXuXuX5X=X5XpXuX-XQ d.+X4X).!.!.G.S.t.M u ! ,XuXuXuXuXuXtXtXuXuXuXuXtXtXtXuXtXtXtXuXuXuXuXpXfX",
"5XeXuXuXuXuXtXtXuXuXuXuXtXuXuXuXuXuXuXuX5X=X5XpX8XR.E ^.$X/.S.a.9.N.Z.a.>.v x R.0XuXuXuXtXtXtXuXuXuXuXtXtXtXuXtXtXtXuXuXuXuXpXfX",
"5XwXuXuXuXtXtXtXtXuXuXtXtXuXuXuXuXuXuXuX5X=X2XeX}.R c.#X/.G.B.*.y 9.Z.M.w.C u ! ,XuXuXuXuXuXuXuXuXuXuXuXuXuXtXuXuXuXuXuXuXiXpXfX",
"5XwXtXuXuXuXuXuXtXuXuXuXuXtXuXuXuXuXuXtX5X*X2X8XU.H ^.#X!.S.M.<.C t.S.B.y.#.p x {.eXiXuXuXuXuXiXuXuXuXuXuXuXuXuXiXuXiXiXiXpXpXfX",
"5XwXtXuXuXuXtXuXuXuXuXuXuXuXuXuXuXuXuXtX5X&X:X-Xk.c.$X).W.Z.A.N.x.n.i.y.p.5.b = ~ <XeXeXeXeXeXwXeXeXeXeXeXeXeXeXeXeXeXeXeXeXyXpX",
"5XwXtXuXuXuXuXuXuXuXuXuXuXuXuXuX8X.X}.}.R.P.L.! E ^.@XQ.Z.M.B.A.A.t.M C t.e.+.9 j ^ R.R.R.T.R. X>X:X:X:X>X>X>X>X>X>X>X>X>X>X3X8X",
"5XwXtXuXuXuXuXuXuXuXuXuXuXeX-XR.P.j.d.d.d.H H G b.+X!.Z.V.M.M.Z.S.u.M n q.n.7.$.k l G G G G G Q J.T. X=X=X=X=X=X=X=X=X=X=X=X=X:X",
"5XwXuXuXuXuXuXuXuXuXtXuXeXoXk.E j.E.E.^.^.^.^.E.+X/.m.4.4.m.C.z.z.m.9.8.z.z.x.x.l.c.v.l.l.l.l.1.D G {  X5X6X8X8X8X8X8X8X8X8X6X1X",
"5XwXuXuXtXuXuXuXuXuXuXeXXXk.j.^.$XqX%X@X#X#X@X@X/.F.t.m C m.D.8.*.n.Z.M.N.z.8.i.D.~./.Q.Q.Q.Q.D.g.O.l ! .XeXpXiXiXiXiXiXpXpXpXwX",
"5XwXtXuXuXuXuXuXuXuXeXXXk.h.+X4X@X(.!.S.F.F.S.Z.a.x.z.>.6.S.D.t.8.m.B.Z.V.9.M ,.C.a.9.y.M.N.n.N.m.z.Z h ~ ,XtXtXtXuXtXtXuXuXyXeX",
"5XwXtXuXuXuXuXuXuXuX7XL.;.^.4X/.G.Z.B.Z.A.C.A.m.X.O.m.Z.N.u.-.%.%.;.1.x.A.z.&.8.C.7. .<.N.m.r.7.9.9.>.w x T.8XtXrXuXuXuXuXuXyXwX",
"5XwXtXuXuXuXtXuXuXeX}.R h.$X(.S.S.C.C.M.C.z.m.x.*.+.a.N.,.V l V l k k V 0.V.N.N.M.e.=.7.n.m.y.7.8.<.o.v - U }.eXuXuXuXuXuXuXyX9X",
"1XwXtXtXuXuXuXuXuX0XI.k l.(.W.B.B.M.r.9.N.9.>.m.M.a.a.;.G b.E.v.1.D k * r 1.V.B.m.a.y.x.m.x.t.7.4.>.C a % > { 8XtXuXuXuXuXuXtX9X",
"1XwXtXtXtXuXuXuXtX0XL.t 6.W.Z.B.M.a.=.C g.q.>.M.B.a.*.S `.sXqXv.<.$.Z k $ r 1.N.N.n.n.n.x.t.9.4.>.o.m a % X ! 7XtXuXuXuXuXuXyXwX",
"5XwXtXuXuXuXuXuXuX0XY.9 N y.M.B.M.m.9.*.t.N.n.M.M.9.k d.qXsX^.1.+.O.M v 7 o V u.M.n.n.y.e.e.7.:.X.N f p < + ! 7XtXuXuXuXuXuXyXwX",
"5XeXtXuXuXuXuXuXuXeXE.q 8 ..5.y.m.m.a.n.m.x.M.M.N.;.k f.~.H.1.$.O.C M k 8 o * 1.a.a.p.e.e.w.4.#. .m f 7 : 2 [ 7XtXuXtXuXuXuXyXeX",
"5XeXuXuXuXuXuXuXuX0XE.v # 9  .@.7.y.y.x.z.i.M.s.n.Z k :.6.:.+.X.C M n w 7 o & &.a.a.y.r.9.6.:.X.m f u @ 4 I | 7XtXuXuXuXuXuXyXeX",
"5XeXtXuXuXuXrXuXuX0XY.v 8 O q N @.7.y.r.9.9.r.s.a.Z 9 C +.X.C C M b a 0 % X & %.a.e.+.C -.,.O.m a u = : U ( | 7XtXuXuXuXuXtXtX9X",
"1XwXtXuXuXuXuXuXuXeX{.G v # o 0 N #.7.y.w.#.>.a.a.%.- k M M M M b v 0 6 O + = &.M.7.y w O.&.b f u <   L ' _ ].0XuXuXuXuXuXuXtX9X",
"1XwXtXuXuXuXuXuXuXuX2XY.H n $ o 9 b #.w.y.7.r.m.s.6.r - q w e e w 0 # O , 4 j <.M.y.&.O.*.B i u > ; J } | I.<XtXuXuXuXuXuXiXiX9X",
"1XwXtXuXuXuXuXuXuXuXtX,XL.T A - . # b 4.p.i.x.a.s.a.Z = % 7 8 8 6 # O , L 4 V y.a.a.y.4.X.f u + ; L } _.'.-XeXuXuXuXuXuXuXiXpX9X",
"2XwXuXuXuXuXuXuXuXuXuXtX.X^ R S - . 9 9.C.N.N.7.=.a.q.l < < $ $ $ $ 2 L K j ,.m.7.<.r.5.X.a + : I _._.'.-XeXuXuXuXuXuXuXuXuXtX9X",
"2XeXuXuXuXuXuXuXuXuXuXuX0XXXI.R A # k z.D.C.m.X.b r.M.0.l > > , , 4 J 4 h ,.N.m.+.v :.7.+.a + L ' ' K.-XeXuXuXuXuXuXuXuXuXuXtX9X",
"2XeXuXuXuXuXuXuXuXuXuXuXtXeX,XU.c 9 ;.Q.D.m.y.+.+.a.s.M.q.H h 1 1 , 3 V 8.n.n.x.8.C ,.6.#.b = 4 U { oXeXuXuXuXuXuXuXuXuXuXuXtX9X",
"5XeXuXuXuXuXuXuXuXuXuXuXuXuXuXoXR k g.W.N.i.t.e.a.M.s.a.M.i.0.;.%.%.-.t.N.x.:.4.i.r.7.4.#.M 7 > ~ -XeXuXuXuXuXuXuXuXuXuXuXuXtX9X",
"5XeXuXuXuXuXuXuXiXiXiXuXuXuXiX,X! Z V.Z.a.y.t.a.s.m.n.a.a.N.m.t.5.i.a.M.N.t.X.:.y.y.w.=.X.B i h I.0XuXuXuXuXuXuXuXuXuXuXuXuXiX9X",
">X5X8X8X8X8X8X8X8X8X8X8X8X8X8X{.F &.Z.s.y.i.i.i.y.i.9.4.w.i.r.+.m 4.a.y.t.y.r.4.:.>.4.=.X.m a u ! -XuXuXuXuXuXuXuXuXuXuXuXuXyX9X",
";X=X=X*X*X=X*X*X*X=X=X=X*X*X X^ k +.a.a.y.e.y.=.C <.7.@.2.7.5.X.b 6.N.9.*.7.a.>.v N =.=.X.m f % x {.uXuXuXuXuXuXuXuXuXuXuXuXyX9X",
"8X5X1X:X:X>X>X:X>X>X:X>X>X>XXX~ 9 ..w.e.t.y.t.X.w C r.5.4.7.5.3.#.4.r.t.7.7.e.4.C X...X.+.B i % x {.uXuXuXuXuXuXuXuXuXuXuXuXyXwX",
"fXpXtXtXtXtXtXtXtXtXtXtXtXtX<X{ - N 5.w.7.r.7.>.X.=.5.3.*.#.o. . .o.@.4.4.4.4.4.>.#.X.X. .f p $ 5 ].tXuXuXuXuXuXuXuXuXuXuXuXyXwX",
"gXaXiXiXiXiXiXiXiXiXiXiXiXiX7X{ - q #.4.4.4.4.>.*.#.o...N m g i 0 a m ..X.o.+.+.o...o...g p p < , I.8XuXuXuXuXuXuXuXuXuXuXuXyX9X",
"gXaXuXuXtXuXuXuXuXuXuXuXuXiX7Xb.k 7 b o.+.+.#.+. .N m e f a u o   O 8 v m N N B m N N f 0 p u , 5 { -XuXuXuXuXuXuXuXuXuXuXuXyX9X",
"gXaXuXuXtXuXuXuXuXuXuXuXuXuX7XL.n 8 # w m m m m g e e i 8 $ o + @ o O % 0 f g g g g f i i u + J U { -XuXuXuXuXuXuXuXuXuXuXiXyX9X",
"gXaXuXuXuXuXuXuXuXuXuXuXuXuX8XR.V w O # 0 i i i i a p - o   , P P z = X O 7 p f d i i p u O 2 ( _ U.7XuXuXtXuXuXuXuXuXuXuXiXtX9X",
"gXaXuXuXuXuXuXuXuXuXuXuXuXuXtX.XR b 0 O O % u h s 1 @   : P / Y Y c z u O X @ 1 s s s 1 @ ; ( _.] {.eXuXuXuXuXuXuXuXuXuXuXuXyX9X",
"gXaXuXuXuXuXuXuXuXuXuXuXuXuXuX8XR.G Z p $ o + : : + : 5 / } _ ] K.R c D A u @ + : : +   2 / _.| U.<XuXuXuXuXuXuXuXuXuXuXuXuXyX9X",
"gXaXuXuXuXuXuXuXuXuXuXuXuXuXtXtX<XU.G D A k u 1 5 P / _ ] ] '.oX<X.XI.R T S S z 1 1 4 I ) _.| '.<XeXuXuXuXuXuXuXuXuXuXuXuXuXiX9X",
"gXfXuXuXuXuXtXuXuXuXuXuXtXtXtXuXtX<XU.T T W W ` [ [ ] Y [ {.7XuXuXeX2X[.~ F T W W ` } _.} ) U.<XtXuXuXuXuXuXuXuXuXuXuXuXuXiXpX9X",
"gXaXuXuXuXuXuXuXuXuXuXuXtXtXuXuXuXtX<X[.L.~ _ ] ] ] I.[.-X8XtXuXuXuXtX8X-XT.{ Y Y ] ] [ K.[.<XtXuXuXuXuXuXuXuXuXuXuXuXuXuXpXpXwX",
"hXaXuXuXuXuXuXuXuXuXuXuXtXtXuXuXuXuXuX0X<XXX{.].].{.,X8XtXuXuXuXuXuXuXuXtX8X,X{.].T.K.{.;X8XtXuXuXuXuXuXuXuXuXuXuXuXuXuXuXuXyXwX",
"hXaXuXuXuXuXuXuXuXuXuXuXuXuXuXuXuXuXiXiXiXtX0X8X8XeXtXuXuXuXuXuXtXtXuXuXuXuXuX0X0X1X X:XeXiXuXuXuXuXuXuXuXuXuXuXuXuXuXuXuXuXyXwX",
"hXaXuXtXtXuXuXuXtXtXuXuXuXuXuXuXuXuXuXuXuXuXuXuXuXuXuXuXuXuXuXuXuXtXtXtXuXuXuXuXpX8X=X>XeXuXuXuXuXuXuXuXuXuXuXuXuXuXuXuXuXuXyXwX",
"hXaXuXtXtXuXuXuXtXtXuXuXuXuXuXuXuXuXuXuXuXuXtXtXuXuXuXuXuXuXuXuXuXtXtXtXuXuXuXuXiX8X*X>XeXiXuXuXuXuXuXuXuXuXuXuXuXuXuXuXuXuXyXwX",
"hXaXuXtXiXuXuXuXuXuXuXuXuXtXuXuXuXuXuXuXuXuXtXuXuXuXuXuXuXuXuXuXuXuXuXuXuXuXuXiXpX8X=X:XeXuXuXuXuXuXuXuXuXuXuXuXuXuXuXuXuXuXyXwX",
"gXfXuXtXtXuXuXuXuXuXuXuXuXtXtXuXuXuXuXuXuXuXuXuXuXtXtXuXuXuXuXuXuXuXuXuXiXuXuXuXpX8X=X:XeXuXuXuXuXuXuXuXuXuXuXuXuXuXuXuXuXiXpX9X",
"gXaXuXtXtXuXuXtXuXuXuXuXuXtXuXuXuXuXuXuXuXuXuXuXuXuXtXuXuXuXuXuXuXuXuXuXuXuXuXuXpX8X*X:XeXiXuXuXuXuXuXuXuXuXuXuXuXuXuXuXuXiXpX9X",
"gXaXuXuXuXuXtXtXtXuXuXtXtXtXuXuXuXuXuXuXuXuXuXuXuXuXuXuXuXuXuXuXuXuXuXuXuXuXuXuXiX8X*X:XeXuXuXuXuXuXuXuXuXuXuXuXuXuXuXuXuXiXyXwX",
"fXpXtXeXeXeXeXeXeXeXrXeXeXeXeXeXtXeXeXeXeXeXeXeXeXeXeXeXeXeXeXeXeXeXeXeXeXeXeXeXrX1X&X:XeXuXuXuXuXuXuXuXrXrXrXuXuXuXuXuXuXuXyX8X",
"eXwX8X6X6X6X6X6X6X6X6X6X6X5X5X6X8X6X6X6X5X5X6X6X6X6X6X6X6X6X5X6X6X5X6X6X6X6X6X6X6X:X&X:XrXuXuXuXuXuXuXuXuXuXuXuXuXuXuXuXuXuXyX8X"
};
