/* XPM */
static char *b852ec17344d412af7fc1f45e71b5e93DCmmRLHj2n0uDBXz[] = {
/* columns rows colors chars-per-pixel */
"64 64 202 2 ",
"   c #3C322E",
".  c #453836",
"X  c #4A403F",
"o  c #4E4341",
"O  c #5A4E4B",
"+  c #665952",
"@  c #6D6464",
"#  c #7C6E63",
"$  c #B1780F",
"%  c #817569",
"&  c #8A7C6E",
"*  c #B26564",
"=  c #BA7671",
"-  c #BB8311",
";  c #B78725",
":  c #B88A31",
">  c #BE9A36",
",  c #B9A33C",
"<  c #CC8C0B",
"1  c #D48F01",
"2  c #D08F08",
"3  c #D69103",
"4  c #D99608",
"5  c #CC8E15",
"6  c #CD9818",
"7  c #D3991A",
"8  c #E29B02",
"9  c #E7A60C",
"0  c #E4A615",
"q  c #C89829",
"w  c #C29A3A",
"e  c #CBA229",
"r  c #DAA626",
"t  c #D7A739",
"y  c #DAD01A",
"u  c #E3D701",
"i  c #E6DB02",
"p  c #E9DE02",
"a  c #E3DD13",
"s  c #ECE103",
"d  c #EBE70F",
"f  c #F4EC02",
"g  c #F9EE01",
"h  c #F4EE0C",
"j  c #F6F204",
"k  c #FCF401",
"l  c #F7F30A",
"z  c #F8F309",
"x  c #E5E314",
"c  c #EAE518",
"v  c #EDEA1C",
"b  c #F2ED15",
"n  c #CCD02A",
"m  c #D8D729",
"M  c #D9D739",
"N  c #E4DC26",
"B  c #E1DA3D",
"V  c #E6E127",
"C  c #E7E038",
"Z  c #B69254",
"A  c #BBA548",
"S  c #B8B857",
"D  c #8F8173",
"F  c #93867A",
"G  c #B29E63",
"H  c #9DA87B",
"J  c #9CB476",
"K  c #9CB47B",
"L  c #A3AA61",
"P  c #AABD6A",
"I  c #B2B36A",
"U  c #A3B770",
"Y  c #A2BA7D",
"T  c #B8B877",
"R  c #C89A46",
"E  c #CFB052",
"W  c #CAB559",
"Q  c #C6B765",
"!  c #D5B16D",
"~  c #CBAE7C",
"^  c #D3B37A",
"/  c #BBC240",
"(  c #BECB6F",
")  c #C1C644",
"_  c #CBD24E",
"`  c #DAD848",
"'  c #C4CB58",
"]  c #CAD158",
"[  c #D6D556",
"{  c #E1DA53",
"}  c #D0CD6D",
"|  c #D2D763",
" . c #C3C87A",
".. c #CED674",
"X. c #CFD979",
"o. c #9D9182",
"O. c #A29686",
"+. c #A89B8B",
"@. c #A2AC83",
"#. c #A3BC83",
"$. c #A8BA88",
"%. c #B7B485",
"&. c #BAA996",
"*. c #B6B69A",
"=. c #BDBAA1",
"-. c #C69288",
";. c #C49A91",
":. c #C4B68E",
">. c #CDB897",
",. c #C7BBA6",
"<. c #D2B5AE",
"1. c #A6C288",
"2. c #ACC48D",
"3. c #ADC98F",
"4. c #B6C888",
"5. c #AFC991",
"6. c #B1C790",
"7. c #B3CA95",
"8. c #B9CF96",
"9. c #B5C79C",
"0. c #BCC39C",
"q. c #B6CD9A",
"w. c #B9CD9D",
"e. c #B7D099",
"r. c #BBD29D",
"t. c #BAC6A1",
"y. c #BACDA2",
"u. c #BED3A3",
"i. c #BFD8A3",
"p. c #BED2A9",
"a. c #C7C988",
"s. c #DBC68C",
"d. c #C8D386",
"f. c #DAD481",
"g. c #C3C694",
"h. c #D8C399",
"j. c #C3D59E",
"k. c #C9D899",
"l. c #D6D499",
"z. c #E5E095",
"x. c #C7C6A4",
"c. c #CBC3AE",
"v. c #C2CEAA",
"b. c #DBC4AA",
"n. c #C2D6A6",
"m. c #C9D6A2",
"M. c #C1D9A4",
"N. c #CBDBA5",
"B. c #C3D3A8",
"V. c #CCD5AE",
"C. c #C6DCAA",
"Z. c #CADEAC",
"A. c #D2D8A7",
"S. c #C8C7BB",
"D. c #DAC8B3",
"F. c #CCDCB3",
"G. c #D6D4B8",
"H. c #DBD6BE",
"J. c #E4CDA6",
"K. c #E5CCB8",
"L. c #E3D5BC",
"P. c #E8DDBB",
"I. c #CBE1AE",
"U. c #D3E2AF",
"Y. c #CEE3B3",
"T. c #CFE6B8",
"R. c #D1E5B6",
"E. c #D2E4B7",
"W. c #D2E8B7",
"Q. c #D2E4B8",
"!. c #D3E5B8",
"~. c #D3E8BA",
"^. c #D9EBBF",
"/. c #D9ECBF",
"(. c #F1E6BE",
"). c #DDCBCA",
"_. c #DBD6C8",
"`. c #DCD8D3",
"'. c #E3D6C2",
"]. c #E4DBC2",
"[. c #E9DDC4",
"{. c #E4DAC9",
"}. c #E1DFD9",
"|. c #D8E7C2",
" X c #DAECC2",
".X c #DCEAC8",
"XX c #DEEBCA",
"oX c #EDE1CA",
"OX c #E0EDCD",
"+X c #F4E5CC",
"@X c #F1E9CE",
"#X c #E8E4D6",
"$X c #F5ECD2",
"%X c #FBEED4",
"&X c #FDF0D6",
"*X c #FDF3DA",
"=X c #E2DFE2",
"-X c #E4E3E3",
";X c #EBEAE6",
":X c #F1EFEA",
">X c #EFEEF1",
",X c #F5F4F7",
/* pixels */
"w.Z.R.!.!.!.!.!.!.!.!.!.!.!.!.!.!.!.!.R.M.5.r.Y.Y.Y.Y.Y.Y.Y.Y.Y.Y.Y.Y.Y.Y.Y.Y.I.I.I.Y.Y.Y.Y.Y.Y.Y.Y.Y.I.I.I.I.Y.Y.Y.I.Y.Y.Y.~.|.",
"q.C.R.!.!.!.!.!.!.!.!.!.!.!.!.!.!.!.!.Y.M.7.M.R.R.Y.R.R.R.R.Y.Y.Y.R.R.R.R.R.R.R.R.R.R.R.Y.Y.Y.R.R.R.R.R.Y.Y.Y.Y.Y.R.R.R.Y.!.^.|.",
"w.C.R.!.!.!.!.!.!.!.!.!.!.!.!.!.!.!.!.Y.i.7.n.!.!.!.!.!.!.!.R.R.!.R.R.!.!.!.!.R.R.R.R.!.!.R.R.!.!.!.!.R.R.R.R.!.!.!.!.!.!.~. X.X",
"w.C.R.!.!.!.!.!.R.!.!.R.R.R.!.!.!.!.T.Y.i.7.n.!.!.R.!.R.R.R.Y.Y.!.!.!.!.!.!.!.R.R.R.R.R.R.!.!.!.!.!.!.R.!.R.R.R.!.!.!.R.!.!. X.X",
"w.C.R.!.!.!.!.!.!.!.R.!.R.R.!.!.!.!.!.Y.i.7.n.!.R.R.R.R.R.R.Y.R.R.!.!.!.!.!.R.R.R.R.R.R.R.!.!.!.R.!.!.!.!.R.R.R.!.!.!.R.!.!. X.X",
"w.C.R.R.!.!.!.!.!.!.!.!.!.!.!.!.!.!.!.Y.i.7.n.!.R.R.R.R.R.R.R.!.R.R.!.!.!.!.!.!.!.!.!.!.!.!.!.!.!.!.!.!.!.R.R.R.R.!.R.!.!.~.^..X",
"w.C.Y.R.R.R.!.!.!.!.R.!.!.!.!.!.!.!.!.Y.i.7.n.!.R.R.R.R.R.R.R.R.R.R.R.!.!.!.R.!.!.!.!.!.!.!.R.!.!.!.!.!.!.!.R.R.R.R.!.!.!.~.^..X",
"y.Z.R.R.!.!.!.!.!.R.!.!.!.!.!.!.!.!.!.Y.i.7.n.!.!.R.R.R.R.R.R.R.R.R.R.!.!.!.R.!.!.!.R.R.R.R.!.!.R.R.!.!.!.R.R.R.R.R.R.!.!.!.^.XX",
"y.Z.R.!.!.!.R.!.!.!.!.!.!.!.!.!.!.!.!.T.i.7.n.R.!.!.!.!.!.R.R.R.R.R.R.R.R.R.!.!.!.!.R.R.R.R.!.R.R.R.R.R.!.R.R.R.R.R.!.R.R.!.^.XX",
"y.Z.R.!.!.!.!.!.!.!.!.!.!.!.!.!.!.!.!.Y.i.7.n.!.R.!.!.!.!.R.R.R.R.R.R.!.!.!.R.!.!.!.R.R.R.R.!.R.R.R.R.R.R.!.R.R.!.!.!.R.R.!.^.XX",
"y.Z.R.!.!.!.!.!.!.!.!.!.R.!.!.!.!.!.!.Y.M.7.n.!.!.!.!.!.!.R.R.R.R.R.R.R.!.!.!.!.!.!.!.!.!.!.!.!.R.R.R.R.R.!.!.!.!.!.!.!.!.~./..X",
"y.Z.R.!.R.R.!.!.!.R.!.R.!.R.!.!.!.!.!.R.n.7.n.!.!.!.!.!.R.R.R.R.R.R.R.R.R.!.!.!.!.!.!.!.!.R.R.R.R.R.R.R.R.!.!.!.!.!.!.!.!.~./..X",
"y.I.R.!.R.R.R.R.!.!.R.R.!.!.!.!.!.!.!.R.n.7.n.!.!.!.!.R.R.R.R.R.R.R.R.R.R.!.!.!.!.R.R.!.R.R.R.R.R.R.R.R.R.R.R.R.R.R.!.!.!.~./..X",
"y.Z.Y.!.!.R.R.R.R.R.R.R.R.!.!.!.!.!.!.Y.n.7.n.!.!.!.!.R.R.R.R.R.R.R.R.R.R.!.!.!.!.!.!.!.!.R.R.R.R.!.!.R.R.R.R.R.R.R.R.R.!.~.^..X",
"y.Z.R.!.!.!.R.R.R.R.R.R.!.!.!.!.!.!.!.Y.M.7.n.!.!.!.!.R.R.R.R.!.!.R.R.R.R.!.!.R.!.!.!.!.R.R.R.R.!.!.R.R.R.R.!.R.R.R.!.!.!.~./..X",
"y.I.R.!.!.!.R.R.R.R.!.!.R.R.!.!.!.!.!.Y.n.7.n.!.!.!.!.R.R.R.Y.Z.N.A.R.R.!.R.R.!.!.!.!.R.R.R.R.!.!.!.R.R.R.R.!.R.R.R.!.!.!.~./..X",
"y.I.R.!.!.R.R.R.R.R.!.R.R.R.!.!.!.!.!.Y.n.7.n.!.!.!.!.!.R.N.a.W E W a.Z.R.R.!.!.!.!.!.R.R.R.!.!.!.!.R.R.R.R.R.R.R.R.!.!.!.~./..X",
"y.Z.R.R.!.R.R.R.R.R.!.R.R.R.!.!.!.!.!.Y.i.7.n.!.!.!.!.R.m.Q r 9 9 9 t a.R.R.!.!.!.!.!.!.!.!.!.!.!.!.!.!.!.!.!.!.!.!.!.!.!.~./..X",
"y.Z.R.!.!.!.R.R.R.R.!.R.R.R.R.!.!.!.!.Y.i.7.M.!.!.!.!.Z.Q 0 8 3 1 3 0 Q U.R.R.R.!.R.!.R.R.R.!.R.R.R.!.!.R.R.!.!.!.!.!.!.!.~./..X",
"y.Z.R.!.!.!.!.R.R.!.!.!.!.!.!.!.!.!.!.Y.i.5.r.Y.Y.Y.Y.j.W 9 3 1 1 3 6 W k.N.Z.I.I.I.I.Z.Z.Z.Z.Z.Z.I.I.Z.Z.Z.Z.Z.Z.Z.Z.Z.Z.I.R.|.",
"y.Z.R.!.!.!.!.R.!.!.!.R.!.!.!.!.!.!.!.Y.i.1.1.7.7.7.7.6.I e 4 < 5 5 - q A S T 4.7.7.7.8.8.8.8.8.r.e.q.8.8.8.8.8.8.r.8.8.8.r.M.F.",
"w.Z.R.!.!.!.!.!.!.!.!.R.!.!.!.!.!.!.R.Y.i.1.J K Y K K J H L A E ^ ~ w 5 < 2 6 , L J #.3.7.7.7.7.7.7.7.7.7.7.7.7.7.7.7.7.7.7.e.y.",
"w.Z.R.!.!.!.!.!.!.!.!.R.!.!.!.!.!.R.R.Y.M.1.$.6.6.$.@.H @.2.0.P.+X'.>.R 5 < 3 9 e L #.r.C.Z.Z.Z.C.C.Z.Z.Z.Z.C.C.Z.Z.C.Z.Z.C.M.y.",
"w.Z.R.R.R.R.!.!.!.!.!.!.!.!.!.!.!.!.!.Y.M.7.r.Y.Z.0.*.*.*.B.G.$XoX].'.b.>.! t 4 2 q I j.R.R.R.R.R.R.!.!.!.!.R.R.!.R.R.!.!.~.Y.p.",
"y.Z.R.R.R.!.!.!.!.R.!.R.Y.R.!.!.!.!.!.R.n.7.n.!.!.v.=.G.x.V.H._.+.D O.c.$X$XJ.R $ - w g.R.R.R.R.!.!.!.!.!.!.R.R.!.!.R.!.!.~.Y.p.",
"y.I.R.R.!.!.!.Y.!.!.!.R.Y.R.!.!.!.!.!.R.M.7.B.!.!.B.%.:.x.].H.F O @ O O.#X'.,.:.Z ; 7 Q Z.R.Y.R.!.!.!.!.!.!.R.Y.!.!.!.!.!.W.Y.p.",
"w.I.R.R.R.R.R.!.!.!.!.R.R.R.!.!.!.!.!.R.M.7.B.!.!.N.T s.@X*XH.# o @ O +.,.# + % &.~ q > j.B.y.F.R.!.!.!.!.!.!.!.!.!.!.!.!.R.Y.p.",
"w.I.R.R.R.R.R.!.!.R.R.!.!.!.!.!.!.!.!.R.M.7.n.!.!.m. .(.*X%XL.&.& % O.c.% O @ . F b.R ; T *.*.t.Y.!.!.!.!.!.!.R.R.!.!.!.R.R.Y.p.",
"w.Z.Y.R.R.R.!.R.!.R.R.R.R.!.!.!.R.R.!.R.i.7.n.!.!.m.a.$X&X%X+X[.L.H.@X].# . X   o.].^ : G ,.c.*.F.!.!.!.!.!.!.!.R.!.!.R.R.!.Y.p.",
"y.Z.Y.R.R.R.R.R.R.R.R.R.R.R.!.R.R.!.!.Y.i.7.n.!.!.m.g.$X&X&X%X+X+X%X*X@X,.& # o.L.$XJ.h.h.%.0.v.Y.!.R.R.!.!.!.R.!.R.!.R.R.~.Y.p.",
"y.Z.Y.!.!.!.R.R.!.R.R.R.R.R.R.R.!.!.!.Y.n.7.n.!.!.C.g.P.&X+Xb.-.-.K.&X%X+XL.D.oX%X%X$X%XP.%.B.Y.!.!.R.!.!.R.R.R.R.R.R.R.R.W.Y.p.",
"y.Z.Y.R.!.!.R.!.R.R.R.R.R.R.R.!.!.!.!.Y.M.7.n.!.R.Y.x.x.oX<.= * = D.&X%X%X%X%X$XoXL.P.$X[.B.Y.!.!.!.!.!.!.R.R.R.R.R.R.R.R.W.Y.p.",
"y.C.Y.R.R.!.T.T.Y.R.!.!.!.!.!.!.!.!.!.Y.i.7.n.!.!.Y.v.S._.;.* * ;.'.oX[.'.{._.S.c.} ` l.G.F.R.R.R.!.!.!.!.!.!.R.R.!.!.R.R.R.Y.p.",
"y.C.Y.R.!.!.T.T.T.!.!.!.!.!.!.!.!.!.!.R.r.4.j.U.R.F.S.-X:X).<.<.`.#X`.`.`.=X_.a.[ V m  .V.R.R.!.R.!.!.!.!.!.!.!.!.!.!.!.R.R.Y.p.",
"w.C.Y.R.!.!.!.T.!.!.!.!.!.!.!.!.R.R.!.Y.d.) ' | d.d.d.}.,X,X;X`.#X:X;X;X}._.A.B b V ' j.R.!.!.R.!.!.!.!.!.!.!.!.!.!.!.!.!.!.Y.p.",
"y.Z.R.!.!.!.!.!.T.R.R.R.!.R.!.R.R.R.!.Z.] x a b N m C A.-X>X>X-X#Xz.f.G.l.[ C h b ' 4.M.R.R.!.!.!.!.!.!.!.R.R.R.R.R.!.R.!.!.Y.p.",
"y.C.R.!.!.!.!.!.R.R.R.R.R.R.!.R.!.!.!.N._ b j k k g b { ..l.`.H...N y M V h k j M 4.7.M.R.!.!.!.!.!.!.!.!.R.R.R.R.R.R.!.!.R.I.p.",
"y.Z.R.!.!.!.!.!.!.!.R.R.R.R.R.R.R.R.!.I.( ) m l k k k d c N { B y s i s k k k v ..r.7.M.R.!.!.!.R.T.T.!.!.!.R.!.!.!.R.!.!.R.Z.p.",
"y.I.R.!.!.!.!.!.!.!.!.!.R.R.!.!.!.!.!.Y.r.4. .V k k k p u g z f p f f i g k l ` k.u.7.M.R.!.!.R.!.!.!.!.!.!.!.!.!.!.!.!.!.R.Z.p.",
"y.I.R.!.!.!.!.!.!.!.!.!.!.!.!.!.!.!.!.R.i.7.8.| b k k f p g k f s k g i f k v X.I.u.7.M.R.!.!.!.!.!.!.!.!.!.!.!.!.!.!.!.!.R.I.p.",
"y.Z.Y.Y.R.R.R.!.R.R.R.R.R.!.!.!.T.!.!.Y.u.3.7.d.] m d k k k k g g k g i f h _ j.M.7.5.M.R.!.!.!.!.!.!.!.!.!.!.!.R.!.!.!.!.R.I.p.",
"9.u.n.n.n.n.M.M.M.M.M.M.M.n.n.n.n.n.n.n.7.#.#.#.Y P / x j k k k k k f p f m P 1.1.#.2.C.R.!.R.!.R.!.!.!.R.!.!.!.R.R.R.!.!.R.I.p.",
"y.q.7.7.7.7.7.7.7.7.7.7.7.7.7.7.7.7.7.7.3.#.#.#.#.#.U S n x j k k k k g x S Y #.#.K 1.C.R.!.R.!.!.!.!.R.R.R.!.!.!.!.R.!.!.W.I.p.",
"F.C.n.u.u.u.u.u.u.u.u.u.u.u.u.u.u.u.u.u.u.u.u.r.r.r.r.8.4.' M x l z l v _ 8.r.r.r.3.3.M.R.!.R.R.!.!.!.R.R.R.!.!.!.!.!.!.!.W.I.p.",
".X^.R.R.R.R.R.R.R.R.R.R.R.R.R.Y.Y.Y.Y.Y.R.R.R.R.R.R.R.R.R.Z.k...[ ` [ ..k.R.R.R.Y.r.7.n.R.!.R.R.R.!.!.!.!.R.!.!.!.!.!.!.!.W.I.p.",
".X X~.!.!.!.!.!.!.!.!.!.!.!.!.!.!.!.!.!.!.!.!.!.R.R.!.!.!.!.!.F.N.k.N.Z.R.!.!.!.R.r.7.n.R.!.R.R.R.R.!.!.!.!.!.!.!.!.!.!.!.R.I.p.",
".X X~.!.R.R.!.!.!.!.!.!.!.!.!.!.!.!.!.!.R.R.R.!.!.!.R.!.!.!.!.!.!.!.R.R.R.R.R.!.Y.r.7.M.R.!.R.R.R.R.!.!.!.R.R.!.!.!.!.!.!.R.I.p.",
".X X~.!.R.!.!.!.!.!.!.!.!.!.R.!.!.!.!.R.!.!.!.!.!.!.R.!.!.!.R.!.R.R.R.R.R.R.R.!.Y.r.7.M.R.!.!.!.!.!.!.R.R.R.R.R.!.R.!.!.!.R.I.p.",
".X X~.!.!.!.!.!.!.!.!.!.!.!.!.!.!.!.!.!.R.!.!.!.!.!.!.!.!.R.R.!.R.R.R.R.R.R.R.!.Y.r.7.M.R.R.!.!.!.R.!.R.R.R.R.!.R.R.R.!.!.R.I.p.",
".X X~.!.!.!.!.!.!.!.!.!.!.!.!.!.!.!.!.!.!.!.!.!.!.!.!.!.R.R.!.!.R.R.R.R.R.!.!.!.R.r.7.M.R.R.R.R.!.!.!.!.R.R.!.!.!.R.!.!.!.R.I.p.",
".X X~.!.!.!.!.!.!.!.!.!.R.!.!.!.!.!.!.!.!.!.!.!.!.!.!.R.!.!.!.!.!.R.R.R.R.R.!.!.R.r.7.M.R.R.R.R.!.!.!.!.!.!.!.!.!.!.!.!.!.!.Y.p.",
".X X~.!.R.R.R.!.!.!.R.R.R.R.R.R.!.!.!.!.!.!.R.R.!.!.R.R.R.!.!.!.!.R.R.R.R.!.!.!.R.r.7.M.R.!.R.R.!.!.!.!.!.!.!.!.!.!.!.!.!.!.Y.p.",
".X X~.!.R.R.R.!.!.!.!.R.R.R.R.R.R.R.R.!.!.!.R.R.R.R.R.R.R.!.!.!.R.R.R.R.R.!.!.!.Y.r.7.M.R.!.!.!.!.!.!.!.!.!.!.!.!.!.!.!.!.!.Y.p.",
"OX X~.!.!.!.!.!.!.!.!.R.R.R.R.!.R.R.!.!.!.R.R.R.R.R.R.R.R.R.!.!.R.R.R.R.R.!.!.!.Y.r.7.M.R.!.R.!.!.!.!.!.!.!.!.!.!.!.!.!.!.!.Y.p.",
"OX X~.R.R.!.!.!.R.!.!.!.R.R.!.!.!.!.!.!.!.R.R.R.R.R.R.R.R.R.R.R.R.R.R.R.!.!.!.!.Y.r.7.M.R.!.!.!.!.!.!.!.!.!.!.!.!.!.!.!.!.!.Y.p.",
"OX X~.R.R.R.!.!.R.R.!.!.!.!.!.!.!.!.!.!.!.!.R.R.R.R.R.R.!.!.!.R.R.R.R.R.!.!.!.!.Y.r.7.M.R.R.!.!.!.!.!.!.!.!.R.!.!.!.!.!.!.~.Y.p.",
"OX X~.R.R.R.!.R.R.R.R.R.!.!.!.!.!.!.R.R.!.R.R.R.R.!.!.!.!.!.!.R.R.R.R.!.!.!.!.!.Y.r.7.M.R.R.!.!.!.!.!.!.!.!.!.!.!.!.!.!.!.W.Y.p.",
"OX X~.R.R.R.!.R.R.R.R.R.!.R.!.!.!.!.!.!.!.R.R.R.R.!.R.!.!.R.R.!.R.R.!.R.!.!.!.!.Y.r.7.M.R.!.!.!.!.!.!.!.!.!.!.!.!.!.!.!.!.W.Y.p.",
"OX X~.R.R.R.!.R.!.!.!.!.R.R.R.!.!.!.!.!.!.R.R.R.!.R.R.R.R.!.!.!.!.R.!.!.!.!.!.!.R.r.7.M.R.!.!.R.!.!.!.!.!.!.!.!.!.!.!.!.!.!.Y.B.",
".X X~.R.R.R.!.R.!.!.!.!.R.R.R.!.!.!.!.R.R.!.!.!.R.R.R.R.!.!.!.!.!.!.!.!.!.!.!.!.R.r.7.M.R.!.!.R.!.R.R.!.!.!.!.!.!.!.!.!.!.!.Y.B.",
".X X!.R.R.R.!.R.!.!.!.R.R.R.!.!.!.!.!.!.!.!.!.!.!.R.R.!.!.!.!.!.!.!.!.!.!.!.!.!.Y.r.7.M.R.!.!.R.!.R.!.!.!.!.!.!.!.!.!.!.!.!.Y.p.",
".X X!.R.R.R.R.R.R.R.R.R.R.R.R.!.!.!.R.R.R.R.R.R.R.!.R.R.!.R.R.R.R.R.R.R.R.!.R.!.Y.r.5.M.Y.!.!.R.!.!.!.!.!.!.R.T.!.!.!.!.!.!.Y.p.",
"|.~.Y.Y.I.I.I.I.I.Y.Y.Y.I.I.I.Y.Y.Y.Y.Y.Y.I.I.I.Y.Y.I.I.I.I.I.I.I.I.I.I.I.I.I.Y.I.q.5.M.Y.!.!.Y.!.!.!.!.T.T.T.T.!.!.!.!.!.!.I.p.",
"Y.I.C.M.M.M.M.M.M.M.M.M.i.i.M.M.M.M.M.M.M.i.i.M.M.M.M.M.M.M.i.i.M.M.M.M.M.M.M.M.i.3.3.M.Y.!.!.R.Y.!.!.!.T.!.!.!.!.!.!.!.!.!.I.y."
};
