/* XPM */
static char *c54f7ad818914b1dd772b6c1bdc20bebvcRfrbiAUfqS36Hu[] = {
/* columns rows colors chars-per-pixel */
"64 64 69 1 ",
"  c #B13F1E",
". c #B5431C",
"X c #BA461C",
"o c #BE491A",
"O c #C74F17",
"+ c #C34D19",
"@ c #C75017",
"# c #CC5416",
"$ c #CF5817",
"% c #C75119",
"& c #CC5D1D",
"* c #D15616",
"= c #D55B15",
"- c #D95E13",
"; c #D45718",
": c #D35B1B",
"> c #D95E1F",
", c #CF601D",
"< c #DE6213",
"1 c #D4641B",
"2 c #DD631C",
"3 c #E4660F",
"4 c #E36611",
"5 c #E46B13",
"6 c #E56E19",
"7 c #E57312",
"8 c #E77B11",
"9 c #E77C11",
"0 c #E77D11",
"q c #E77B14",
"w c #E87F11",
"e c #E87E14",
"r c #E67218",
"t c #E6721A",
"y c #E7751A",
"u c #E7721C",
"i c #E7771D",
"p c #E8771B",
"a c #E8751C",
"s c #E77A19",
"d c #E97F1A",
"f c #E8781C",
"g c #E87B1E",
"h c #E87C1E",
"j c #C35121",
"k c #D75C20",
"l c #955244",
"z c #995E46",
"x c #9C6145",
"c c #9F6344",
"v c #A16544",
"b c #E78011",
"n c #E88112",
"m c #E88412",
"M c #E88215",
"N c #E98614",
"B c #EA8813",
"V c #EA8A16",
"C c #EB8C15",
"Z c #EC8F16",
"A c #EA8518",
"S c #EA801D",
"D c #EA831F",
"F c #EB861C",
"G c #EB871D",
"H c #EB8A1B",
"J c #EC8A1B",
"K c #EC8B1B",
"L c #EB8C19",
/* pixels */
"v134444444444444444444444444444444444444444444444444444444444455",
"v134444444444444444444444444444444444444444444444444444444444445",
"v134444444444444444444444444444444444444444444444444444444444446",
"v134444444444444444444444444444444444444444444444444444444444446",
"v134444444445566666544444444444444444444444445566665644444444446",
"v134444444556tiffhfit5444444444444444444444556uysfffy65444444446",
"v1344444466tt778eMAFDf6444444444444444444466t77qqqMAFDa644434446",
"v1344444<<6677780nNVLJDt5444444444444444<<66577780nNVJFf64444445",
"v13444-$:<5557780nmBVCLDt5444444444444<**<45557780nmBCLHf6443345",
"v134<*+%=44557770wnmBCZJh644444444444=#%$<44557780bmBVCLFy544445",
"v14-#oo#<445557780bmmBCCFy544444444<=+X+=<435577780nmBVCLd754446",
"v1-#o.+=44445577780nmmBCHf64444444<=%XX#<44455577800nmBVCAy54446",
"c,*+..%<444455577880nmmBHd6444444<-#o.X:<44445557780wnmmVAf64446",
"c&*+..#44444455777880bnmNdt644444<=#o.o=44444555777800nnmAf64446",
"c&#+.X#4444445557778800bndt544444<=%X.+-444444555777880bbMf64345",
"c&#o.X#444444455577778800q7544444<=%X.+-44444445557778800et64445",
"c&#+.X#444444445555777788qt644444<=%X.+=44444444555777788qt64445",
"c&*+.X#<44444444555577777t6444444<=#o.o*<4444444335557777t754444",
"c,*+X.+-44444444435555777764444444-#+.X#<44444444455555777654444",
"c1=%o.o*44444444443355557654444444<*+X.+-44444444445555576544444",
"v1-#+..+-4444444444445566644444444<=#o.o#<4444444444455566544444",
"v1<*%X.X#<4444444444445554444444444-#+X.+*<444444444444555444444",
"v14-#+X.o#<444444444445544444444444<=#o..+*<44444444444444444444",
"v14<=#+..o%=<4444444<<44444444444444-*+o..+#-44444444<<444444444",
"v134-*%oX.Xo%*---=*#*<44444444444444<-#+o..X+#=---=**=<444444444",
"v134<-*#+X...Xooooo#=<444444444444444<-#+oX..Xooooo+*<4444444444",
"v1344<-*#+oX......+*<44444444444444444<-*#+X......o#-44444444444",
"v13444<-=##+ooXXo@=<4444444444444444444<-*#%+oXXXo#-444444444444",
"v1344444<-=*##O#*-44444444444444444444444<-*###+#*<4444444444444",
"v134444444<-====<4444444444444444444444444<<-===-<44444444444444",
"v13444444444<<<4444444444444444444444444444444<<4444444444444444",
"v134444444444444444444444444444444444444444444444444444444444444",
"v134444444444444444444444444444444444444444444444444444444444444",
"v134444444444444444444444444444444444444444444444444444444444444",
"c134444444444444444444444444444444444444444444444444444444444444",
"c134444444444444444444444444444444444444444444444444444444444444",
"c134444444444465554444444444444444444444444444455554444444444444",
"c13444444445566uitt6544444444444444444444444556tiit6554444444444",
"c13444444456tytsdddhf654444444444444444444456tyysdddfy6544444444",
"c13444444666tt78wnNHFDi64444444444444444446667t880MNAFht54444444",
"c13444<<<45667780nmVCJFf644444444444444<<266557780nmVLHDt5444444",
"c1344-*#=<5557780nmmVZJFi544444444444<=#$245557780nmVCCHh7544444",
"c14<=#o%<44555778wnmVCZJD74444444444<*++:<445577880nmBCZHf644444",
"c1<=+XX$<445557780wnmVCZFp544444444-#+.+<4445557780bmmBCLDt54444",
"z1=%X.+-44445557780nnmBVJh64444444<*+..#<43445577880nmmVVAy54444",
"z&*+..%<444455577780nnmmVDt5444444=#o.o:<444455577880bnmVAf64444",
"z&#+..#44444355577880wnnmDt544444<=%X.+=44344355777880wnmMf64444",
"z&#o.X#44444435557778000bdt544444<=%X.+-4444443557778800bMq64444",
"z&#+.X#444444455557778800qt644444<=%X.+=44444445557777880qt64444",
"z&*+.X#444444445555777788tt644434<=#X.o=44444444555577778qt64444",
"z&*+X.%<4444444455557777ty6444444<=#o.o#<4444444455555777t754444",
"c,=+X.+=44444444445555577t54444444-#+.X%<44444444455555777654444",
"c1-#o.X#<4444444444555557644444444-*+X.+=44444444444355566544444",
"c1-*+X.+=4444444444435555544444444<=#o.X%-4444444444445555444444",
"c1<=#o.X%=4444444444444544444444444-*+X.o#<444444444444555444444",
"c14-*+X.X%=<44444444444444444444444<=#+X.o#-44444444444444444444",
"c14<=#+X.X+#=<4444<--<44444444444444-=%+X.X%*<<4444<-<<444444444",
"c134<=#+X..X+%######=<444444444444444-*%+X..o+#####%#-<444444444",
"x1344<=#+oX.......o#-4444444444444444<-*#+X.......X+*<4444444444",
"x13444<=*%+XX.. .X#-444444444444444444<-=#++X.....+#<44444444444",
"x134444<-=#%++oo+#-444444444444444444444<=*#+++o+%=<444444444444",
"c13444444<-=*###=<44444444444444444444444<-=**##*-<4444444444444",
"z14<<<<<<<<--==-<<<44444444444444444444444<<--=--<44444444444444",
"lj####*************;:>>>>>>>>>>>>>>>>>>>>>>>>>k>>>>>222222222222"
};
