/* XPM */
static char *e0949a2b82044ed18ddc5ee7ad78792fhHC9A6YWUh49RNAV[] = {
/* columns rows colors chars-per-pixel */
"64 64 112 2 ",
"   c #BE668F",
".  c #C16790",
"X  c #C16891",
"o  c #CA6B95",
"O  c #CE6D99",
"+  c #D56E9D",
"@  c #C17296",
"#  c #CD739B",
"$  c #C47E9E",
"%  c #CC7C9C",
"&  c #D2719D",
"*  c #D17E9F",
"=  c #DD72A2",
"-  c #D37CA1",
";  c #DE7AA4",
":  c #E575A7",
">  c #E37AA6",
",  c #E576A8",
"<  c #E57AA9",
"1  c #ED7AAC",
"2  c #F17BAF",
"3  c #AB8D9E",
"4  c #B7869F",
"5  c #BD829E",
"6  c #A7909D",
"7  c #A9909F",
"8  c #B5A391",
"9  c #BEAB9A",
"0  c #B4B393",
"q  c #BDBC9D",
"w  c #9FA9AA",
"e  c #A0A4A8",
"r  c #CD869B",
"t  c #CB8B9E",
"y  c #D1809F",
"u  c #D18A9F",
"i  c #C59E9D",
"p  c #CD8BA0",
"a  c #D680A3",
"s  c #DB83A5",
"d  c #D28EA4",
"f  c #D88AA6",
"g  c #C797A0",
"h  c #CE96A4",
"j  c #CA9CA3",
"k  c #D491A5",
"l  c #D892A6",
"z  c #D299A5",
"x  c #D39EA9",
"c  c #E283A9",
"v  c #C4A6A3",
"b  c #CDA7A6",
"n  c #C5AFA5",
"m  c #CAAAA5",
"M  c #D3A6AA",
"N  c #D4A8AB",
"B  c #C7B1A6",
"V  c #C8B2A7",
"C  c #C1BDA2",
"Z  c #C7B1A8",
"A  c #C9B3A8",
"S  c #C9BDA9",
"D  c #ADC88C",
"F  c #B0C78F",
"G  c #B0C88F",
"H  c #AFC792",
"J  c #AFC892",
"K  c #B0C593",
"L  c #B1C992",
"P  c #BCCE9E",
"I  c #BDD39E",
"U  c #BDD4A2",
"Y  c #C0D69F",
"T  c #C4C0A2",
"R  c #CAC5AD",
"E  c #CBCAAE",
"W  c #D0C8AF",
"Q  c #C2D6A4",
"!  c #C2D9A4",
"~  c #C9DDA7",
"^  c #C9D2AE",
"/  c #C7DEAA",
"(  c #C9DFAA",
")  c #CFC7B1",
"_  c #CECAB1",
"`  c #D1CAB2",
"'  c #CDD5B2",
"]  c #CEDDB5",
"[  c #D0DEB5",
"{  c #CBE0AE",
"}  c #CCE2AF",
"|  c #CBE3B0",
" . c #CDE2B3",
".. c #CBE4B0",
"X. c #CFE5B3",
"o. c #CFE3B7",
"O. c #CFE4B5",
"+. c #CFE4B7",
"@. c #CFE6B9",
"#. c #D0E5B3",
"$. c #D1E5B3",
"%. c #D0E1B6",
"&. c #D2E6B7",
"*. c #D2E8B6",
"=. c #D4E3B8",
"-. c #D3E5B8",
";. c #D1E7BA",
":. c #D5E4B9",
">. c #D5E9BB",
",. c #D6E9BC",
"<. c #DAEDBF",
"1. c #DCEEC2",
/* pixels */
"~ $.-.-.-.-.-.-.-.-.-.-.@.-.-.-.-.-.-.O.U D I  . ..... . . . .| { }  . . . . .} } } } }  .}  . . . . .} } { { { { { | { { { X.X.",
"/ $.-.-.-.-.-.-.-.-.-.-.-.-.-.-.-.-.-.O.U J Q :.-.&.&.&.&.&.&.O.&.&.&.&.&.&.-.&.&.&.&.&.&.&.&.&.&.&.&.&.&.&.&.&.O.O.&.&.&.&.&.>.",
"/ $.-.-.-.-.-.-.-.-.-.-.-.-.-.-.O.O.O. .U H Q =.%.%.%.%.O.O.O.o.o.%.%.%.%.%.%.%.%.%.%.%.%.%.%.%.%.%.%.-.-.-.-.-.-.-.-.-.-.-.-.,.",
"/ $.-.-.-.-.-.-.-.-.-.-.&.-.] ' R E E E q 0 q E E E E E E E E E E E E E E E E E E E E E E E E E E E E ^ o.-.-.&.&.-.-.-.-.-.-.,.",
"/ $.-.-.-.-.-.-.-.-.-.-.-.-.' v p d d d u r u d d d d d d k k k k k k k k k k k l l k k k d d d d d k v ' &.-.&.&.-.-.-.&.&.-.,.",
"/ X.&.-.-.-.-.-.-.-.-.-.-.-._ j > 1 1 1 1 1 1 1 1 1 1 1 1 1 1 1 1 1 1 1 1 1 1 1 1 1 1 1 1 1 1 1 1 1 > j ' -.-.&.&.-.-.-.-.-.-.,.",
"/ X.&.-.-.-.-.-.-.-.-.-.-.-.' m ; 1 2 2 2 2 2 2 2 2 2 2 2 2 2 2 2 2 2 2 2 2 2 2 2 2 2 2 2 2 2 2 2 1 s V ] -.-.-.&.&.&.-.-.-.:.,.",
"/ &.-.-.-.-.-.-.-.-.-.-.-.-.%.R j a = = = = = = = = = = : = = = = = = : = = = = = = = = : = = = = a j E %.-.&.-.&.&.&.&.-.-.-.>.",
"/ &.-.-.-.-.-.-.-.-.-.-.-.-.-.] E v % + + + + + + + + + + + + + + + + + + + + + + + + + + + + + # i E o.-.-.&.&.&.-.-.-.-.-.-.>.",
"/ &.-.-.-.-.-.-.-.-.-.-.-.-.-.-.%.R d = + + + + + + + + + + + + + + + + + + + + + + + + + + + & - n ] &.&.-.-.-.-.-.-.-.-.-.-.>.",
"/ &.-.-.-.-.-.-.-.-.-.-.&.-.-.-.-.` k & O + + + + + + + + + + + + + + + + + + + + + + + + + + O a V ] &.&.-.-.-.-.-.-.-.-.-.-.>.",
"( &.-.-.-.-.-.-.-.-.-.-.-.-.-.-.-.` k & + : : : : : : : : : : : : , : : : : : : : : : : : : = o * B ] -.-.-.-.-.-.-.-.-.-.-.-.>.",
"( &.-.-.&.&.-.-.-.&.-.-.-.-.-.-.-.` k & = 1 2 2 2 2 2 2 2 2 2 2 2 2 2 2 2 2 2 2 2 2 2 2 2 2 : O - Z ] -.&.-.-.-.-.&.-.-.-.-.-.>.",
"( &.-.-.-.-.&.-.-.&.&.-.-.-.-.-.-.` d & = 1 2 2 2 2 2 2 2 2 2 2 2 2 2 2 2 2 2 2 2 2 2 2 2 2 : O - V ] -.-.-.&.&.&.&.&.&.-.-.-.>.",
"( &.-.-.-.-.&.&.&.&.-.-.-.-.-.-.-.` d & = 1 2 2 2 2 2 2 2 2 2 2 2 2 2 2 2 2 2 2 2 2 2 2 2 2 : O * V ] -.-.-.&.-.&.&.-.-.-.-.:.>.",
"( &.-.-.-.-.-.&.-.-.-.-.-.-.-.-.-.` d & = 1 2 2 2 2 2 2 2 2 2 2 2 2 2 2 2 2 2 2 2 2 2 2 2 2 : O * V ] -.&.&.-.&.&.&.-.-.-.-.:.>.",
"( O.-.-.-.-.&.&.-.-.-.-.-.-.-.-.-.) d & = 1 2 2 2 2 2 2 2 2 2 2 2 2 2 2 2 2 2 2 2 2 2 2 2 2 : O * V ] -.&.&.-.&.&.&.&.-.-.&.:.>.",
"/ O.-.-.-.&.&.&.-.-.-.&.&.-.-.-.-.) d & = 1 2 2 2 2 2 2 2 2 2 2 2 2 2 2 2 2 2 2 2 2 2 2 2 2 : O * V ] -.-.-.-.-.-.-.-.-.-.&.:.>.",
"/ &.-.-.-.-.-.&.&.-.-.-.-.&.-.-.-.` d & = 1 2 2 2 2 2 2 2 2 2 2 2 2 2 2 2 2 2 2 2 2 2 2 2 2 : O * V ] -.-.-.-.-.:.-.-.:.:.:.>.>.",
"/ &.-.-.-.-.&.-.-.-.-.-.-.-.-.-.-.` d & = 1 2 2 2 2 2 2 2 2 2 2 2 2 2 2 2 2 2 2 2 2 2 2 2 2 : O * B ] O.&.&.$.%.%.%.&.%.&.&.&.*.",
"/ &.-.-.-.-.-.-.-.-.-.-.-.-.-.-.-.` d & = 1 2 2 2 2 2 2 2 2 2 2 2 2 2 2 2 2 2 2 2 2 2 2 2 2 : O % 9 I ! Q Q Y Q Q Q Q Q Q Q ! ! ",
"/ &.-.-.-.-.-.-.-.-.-.-.-.-.-.-.-.` d & = 1 2 2 2 2 2 2 2 2 2 2 2 2 2 2 2 2 2 2 2 2 2 2 2 2 : O % 8 K L G G G F G L L L L L L L ",
"/ &.-.-.-.-.-.-.-.-.-.-.-.-.-.-.@.) d & = 1 2 2 2 2 2 2 2 2 2 2 2 2 2 2 2 2 2 2 2 2 2 2 2 2 : O % 9 P I I U U U U U U U U U U I ",
"/ &.-.-.-.-.-.-.-.-.&.-.-.-.-.-.-.) d & = 1 2 2 2 2 2 2 2 2 2 2 2 2 2 2 2 2 2 2 2 2 2 2 2 2 : O * A [ =.:.:.:.-.-.-.-.-.-.:.>.*.",
"/ &.-.-.-.-.-.-.-.-.-.-.-.-.-.-.-.) d & = 1 2 2 2 2 2 2 2 2 2 2 2 2 2 2 2 2 2 2 2 2 2 2 2 2 : O * A [ -.-.-.-.&.&.-.-.-.-.-.>.*.",
"/ &.&.&.&.-.-.-.-.-.-.O.O.@.-.-.-.` d & = 1 2 2 2 2 2 2 2 2 2 2 2 2 2 2 2 2 2 2 2 2 2 2 2 2 : O * V [ -.-.-.-.&.O.@.-.-.-.-.-.*.",
"/ &.-.&.-.-.-.-.-.-.-.O.O.-.-.-.-.` d & = 1 2 2 2 2 2 2 2 2 2 2 2 2 2 2 2 2 2 2 2 2 2 2 2 2 : O y A [ -.-.-.-.-.-.@.-.-.-.-.-.*.",
"/ &.&.-.-.-.-.-.-.-.-.-.-.-.-.-.-.` d & = 1 2 2 2 2 2 2 2 2 2 2 2 2 2 2 2 2 2 2 2 2 2 2 2 2 : O * A ] -.-.-.-.-.&.-.-.-.-.-.-.&.",
"/ O.&.&.-.-.-.-.&.-.-.-.-.-.-.-.-.` d & = 1 2 2 2 2 2 2 2 2 2 2 2 2 2 2 2 2 2 2 2 2 2 2 2 2 : O * A ] -.-.-.-.-.-.&.-.-.-.-.-.&.",
"/ X.&.-.-.-.-.-.-.-.-.&.-.-.-.-.-.` d & = 1 2 2 2 2 2 2 2 2 2 2 2 2 2 2 2 2 2 2 2 2 2 2 2 2 : O * A ] -.-.-.-.-.-.&.-.-.-.-.-.*.",
"/ O.-.-.-.-.-.-.-.-.-.&.&.-.-.-.-.` d & = 1 2 2 2 2 2 2 2 2 2 2 2 2 2 2 2 2 2 2 2 2 2 2 2 2 : O * A ] -.-.-.-.-.-.-.&.-.-.-.-.*.",
"( O.-.-.-.-.@.-.-.-.-.&.&.-.-.-.-.` d & = 1 2 2 2 2 2 2 2 2 2 2 2 2 2 2 2 2 2 2 2 2 2 2 2 1 : O * V [ -.-.-.-.&.&.-.&.-.-.-.-.*.",
"/ O.-.-.-.@.@.@.-.&.-.-.-.-.-.-.-.` p & = 1 2 2 2 2 2 2 2 2 2 2 2 2 2 2 2 2 2 2 2 2 2 2 2 2 : O * V ] -.-.-.-.-.&.-.-.-.-.&.-.*.",
"/ O.&.-.-.-.@.-.-.-.-.-.-.-.-.-.-.` d & = 1 2 2 2 2 2 2 2 2 2 2 2 2 2 2 2 2 2 2 2 2 2 2 2 2 : O * V [ -.-.-.-.-.-.-.-.-.-.&.-.&.",
"/ X.&.-.-.-.@.@.-.-.-.-.-.-.-.-.-.` d & = 1 2 2 2 2 2 2 2 2 2 2 2 2 2 2 2 2 2 2 2 2 2 2 2 2 : O * V [ -.-.-.-.-.-.-.-.-.-.-.-.&.",
"/ X.-.-.-.-.@.-.-.-.-.-.-.-.-.-.&.` d & = 2 2 2 2 2 2 2 2 2 2 2 2 2 2 2 2 2 2 2 2 2 2 2 2 2 : O * V ] -.-.-.-.-.-.-.-.-.-.-.:.-.",
"/ &.-.-.-.-.@.-.-.-.&.-.-.-.-.-.-.` k & = < > 1 1 2 2 2 2 2 2 2 2 2 2 2 2 2 2 2 2 2 2 2 2 2 : O * V ] -.-.-.-.&.-.-.&.-.-.-.:.&.",
"/ &.-.-.-.-.-.-.-.-.-.&.&.-.-.-.-.` k & # $ 4 $ > 1 2 2 2 2 2 2 2 2 2 2 2 2 2 2 2 2 2 2 2 2 : O * A ] -.-.-.-.-.-.-.-.-.-.-.-.&.",
"( &.-.-.-.-.-.-.-.-.-.&.&.-.-.-.-.` k & @ 6 w 7 - 1 2 2 2 2 2 2 2 2 2 2 2 2 2 2 2 2 2 2 2 2 : O * V ] -.-.-.-.-.-.-.-.-.-.-.-.&.",
"( &.-.-.-.-.-.-.-.-.-.-.&.-.-.-.-.` k & @ 3 e 3 - 1 2 2 2 2 2 2 2 2 2 2 2 2 2 2 2 2 2 2 2 2 : O * V ] -.-.-.-.-.-.-.-.-.-.-.-.&.",
"{ &.-.-.-.-.-.:.-.-.:.-.-.-.-.-.-.` k & & % 5 % < 1 2 2 2 2 2 2 2 2 2 2 2 2 2 2 2 2 2 2 2 2 : O * V ] -.-.-.-.-.-.-.-.-.-.-.-.&.",
"/ O.&.&.&.-.-.-.&.&.&.&.-.-.-.-.@.) k & = 1 < 1 1 2 2 2 2 2 2 2 2 2 2 2 2 2 2 2 2 2 2 2 2 2 : O * V [ -.-.-.-.-.-.-.-.-.-.-.-.=.",
"I U U U U U U U U U U U U U U U U C t & = 1 2 2 2 2 2 2 2 2 2 2 2 2 2 2 2 2 2 2 2 2 2 2 2 2 : O * V ] -.-.-.-.-.-.-.-.-.-.-.-.*.",
"L L K H K K H H J J H H K H H L J 0 r & = 1 2 2 2 2 2 2 2 2 2 2 2 2 2 2 2 2 2 2 2 2 2 2 2 2 : O * V [ -.-.&.-.-.-.-.-.-.-.-.-.*.",
"{ / ! Q Q Q Q Q Q ! Q Q Q Q Q ! ! T t & = 2 2 2 2 2 2 2 2 2 2 2 2 2 2 2 2 2 2 2 2 2 2 2 2 2 : O * V [ -.-.-.-.-.-.-.-.-.-.-.-.*.",
"<.>.-.-.-.&.=.%.:.:.&.=.:.:.&.&.&.W d & = 2 2 2 2 2 2 2 2 2 2 2 2 2 2 2 2 2 2 2 2 2 2 2 2 2 : O * V ] -.-.-.-.-.-.-.-.-.-.-.-.*.",
"1.,.-.-.-.-.-.-.:.:.:.:.:.:.-.-.-.` d & = 2 2 2 2 2 2 2 2 2 2 2 2 2 2 2 2 2 2 2 2 2 2 2 2 2 : O * V [ -.-.-.-.-.-.-.-.-.-.-.-.*.",
"1.>.-.-.-.-.-.-.-.-.-.-.-.-.-.-.-.` d & = 2 2 2 2 2 2 2 2 2 2 2 2 2 2 2 2 2 2 2 2 2 2 2 2 2 : O * V [ -.-.-.-.-.-.-.-.-.-.-.:.*.",
"1.>.-.&.-.-.-.-.-.-.-.-.-.-.-.-.-.` d & = 2 2 1 2 2 2 2 2 2 2 2 2 2 2 2 2 2 2 2 2 2 2 2 2 2 : O * V [ -.-.-.-.-.-.-.-.-.-.-.:.*.",
"1.,.-.&.-.-.-.-.-.-.-.-.-.-.-.-.-.` k & = 2 2 1 1 2 2 2 2 2 2 2 2 2 2 2 2 2 2 2 2 2 2 2 2 2 : O * V [ -.-.-.&.-.-.-.-.-.-.-.:.&.",
"1.,.-.-.-.-.-.-.-.-.-.-.-.-.-.-.-.` k & = 2 2 1 2 2 2 2 2 2 2 2 2 2 2 2 2 2 2 2 2 2 2 2 2 2 : O * V [ -.-.&.-.-.-.-.-.-.-.-.:.*.",
"1.,.-.-.-.-.-.-.-.-.-.-.-.-.-.-.-.` k & = 2 2 2 2 2 2 2 2 2 2 2 2 2 2 2 2 2 2 2 2 2 2 2 2 2 : O * V [ -.-.-.-.-.-.-.-.-.-.-.-.*.",
"1.,.-.-.-.-.-.-.-.-.-.-.-.-.&.-.-.` k & = 2 2 2 2 2 2 2 2 2 2 2 2 2 2 2 2 2 2 2 2 2 2 2 2 2 : O * V [ -.-.-.-.-.-.-.-.-.-.-.:.=.",
"1.,.-.-.-.-.-.-.-.-.-.-.&.&.&.-.&.` k & = 2 2 2 2 2 2 2 2 2 2 2 2 2 2 2 2 2 2 2 2 2 2 2 2 2 : O * V [ -.-.-.-.-.-.-.-.-.-.-.:.>.",
"1.,.-.-.-.-.-.-.-.-.-.&.&.&.-.-.-.` k & = 2 2 2 2 2 2 2 2 2 2 2 2 2 2 2 2 2 2 2 2 2 2 2 2 2 : O * V [ -.-.-.-.-.-.-.:.-.-.-.>.>.",
"1.,.-.-.-.-.-.-.-.-.-.-.&.&.-.-.-.` k & = 2 2 2 2 2 2 2 2 2 2 2 2 2 2 2 2 2 2 2 2 2 2 2 2 2 : O * V [ -.-.-.-.-.-.-.-.-.-.-.:.*.",
"1.,.-.-.-.-.-.-.-.-.-.-.-.-.-.-.-.` k & = 1 1 1 1 1 1 1 1 1 1 1 1 1 1 2 2 1 1 1 1 1 2 1 1 1 : O * V ] -.-.-.-.-.-.-.-.-.-.-.-.*.",
"1.>.&.&.-.-.-.-.&.&.-.-.-.-.-.-.-.` k # O = = = = = = = = = = = = = = = = = = = = = = = = = + o * A [ -.-.-.-.-.-.-.-.-.-.-.-.*.",
"1.>.&.&.-.-.-.&.&.&.-.-.-.-.-.-.-.R t o   . X X X X X X X X X X X X X X X X X X X . X X X X . . % n ] -.-.-.-.-.-.-.-.-.-.-.-.*.",
"1.,.-.&.-.-.-.-.-.-.-.-.&.&.-.-.' m % O o o o o o o o o o o o o o o o o o o o o o o o o o o o O # g E %.-.-.-.-.-.-.-.-.-.-.-.*.",
"1.,.-.&.-.-.-.-.-.-.-.-.&.&.-.] A f < : > ; ; ; ; ; ; ; ; ; ; ; ; ; ; ; ; ; ; ; ; ; ; ; ; ; ; : , s b ' -.-.-.-.-.-.-.-.-.-.:.*.",
"1.,.-.&.&.-.&.-.-.-.-.-.-.&.-.' x < 1 c z N N N N N N M M M M M M M M M M N N N N M i i b N x c 1 1 k E %.-.-.-.-.-.-.-.-.-.:.>.",
"1.,.-.-.-.&.&.&.&.-.-.&.&.&.-.E h < < d S ' ' ' ' ' ' ' ' ' ' ' ' ' ' ' ' ' ' ' [ ^ K K Q ' R h < < d R o.-.-.-.-.-.-.-.-.:.:.*.",
"<.-.&.%.%.&.&.&.O.O.O.O.X.X.O.^ m z z m ^ o.O.O.&.&.%.%.%.%.o.O.O.o.%.%.%.%.%.%.&.( L L / -.' B z z b ' o.-.-.-.-.-.-.-.-.-.-.*."
};
