/* XPM */
static char *_d8a3c854d104f78df580856e316f49ePHV9JkMlmCbeLq8C[] = {
/* columns rows colors chars-per-pixel */
"64 64 211 2 ",
"   c #170F09",
".  c #1B130B",
"X  c #1E1810",
"o  c #231B13",
"O  c #2C1F11",
"+  c #36220C",
"@  c #2C2318",
"#  c #352718",
"$  c #362C23",
"%  c #362F24",
"&  c #750D01",
"*  c #66180A",
"=  c #731509",
"-  c #7A180B",
";  c #442F1B",
":  c #74260B",
">  c #783105",
",  c #453424",
"<  c #533C25",
"1  c #453D35",
"2  c #5F441D",
"3  c #754F0E",
"4  c #665309",
"5  c #7D4C18",
"6  c #745A15",
"7  c #6C6814",
"8  c #7D7514",
"9  c #5B4529",
"0  c #4C4C3A",
"q  c #554836",
"w  c #50503D",
"e  c #684A2D",
"r  c #785326",
"t  c #654E36",
"y  c #6C5238",
"u  c #76583A",
"i  c #72672C",
"p  c #757A34",
"a  c #535441",
"s  c #765D42",
"d  c #5B6345",
"f  c #61644F",
"g  c #70704F",
"h  c #696957",
"j  c #757C62",
"k  c #850D02",
"l  c #990D02",
"z  c #871408",
"x  c #9B1608",
"c  c #A80F04",
"v  c #B60D03",
"b  c #A61506",
"n  c #B51306",
"m  c #A91F11",
"M  c #8D2702",
"N  c #992A08",
"B  c #973104",
"V  c #9B3705",
"C  c #AA2608",
"Z  c #A13103",
"A  c #C00F04",
"S  c #CC0E04",
"D  c #D20E04",
"F  c #DC0F05",
"G  c #CD1105",
"H  c #DB1006",
"J  c #E50F06",
"K  c #E51106",
"L  c #EB1106",
"P  c #F01107",
"I  c #954816",
"U  c #8D731B",
"Y  c #875827",
"T  c #8E5E2E",
"R  c #89632A",
"E  c #96652C",
"W  c #846E32",
"Q  c #996B34",
"!  c #93763E",
"~  c #A76526",
"^  c #B87D24",
"/  c #A86A35",
"(  c #A8753A",
")  c #C17021",
"_  c #876A4B",
"`  c #897B44",
"'  c #837956",
"]  c #827B5A",
"[  c #927453",
"{  c #9A7A58",
"}  c #AB6D47",
"|  c #B37B44",
" . c #A27E58",
".. c #947E62",
"X. c #C25E41",
"o. c #7C8B5D",
"O. c #9F921E",
"+. c #A1931F",
"@. c #AA9C23",
"#. c #B2992A",
"$. c #C88A29",
"%. c #CB952D",
"&. c #CEB033",
"*. c #DAB83B",
"=. c #DDC938",
"-. c #E4C93B",
";. c #95824E",
":. c #898C58",
">. c #958B58",
",. c #98935F",
"<. c #B78248",
"1. c #B78349",
"2. c #AC8356",
"3. c #A4835E",
"4. c #B68A5D",
"5. c #A4915E",
"6. c #8B906F",
"7. c #999A67",
"8. c #AB8761",
"9. c #B58D62",
"0. c #A89868",
"q. c #BE9367",
"w. c #BD956B",
"e. c #92A76E",
"r. c #9DA672",
"t. c #9BB67B",
"y. c #9CB47C",
"u. c #A5AB76",
"i. c #A2B57D",
"p. c #C08C55",
"a. c #C7945D",
"s. c #CB9966",
"d. c #C5956A",
"f. c #D59668",
"g. c #D5A26B",
"h. c #D6A775",
"j. c #DAAC7B",
"k. c #E3AC7A",
"l. c #E3B17C",
"z. c #F3DB41",
"x. c #3F6FE3",
"c. c #3F70E3",
"v. c #4568D7",
"b. c #4879D7",
"n. c #4071E3",
"m. c #3BA2EF",
"M. c #3FADF2",
"N. c #5082DF",
"B. c #5484E3",
"V. c #4EB9F4",
"C. c #50B5F4",
"Z. c #928E8A",
"A. c #A8AD85",
"S. c #A9B586",
"D. c #A2BC82",
"F. c #B1BF8E",
"G. c #96ABAC",
"H. c #97ACB2",
"J. c #9BB1B4",
"K. c #A1AFA9",
"L. c #D8AE81",
"P. c #EBBA85",
"I. c #ECBA86",
"U. c #F0BF8B",
"Y. c #ACC58D",
"T. c #AECA8F",
"R. c #B3C48D",
"E. c #AFC790",
"W. c #AFC891",
"Q. c #B3CB94",
"!. c #B3C699",
"~. c #B5CD99",
"^. c #B8CE9C",
"/. c #B6D099",
"(. c #BCD39D",
"). c #BBCAA5",
"_. c #BED4A5",
"`. c #BFD9A2",
"'. c #BFD4A9",
"]. c #BCC7B0",
"[. c #B1C6BE",
"{. c #F2C18D",
"}. c #F4C490",
"|. c #C2D6A5",
" X c #C2D9A4",
".X c #C1D5A9",
"XX c #C6DDAB",
"oX c #C9DEAC",
"OX c #C4D7B4",
"+X c #CBDDB3",
"@X c #C7E0A9",
"#X c #CBE1AE",
"$X c #CEE3B2",
"%X c #CFE5B8",
"&X c #D2E5B7",
"*X c #D4E9B7",
"=X c #D2E5B8",
"-X c #D2E6B8",
";X c #D4E7B9",
":X c #D4E6BA",
">X c #D3E8BA",
",X c #D5E8BA",
"<X c #D9EBBE",
"1X c #D9ECBE",
"2X c #AFC4C2",
"3X c #B2C8C1",
"4X c #B7CFE6",
"5X c #CBD2DD",
"6X c #DAEDC1",
"7X c #DCEBC7",
"8X c #D7E8EC",
/* pixels */
"#X&X-X-X-X-X-X-X-X-X-X-X-X-X-X-X-X-X&XoXQ.Q.oX&X$X$X$X$X$X$X$X$X$X$X$X$X$X$X$X$X#X#X$X$X$X$X$X$X$X$X$X$X$X#X$X$X$X$X$X$X$X$X*X6X",
"#X&X-X-X-X-X-X-X-X-X-X-X-X-X-X-X-X-X-XoXQ.~.&X;X-X-X-X-X-X&X&X&X&X&X&X-X-X-X-X&X&X&X&X-X-X&X&X-X-X&X-X&X&X&X&X-X-X-X-X-X-X;X<X7X",
"#X&X-X-X-X-X-X-X-X-X-X-X-X-X-X-X-X-X-XoXQ.^.&X;X-X-X-X-X-X-X-X-X-X-X-X-X-X-X-X-X-X-X-X-X-X-X-X-X-X-X-X-X-X-X&X-X-X-X-X-X-X;X6X7X",
"#X&X;X-X-X-X-X-X-X-X-X-X-X-X-X-X-X-X-XoXQ.^.&X;X&X-X-X%X%X&X&X-X-X&X&X-X-X-X-X&X&X-X&X&X-X-X-X-X-X-X-X-X-X-X&X&X-X-X-X-X-X;X<X7X",
"#X&X-X-X-X-X-X-X-X-X-X-X-X-X-X-X-X-X-XoXQ.^.$X;X&X-X&X&X&X%X%X%X-X-X-X-X-X-X-X-X-X-X-X-X-X-X-X-X-X-X-X-X-X&X&X&X-X-X-X&X-X;X<X7X",
"#X&X&X-X-X-X-X-X-X-X-X-X-X-X-X-X-X-X-XoXQ.^.$X;X-X-X&X&X&X&X&X&X-X-X-X-X-X-X-X-X-X-X-X-X-X-X-X-X-X-X-X-X-X-X&X&X-X-X-X-X-X,X<X7X",
"#X&X-X-X-X-X-X-X-X-X-X-X-X-X-X-X-X-X-XoXQ.^.$X>X-X-X&X&X&X&X&X&X&X&X-X-X-X-X-X-X-X-X-X-X-X-X-X-X-X-X-X-X-X&X-X&X&X&X-X-X-X,X<X7X",
"#X&X-X-X-X-X-X-X-X-X-X-X-X-X-X-X-X-X-XoXQ.^.$X-X-X-X-X&X&X&X&X&X&X&X-X-X-X-X-X-X-X-X-X-X-X&X-X-X-X-X-X-X-X-X&X&X&X-X-X-X-X;X<X7X",
"#X&X-X-X-X-X-X-X-X-X-X-X-X-X-X-X-X-X-XoX~.^.$X;X-X-X-X-X-X&X&X&X&X&X&X-X-X-X%X-X-X-X&X&X&X&X-X-X&X&X&X-X-X-X-X-X-X-X-X-X&X;X1X7X",
"#X&X-X-X-X-X-X-X-X-X-X-X-X-X-X-X-X-X-XoX~.^.&X;X-X-X-X-X-X&X&X&X-X-X-X-X-X-X-X-X-X-X-X-X-X-X-X-X&X&X&X&X-X-X-X-X-X-X-X-X-X;X1X7X",
"#X&X&X-X-X-X-X-X-X-X-X-X-X-X-X-X-X-X-XoXQ.^.&X,X-X-X-X-X-X-X&X-X-X-X-X-X-X-X-X-X-X-X-X-X-X-X-X-X-X&X&X-X-X-X-X-X-X-X-X-X-X;X1X7X",
"#X&X-X-X&X-X-X-X-X-X-X-X-X-X-X-X-X-X>XoXQ.^.$X,X-X-X-X-X-X-X-X-X-X&X&X&X-X-X-X-X-X-X-X-X-X&X&X&X&X-X-X&X-X-X-X-X-X-X-X-X-X;X1X7X",
"#X&X-X-X-X&X-X-X-X&X-X-X-X-X-X-X-X-X>X+XQ.^.$X,X-X-X-X-X&X&X-X&X&X&X&X&X-X-X-X-X-X-X-X-X-X&X&X&X-X-X-X-X-X-X-X-X&X&X-X-X-X;X1X7X",
"#X&X-X-X-X-X&X-X-X&X-X-X-X-X-X-X-X-X>X+X~.^.$X;X-X-X-X-X&X-X;X-X&X&X&X-X-X-X-X-X-X-X-X-X-X&X&X-X-X-X-X-X-X&X&X&X&X-X-X-X-X;X<X7X",
"#X&X-X-X-X-X&X&X-X-X-X-X-X-X-X-X-X-X>XoX~.^.&X,X-X-X$X&X$X+X+X+X+X+X+X+X-X-X-X-X-X-X-X-X-X&X-X-X-X-X-X-X-X-X&X&X&X-X-X-X-X,X1X7X",
"#X&X-X-X-X-X&X-X-X-X-X-X-X-X-X-X-X-X-XoXQ.^.&X,X-X).j A.j w w w w w w h ).&X&X-X-X-X-X-X&X&X-X-X-X-X-X&X-X-X&X&X&X-X-X-X-X,X1X7X",
"#X&X-X-X-X&X&X&X-X-X-X&X-X-X-X-X-X-X-XoXQ.~.$X>X).f @ 0 @ . . . . .   @ a h !.;X-X-X-X-X&X&X&X-X-X-X-X-X&X&X-X&X&X-X-X-X&X,X1X7X",
"#X&X-X-X-X&X&X&X-X-X-X&X&X-X-X-X-X-X>XoXQ.~.%X).f # y # . t [ q . , y o   o f !.,X-X-X-X-X-X-X-X-X-X-X-X-X-X-X-X-X-X-X;X;X,X1X7X",
"#X&X-X-X-X-X-X-X-X-X-X-X-X-X-X-X-X-X-XoXQ./.%XA.% _ j.{ ,  .{._ , 8.h.s O + O f !.-X-X-X&X&X&X&X&X&X&X-X&X&X-X-X-X-X-X;X-X*X1X7X",
"#X&X-X-X-X-X-X-X-X-X-X-X-X-X-X-X-X-X>X#XQ.Q.XXA.9 _ { [ y 9.U. .y { { [ u Y + o 6.#XoXoXoXoXoXoXoXoXoXoXoXoXoXoXoXoXoXoXoX#X&X;X",
"#X&X-X-X-X-X-X-X-X-X-X-X-X-X-X-X-X-X-X#XT.D.Y.7.2 e t t r d.U.4.e t q t 3.4., X d y.Q.Q.Q.Q.Q.Q.~.~.~.Q.Q.Q.Q.~.~.~.~.~.~.~.(..X",
"#X&X-X-X-X-X-X-X-X-X-X-X-X-X-X-X-X-X-X$XW.t.t.o.9 9.w.8.u 9.U. .u 9.9.} s w.9 . o g D.E.Q.~.~.~.~.~.~.~.~.Q.~.~.~.~.~.~.~.~./.^.",
"#X&X-X-X-X-X-X-X-X-X-X-X-X-X-X-X%X%X-XoXQ.i.u.>.5 Y q % u h.{.s._ 1 ; Q j.l.E + . d y. X#X$X$X$X$X#X$X$X$X$X$X$X$X$X$X$X$X$X#X_.",
"#X&X-X-X-X-X-X-X-X-X&X-X-X-X-X-X-X-X-XoXY.>.R E Y q Z.1 @ 3.U.[ h 6.o < j.I.a.< O # j XX*X-X-X,X;X;X;X,X;X;X&X&X-X;X;X;X,X,X&X.X",
"#X&X-X-X-X-X-X-X-X-X-X&X-X-X-X-X-X-X-X|.>.Q a.k.q., $ o @ 3.U.[ # $ . 9 j.{.l.E Y 5 ` (.&X&X&X&X&X&X-X-X-X-X&X%X-X-X&X-X-X>X$X'.",
"#X&X-X-X-X-X-X-X-X-X-X&X-X-X-X-X-X-X%X7.Q a.I.{.j.T # @ W h.{.s.y o , 2.P.{.I.s.f.1.Y ,.$X&X&X&X&X-X-X-X-X-X-X%X-X-X-X-X-X>X$X'.",
"#X&X-X-X-X-X-X-X-X-X-X-X-X-X-X-X-X-X$X>.( P.{.{.I.h.w.w.j.I.{.I.h.w.d.P.U.{.{.P.I.l.( ;.$X;X-X-X&X&X-X-X-X-X-X-X-X-X-X-X-X-X$X'.",
"#X&X&X-X-X-X-X-X-X-X-X-X-X-X-X-X-X-X$X>.| I.{.{.{.{.{.{.{.{.{.{.{.{.{.{.{.{.{.{.{.U.p.>.$X;X-X-X&X&X-X-X-X-X-X-X&X-X-X-X-X-X$X_.",
"#X%X&X&X-X-X-X&X-X-X-X-X-X-X-X-X-X-X$X>./ l.{.k.} } l.{.U.{.{.{.{.{.{.{.{.{.{.{.{.{.g.0.$X-X-X-X-X-X-X-X-X-X-X-X&X-X-X-X&X>X$X.X",
"#X%X-X-X-X&X-X-X-X-X-X&X-X-X-X-X-X-X&XS.` 1.l.f.x n X.k.{.{.{.{.{.I.g.a.1.1.1.g.P.h.| 0.$X-X&X-X-X-X-X-X-X-X-X-X&X-X-X-X-X>X%X.X",
"#X&X-X-X-X-X-X-X-X-X-X&X&X-X-X-X-X-X-XoXr.! ( / b D m f.}.{.P.g.a.1./ I B M > E 1./ R u.&X-X-X-X-X-X-X-X-X-X&X&X-X&X-X-X-X>X$X'.",
"#X&X-X-X-X-X-X-X&X-X-X-X-X-X-X-X-X-X-XoX~.r.R : l v N | a.a.1.Q I B Z C G S l M > r 7. X&X-X-X-X-X-X-X-X-X-X&X&X&X-X-X-X&X>X$X'.",
"#X&X-X-X-X%X%X%X-X-X-X-X-X-X-X-X-X-X-XoXQ.(.r.* l b N V V V V V C D L K F L L S - ' Q.XX&X;X-X-X-X-X-X-X-X-X-X-X-X-X-X-X&X-X$X'.",
"#X&X&X-X-X-X%X-X-X-X-X-X-X-X-X-X-X-X-XoXQ.F...z F H K L L L L L L L P F v S L J z ' Q.XX&X;X-X-X-X-X-X-X-X-X-X-X-X-X-X-X-X-X$X'.",
"#X&X&X-X-X-X-X-X-X-X-X-X-X-X-X-X-X-X-XoXQ.:.- v S v F P P P P P P P P L D k A J z ' Q.XX&X-X&X&X-X-X-X-X-X-X-X-X-X-X-X-X-X;X&X.X",
"#X&X-X-X-X-X-X-X-X-X-X-X-X-X-X-X-X-X-XoX~.] z v k v J P P P P P P P P P H l & v z ' Q.XX&X-X&X&X-X-X-X-X-X-X-X-X-X-X-X-X-X;X&X.X",
"#X&X-X-X-X-X-X-X-X-X-X&X-X-X-X-X-X-X-XoX~.] * * & v J L L L L P L L L L L S & * * ' E.XX&X-X-X-X-X-X-X-X-X-X-X-X-X-X-X-X-X;X$X_.",
"#X&X-X-X-X-X-X-X-X-X-X&X-X-X-X-X-X-X>XXXQ.:.T } - S J v b v F L G b b c S D - } d.} ,.XX-X-X-X-X-X-X-X-X-X-X-X-X-X-X-X-X-X;X$X_.",
"#X&X-X-X-X-X-X-X-X-X-X-X-X-X-X-X-X-X-XoXQ.:.( 4.: l m ) ~ N c c C ~ ^ I x l = d.U.( ;.XX-X-X-X-X-X-X-X-X-X-X-X-X-X-X-X-X-X-X$X_.",
"$X-X-X-X-X-X-X;X;X;X;X-X-X-X-X-X-X-X>XoXQ.S.5.E 3 ^ %.-.*.%.$.$.%.*.-.&.$.^ 3 E ( ;.u.XX-X-X-X-X-X-X-X-X-X-X-X-X-X-X-X-X-X;X&X_.",
"#X%X&X&X&X-X-X-X&X&X&X-X&X-X-X-X-X-X-XoXQ.W.S.` 8 =.z.z.z.*.#.&.z.z.z.z.z.-.8 W >.r.Q.XX-X-X-X-X-X-X-X-X-X-X-X-X-X-X&X-X-X;X&X_.",
"(._._._._._._._._._._._._._._._._._.|.(.D.t.D.6.7 O.@.@.@.U 4 8 @.@.@.@.@.+.7 :.D.t.Y.oX-X-X-X-X-X-X-X-X-X-X-X-X-X-X-X-X-X,X&X_.",
"Q.Q.Q.E.Q.Q.W.W.Q.Q.Q.Q.W.W.Q.Q.Q.Q.Q.E.Y.D.D.e.p 4 6 W 6 i p p p i 6 W 6 4 p e.t.t.T.oX-X-X-X-X-X-X-X-X&X-X-X-X-X-X-X-X-X>X$X_.",
"oX X|.|.|.|.|.|.|.|.|.|.|.|.|. X|.|.|.|. X X X XR.! E s.Q 7.|.|. X7.Q s.E ! F.XX(.Y.W.XX-X-X&X-X-X-X-X-X-X&X-X-X-X-X-X-X-X>X$X_.",
"1X;X-X-X-X&X&X&X;X;X&X-X-X-X&X&X&X&X&X&X-X;X;X+X[.K.3.L.4.A.;X;X;XA.4.L.3.K.[.+X&X~.Q.XX-X-X&X&X-X-X-X-X-X-X-X-X-X-X-X-X-X>X$X_.",
"1X,X-X-X-X-X-X-X;X;X;X;X-X-X-X-X-X-X-X-X-X;X+XJ.b.B.4X8X5X].&X;X-X].5X8X4XB.b.H.OX~.Q.XX&X-X&X&X-X-X-X-X-X-X-X-X-X-X-X-X-X>X$X_.",
"1X>X-X-X-X-X-X-X-X-X-X-X-X-X-X-X-X-X-X-X-X-XJ.b.m.M.V.C.N.H.&X-X&XH.N.C.V.M.m.b.G.~.Q.XX-X-X-X-X-X-X-X-X-X-X-X-X-X-X-X-X-X*X$X_.",
"6X>X-X&X-X-X-X-X-X-X-X-X-X-X-X-X-X-X-X-X-X-XJ.v.x.n.c.x.v.H.&X-X&XH.v.x.c.n.x.v.G.~.Q.XX&X-X-X-X-X-X-X-X-X&X-X-X-X-X-X-X-X,X$X_.",
"6X>X-X-X-X-X-X-X-X-X-X-X-X-X-X-X-X-X-X-X-X-XOX[.2X2X2X2X[.OX-X-X&XOX[.2X2X2X2X3X.X~.Q.oX-X-X-X-X-X-X-X-X-X&X-X-X-X&X-X-X-X,X$X_.",
"6X>X-X-X-X-X-X-X-X-X-X-X-X-X-X-X-X-X-X-X-X-X-X;X-X-X;X-X-X-X-X-X&X&X-X-X;X;X;X,X$X^.Q. X&X-X-X&X-X-X-X-X&X-X-X-X-X-X-X-X-X,X&X_.",
"6X>X-X-X-X-X-X-X-X-X-X-X-X-X-X-X-X-X-X-X-X-X-X-X-X-X-X-X-X-X-X-X-X&X&X&X-X-X-X,X$X^.Q. X&X-X&X-X-X-X-X-X-X-X-X-X-X-X-X-X-X,X&X'.",
"6X>X-X-X-X-X-X-X-X-X-X-X-X&X&X-X-X-X-X-X-X-X-X-X-X-X-X&X-X-X-X-X-X&X&X&X-X-X-X,X$X~.Q. X&X-X-X-X-X-X-X-X-X-X-X-X-X-X-X-X-X;X&X'.",
"6X>X-X-X-X-X-X-X-X-X-X&X&X&X-X-X-X-X-X-X-X-X&X&X&X-X&X&X&X-X-X-X-X&X-X-X-X-X-X;X$X~.Q.XX&X-X-X-X-X-X-X-X-X-X-X-X-X-X-X-X-X,X&X'.",
"6X>X-X-X-X-X-X-X-X-X-X&X&X&X-X-X-X-X-X-X-X&X&X&X&X&X&X&X&X-X-X-X-X&X-X-X-X-X-X;X$X~.Q.XX&X-X-X-X-X-X-X-X-X-X-X-X-X-X-X-X>X,X&X.X",
"6X>X-X-X-X-X-X-X-X-X-X-X-X-X-X-X-X-X-X-X-X&X&X&X&X&X&X-X-X-X-X-X-X&X-X&X-X-X-X;X$X~.Q.XX&X-X-X-X-X-X-X-X-X-X-X-X-X-X-X-X-X,X$X.X",
"6X,X-X-X-X-X-X-X-X-X-X-X-X-X-X-X-X-X-X-X-X&X-X-X-X-X-X-X-X-X-X-X&X&X-X&X-X-X-X,X$X~.Q.XX&X-X-X-X-X-X-X-X-X-X-X-X-X-X-X-X-X>X$X.X",
"6X>X&X&X-X-X-X&X&X&X-X-X-X-X-X-X-X-X-X-X-X&X&X&X-X-X-X-X-X-X-X-X&X&X&X&X-X-X-X;X$X~.Q.XX&X-X-X-X-X-X-X-X-X-X-X-X-X-X-X-X-X>X$X.X",
"6X>X&X&X-X-X-X-X-X-X-X-X-X-X-X-X-X-X-X-X-X&X&X&X-X-X-X-X-X-X-X-X&X&X&X-X-X-X-X;X$X~.Q.XX&X-X-X-X-X-X-X-X-X-X-X-X-X-X-X-X-X>X$X.X",
"6X>X-X&X-X-X-X-X-X-X-X-X&X-X-X-X-X-X-X-X-X-X-X-X-X-X-X-X-X-X-X-X-X-X-X-X-X-X-X,X$X~.Q.XX-X-X-X-X-X-X-X-X-X-X-X-X-X-X-X-X-X,X$X.X",
"6X>X&X&X-X-X-X-X-X-X-X-X&X&X-X-X-X-X-X-X-X-X-X-X&X&X&X-X-X-X-X-X-X-X-X-X-X-X-X;X$X~.Q.XX-X-X-X-X-X-X-X-X-X-X-X-X-X-X-X-X;X,X&X.X",
"6X>X&X&X-X-X-X-X-X-X-X-X-X-X-X-X-X-X-X-X-X-X-X-X-X-X-X-X-X-X-X-X-X-X-X-X-X-X-X;X$X~.Q.XX-X-X-X-X-X-X-X-X-X-X-X-X-X-X-X-X;X,X&X.X",
"6X;X-X-X&X&X&X&X&X-X&X&X&X&X-X-X-X-X-X&X&X-X-X-X-X-X&X-X-X-X&X&X&X&X-X-X-X-X-X;X$X~.Q.XX-X-X%X-X-X-X-X-X-X-X-X-X-X-X-X-X-X>X$X'.",
">X$X$X#X#X#X#X#X$X$X$X#X#X#X#X$X$X$X$X$X$X#X#X#X$X#X#X#X#X#X#X#X#X#X#X#X#XoX#X$XXXQ.W.XX-X-X%X%X-X-X-X-X-X-X%X%X-X-X-X-X-X>X$X_.",
"@X X X X X X X X X|.`.`.`.`. X|. X X|. X_._.`. X X X X X X`.`.`.`.`. X X X|.|.|.(.Y.W.oX-X-X%X%X-X-X-X-X-X-X-X-X-X-X-X-X-X>X$X_."
};
