/* XPM */
static char *_71c6527745a4cae9352af71b4e5adb1LZi4K5qanzSFBAL1[] = {
/* columns rows colors chars-per-pixel */
"64 64 170 2 ",
"   c None",
".  c #160F09",
"X  c #140D07",
"o  c #17100A",
"O  c #1A120B",
"+  c #291B0C",
"@  c #251B12",
"#  c #361E05",
"$  c #372615",
"%  c #3E2F21",
"&  c #5C0B00",
"*  c #5B1903",
"=  c #6F0E02",
"-  c #600C00",
";  c #7B0C01",
":  c #7C170A",
">  c #4B2D10",
",  c #43311E",
"<  c #5A3A18",
"1  c #5B3B17",
"2  c #422607",
"3  c #6F290D",
"4  c #712D08",
"5  c #763704",
"6  c #6A2715",
"7  c #703019",
"8  c #463626",
"9  c #4D3C2A",
"0  c #483725",
"q  c #523C24",
"w  c #4A3F35",
"e  c #5B5603",
"r  c #7A4202",
"t  c #7C4B0A",
"y  c #774909",
"u  c #665F07",
"i  c #6A5E08",
"p  c #615705",
"a  c #6A451E",
"s  c #7F4912",
"d  c #6F630E",
"f  c #79710F",
"g  c #7C6C11",
"h  c #726612",
"j  c #4B453F",
"k  c #5D4833",
"l  c #684A2B",
"z  c #6E4F30",
"x  c #6E553D",
"c  c #735131",
"v  c #71583F",
"b  c #785532",
"n  c #5D5853",
"m  c #4D4844",
"M  c #7B5F41",
"N  c #605B56",
"B  c #7E6244",
"V  c #6D6965",
"C  c #950E02",
"Z  c #9C0C03",
"A  c #951407",
"S  c #A70D03",
"D  c #B60E04",
"F  c #BD0E04",
"G  c #A51606",
"H  c #B51803",
"J  c #882E02",
"K  c #99240B",
"L  c #9C2A0A",
"P  c #96230B",
"I  c #9A3504",
"U  c #913504",
"Y  c #A22D03",
"T  c #A03912",
"R  c #B43421",
"E  c #CB0C04",
"W  c #C60F05",
"Q  c #D60C04",
"!  c #DB0E05",
"~  c #C01E09",
"^  c #D31005",
"/  c #DE1006",
"(  c #E40F06",
")  c #E71006",
"_  c #EE1106",
"`  c #F01107",
"'  c #88490E",
"]  c #864E10",
"[  c #8A5214",
"{  c #94571E",
"}  c #A14618",
"|  c #945D20",
" . c #A55830",
".. c #966023",
"X. c #986B3A",
"o. c #A06A2D",
"O. c #A56F34",
"+. c #AE793D",
"@. c #A77439",
"#. c #B0773E",
"$. c #C37823",
"%. c #816649",
"&. c #896C4D",
"*. c #846647",
"=. c #966B40",
"-. c #9A7146",
";. c #8C6F50",
":. c #9A7751",
">. c #BA6043",
",. c #A4794D",
"<. c #BE8B30",
"1. c #AB852A",
"2. c #C69934",
"3. c #D0A837",
"4. c #CDBB32",
"5. c #D8BA35",
"6. c #D8C436",
"7. c #DCC738",
"8. c #DDC838",
"9. c #E6C83B",
"0. c #EACD3D",
"q. c #E2C13B",
"w. c #EFD33F",
"e. c #B58147",
"r. c #B6854F",
"t. c #B8874D",
"y. c #BD884F",
"u. c #AE865B",
"i. c #BC8452",
"p. c #BD8A55",
"a. c #B7885A",
"s. c #AE8962",
"d. c #B38E67",
"f. c #BB9165",
"g. c #C5935A",
"h. c #CA985F",
"j. c #CA955E",
"k. c #CF8760",
"l. c #CD9C64",
"z. c #C79A6B",
"x. c #C99968",
"c. c #D59B6A",
"v. c #C79D71",
"b. c #CFA067",
"n. c #D3A36F",
"m. c #CCA174",
"M. c #DBA472",
"N. c #D6A777",
"B. c #E1AA79",
"V. c #E4B27C",
"C. c #E8B47F",
"Z. c #EFD640",
"A. c #F0D741",
"S. c #315AE4",
"D. c #3466E6",
"F. c #3BA3F0",
"G. c #5391ED",
"H. c #708DE0",
"J. c #47B4F3",
"K. c #59C4F6",
"L. c #DFB282",
"P. c #E4B583",
"I. c #E8B681",
"U. c #ECBA86",
"Y. c #EFBD89",
"T. c #F1BF8A",
"R. c #F3C28E",
"E. c #F5C591",
"W. c gray87",
"Q. c #DFE4E0",
/* pixels */
"                                                                                                                                ",
"                                                                                                                                ",
"                                                                                                                                ",
"                                                                                                                                ",
"                                                                                                                                ",
"                                                                                                                                ",
"                                                                                                                                ",
"                                                                                                                                ",
"                                                                                                                                ",
"                                                                                                                                ",
"                                                                                                                                ",
"                                                                                                                                ",
"                                                                                                                                ",
"                                                                                                                                ",
"                                                                                                                                ",
"                                                                                                                                ",
"                                                            O O O O O                                                           ",
"                                                      O O O O o O O O O O                                                       ",
"                                                    . 8 k O v &.@ % k o O O                                                     ",
"                                                    $ d.m.9 d.L.8 s.N.9 # + O                                                   ",
"                                                    1 B %.c z.P.b B %.&.X.$ O                                                   ",
"                                                    < %.&.z z.P.c %.M M f.0 o                                                   ",
"                                                    a a.;.B m.P.*.&.,.-.v.l O O                                                 ",
"                                                  r s x m q N.P.;.n $ u.R.@.+ o                                                 ",
"                                                ..+.=.j N . d.N.w V o ;.R.n.< > 2                                               ",
"                                              | h.R.m.$ X , v.P.l X $ s.R.U.+.#.]                                               ",
"                                            r e.Y.R.C.,.x u.U.T.x.v :.I.R.Y.V.V.O.r                                             ",
"                                            r g.E.R.R.R.R.R.R.R.R.R.R.R.R.R.R.R.j.]                                             ",
"                                            r y.R.U.k.c.R.R.R.R.R.R.R.R.R.R.R.R.M.#.                                            ",
"                                              o.M.B.A R M.R.R.R.R.T.B.l.h.l.V.U.j.+.                                            ",
"                                                @.i.G E >.E.R.I.M.g.O.' J 5 +.p.[                                               ",
"                                                r 4 C D  .b.l.e.{ U I H E C J 5                                                 ",
"                                                  & Z G I I I I Y ^ _ / ) _ F &                                                 ",
"                                                  ; / / _ _ _ _ _ _ ` W F ) ^ &                                                 ",
"                                                & D F D ` ` ` ` ` ` ` _ C D ^ -                                                 ",
"                                                & S ; E ` ` ` ` ` ` ` ` D = S &                                                 ",
"                                                * 6 = Q ( ! ( _ _ ! ! ( ) ; 6 7                                                 ",
"                                                ] p.: Q ~ P S Q E K K S E : N.l.t                                               ",
"                                                ] i.3 L $.2.} L T <.3.} L 3 x.g.t                                               ",
"                                                  y g 9.w.Z.q.5.0.Z.A.0.9.g y ]                                                 ",
"                                                    f 6.7.7.1.g 4.8.7.7.6.f                                                     ",
"                                                    e i h d p e u u d h i e                                                     ",
"                                                      t t.@.        @.t.t                                                       ",
"                                                        p.r.        r.p.                                                        ",
"                                                    S.H.Q.W.        W.Q.H.S.                                                    ",
"                                                  D.F.J.K.G.        G.K.J.F.D.                                                  ",
"                                                  S.D.D.D.S.        S.D.D.D.S.                                                  ",
"                                                                                                                                ",
"                                                                                                                                ",
"                                                                                                                                ",
"                                                                                                                                ",
"                                                                                                                                ",
"                                                                                                                                ",
"                                                                                                                                ",
"                                                                                                                                ",
"                                                                                                                                ",
"                                                                                                                                ",
"                                                                                                                                ",
"                                                                                                                                ",
"                                                                                                                                ",
"                                                                                                                                ",
"                                                                                                                                ",
"                                                                                                                                ",
"                                                                                                                                "
};
