/* XPM */
static char *_2c734963b4b46afc644ff6dc4c846f2g68X3BKIC7z6SGdp[] = {
/* columns rows colors chars-per-pixel */
"64 64 67 1 ",
"  c #8D1F1F",
". c #921F1F",
"X c #9B1F1F",
"o c #A31F1F",
"O c #A81F1F",
"+ c #8D1F20",
"@ c #941F20",
"# c #9C1F20",
"$ c #A41F20",
"% c #AC1F21",
"& c #B41F21",
"* c #B91F21",
"= c #8F2020",
"- c #932121",
"; c #9C2122",
": c #A32122",
"> c #AC2223",
", c #AD2728",
"< c #B52323",
"1 c #BB2324",
"2 c #BF2827",
"3 c #B42429",
"4 c #BD2628",
"5 c #B4292C",
"6 c #BE292A",
"7 c #B63928",
"8 c #BD3A2A",
"9 c #A52930",
"0 c #AB2930",
"q c #B12930",
"w c #A7363F",
"e c #C02927",
"r c #C02A28",
"t c #C22D2A",
"y c #C12A2D",
"u c #C22C2E",
"i c #C3302B",
"p c #C3302C",
"a c #C4322C",
"s c #C6342E",
"d c #C23928",
"f c #C32E30",
"g c #C42F30",
"h c #C43031",
"j c #C53131",
"k c #C63432",
"l c #C73533",
"z c #C73634",
"x c #C83737",
"c c #C93833",
"v c #C93836",
"b c #CB3E36",
"n c #CB3E37",
"m c #CB3B39",
"M c #CB3E3A",
"N c #CC3E3A",
"B c #CC3E3C",
"V c #AE4130",
"C c #AD453D",
"Z c #CD4039",
"A c #CD403D",
"S c #D0453E",
"D c #A53340",
"F c #AA3A48",
"G c #AB3C49",
"H c #CF4340",
"J c #D04540",
/* pixels */
"&*************************************************************3G",
"&*************************************************************3G",
"&*************************************************************3G",
"&**************11*****************************111*************3G",
"&*********11111641111*********************11111661111*********3G",
"&********116yugjjjju61***************1***116yufjjkkjy11*******3G",
"&******114yfgjjkvMABvu11***************&116ujjjjkmAAmj61*****13G",
"&*****&<6u61111rtakZJAj4**************&<16y41112rtsvAAv61****13G",
"&***&&>33111111rtiscZJHz1***********&&<>56111111rtaknZAm61****3G",
"&**&%::,11*11111rtakvZSBu1*********&&$::31**1111rtpscnZAz1****3G",
"&&&$X-:>1***1111rrtaknZAz1********&%$-;,<***11111rtakcnZBu1***3G",
"&&$#+-:<****11111rtpakvnvu1******&%$@-;<*****1111rrtakcnAz1***3G",
"%%;@=;>&****111111rtpakcmj1*****&&:# -:<*****11111rttascNx4***3G",
"%$;@-;>&******11112rttakMj1*****&%:@+->*******11112rrtpaxzy1**3G",
"%$;.@;&&******111112rrtavj1*****&%:@=->********11112rrrtajy1**3G",
"%$;..#&&*******1111112rtju1*****&%:@+-%********1111111rrrur1**3F",
"%$;. #&*********1111111rju1*****&%:@ .%*********11111111ru61**3D",
"%%;@ X%*********11111114ur1*****&%:@ .$&**********111111ry11**3D",
"%%:@ .%&***********11111u61*****&&:#  #&***********11111y61***3D",
"&%:@ .o&***********11114r11*****&&%#@ #%&************111661***3D",
"&&$#. .%&*************1441*******&%:@ .$&*************11411***3D",
"&&%$@  #%&***********1111********&&$#. .$&***********1141*****3D",
"&&&$;@+.$%&&&&&*****1141**********&%$@  X%&&*********1141*****3D",
"&&&%:#@+@X%&&&&&&&&&<<11**********&&%#@+ .$%&&&&&&&&<<11******3D",
"&&&&%:#@+ .o%%%%%%>>%&*************&%$#@+ .X$%%%%%%><<&*******3D",
"&**&&%$#@    .@@@.#%&***************&%$#@     .@@--$%&********3D",
"&***&&%:;@.      X$&*****************&%>:#@      @#%&*********3D",
"&***&&&%%$#@@...#%&*******************&&%$;#@@...$%&**********3D",
"&****&&&&%$::##$%&*********************&&%%$:##$%&************3D",
"&&******&&&%%%%&&************************&&&%%%%&*************3D",
"<&*********&&&&****************************&&&&&**************3D",
"3<************************************************************3D",
"5<************************************************************3D",
"q<************************************************************3D",
"q<************************************************************3D",
"0<************************************************************3D",
"0<**********1111111*************************11111111**********3D",
"0<********116yyrufy41*********************114yyyuuur11********3D",
"0<******114yjzzzmBmzu11******************11yfjjjxMBmj611******3D",
"0<*****11ufy111rtavAAz61****************14uu6112tpkNAMj1******3D",
"0<***&<36611111rtaknZAv61************&&<34111111rtacMSHz1*****3D",
"0<*&&%:,31*11112tiacnZAv61**********&&>:311*1111rtascZSAj1****3D",
"0<&%$;:,<***1111rtpscnZAj1********&&%#;:<***11112rtakvZSm61***3D",
"0<%$@-:<****11111rtascnAm61******&&$#-;>1***11111rtascnZNj1***3D",
"0>$@+->1*****1111ertascnmf1*****&&%# -:<****111111rtpakcZz1***3D",
"9:X.-;>******11111ettaskmj1*****&%:@ -:1******11112rttakvz61**3D",
"9:X.-;<******1111112rttavj1*****&%:@+->*******111112rttpaku1**3D",
"9:#..#&*******1111112rruku1*****&%:@-;>********111111rrrtur1**3D",
"9:#..#&********11111112rju1*****&%:@=->*********1111111rrur1**3D",
"9:X..X%*********11111116ju1*****&%:@ .$**********1111111ru61**3D",
"9:#@ X%***********111111ur1*****&%:# .$&***********11111yy1***3D",
"0>$@ .$&************1111r41*****&&$#@ X%***********11111r61***3D",
"0>$#  #%&************11461******&&%;@ .$&*************11641***3D",
"0<%;@ .o&************1141********&%$#  #%&************1141****3D",
"0<%$#. .O&&*********11111********&&%;@+ #%&***********111*****3D",
"0<&%#@  .o&&********1111**********&%:#@++#%&&******&<1<<******3D",
"0<&&:#@  .$%&&&&&&&<<<&***********&&%:#@+ #$%&&&&&&&&<<*******3D",
"0<&&%O#@   .Xo$$$:::<&*************&&%$#@+  .X$$$$#$%&********3D",
"0<*&&%oX@@       .;%&***************&&%:;@        X%&*********3D",
"0<**&&%>:;@@    .X%&*****************&&%$;#@@    .$&**********3D",
"0<****&&%$$;#@@#$&********************&&%%$:##@@#%&***********3D",
"0<*****&&&%%oo$%&&**********************&&%%%$$%&&************3D",
"03<<<<<<<<<<>>><<<<<<<<<<<<<<<<111111111111<<<<1111111111111115w",
"V7777777777777777777777777777788dddddddddddddddddddddddddddddd8C"
};
