/* XPM */
static char *_209f5b2ca0c45729b123acd3180ad7ejUXIUAj0VitfeEw2[] = {
/* columns rows colors chars-per-pixel */
"80 80 255 2 ",
"   c #722917",
".  c #664336",
"X  c #70564C",
"o  c #7B655B",
"O  c #7C6C63",
"+  c #871E07",
"@  c #9C1800",
"#  c #A51C00",
"$  c #8B2608",
"%  c #932409",
"&  c #962909",
"*  c #9A2A09",
"=  c #99350B",
"-  c #A72A04",
";  c #B62B00",
":  c #A53B0B",
">  c #B93501",
",  c #A23D11",
"<  c #C33800",
"1  c #9B4713",
"2  c #9D541C",
"3  c #A4440C",
"4  c #AB460C",
"5  c #AA4C0C",
"6  c #B74609",
"7  c #B34C0C",
"8  c #AD550D",
"9  c #B85609",
"0  c #B55C0D",
"q  c #AD4912",
"w  c #B14C11",
"e  c #A65A1B",
"r  c #B35712",
"t  c #BA5B12",
"y  c #B8630C",
"u  c #BB6C0D",
"i  c #BF7B0D",
"p  c #AD641C",
"a  c #BB6312",
"s  c #B96816",
"d  c #BE7513",
"f  c #8E522A",
"g  c #A65C20",
"h  c #B26E22",
"j  c #B3692E",
"k  c #B97A24",
"l  c #C74901",
"z  c #C55706",
"x  c #C86707",
"c  c #C3730D",
"v  c #C37B0E",
"b  c #CB7909",
"n  c #D17006",
"m  c #D37904",
"M  c #C36511",
"N  c #C36B14",
"B  c #C77617",
"V  c #C57C12",
"C  c #CA7C13",
"Z  c #CA742C",
"A  c #9D6650",
"S  c #9E7551",
"D  c #AA7852",
"F  c #87776F",
"G  c #C97948",
"H  c #BF811C",
"J  c #C7830C",
"K  c #CB840D",
"L  c #CC8B0E",
"P  c #D48709",
"I  c #CE930E",
"U  c #D2930D",
"Y  c #D49B0D",
"T  c #DA9908",
"R  c #CC8413",
"E  c #CA8717",
"W  c #CC8B13",
"Q  c #D38C14",
"!  c #D48819",
"~  c #CE9312",
"^  c #CE9717",
"/  c #D29413",
"(  c #D49C13",
")  c #DA9C14",
"_  c #D79918",
"`  c #E39C1A",
"'  c #DAA40C",
"]  c #D9A70C",
"[  c #D6A214",
"{  c #D6A317",
"}  c #DBA414",
"|  c #DCAB15",
" . c #DAA51A",
".. c #DDAC1A",
"X. c #DFB116",
"o. c #DEB21B",
"O. c #E2AB0B",
"+. c #E5B40C",
"@. c #E8B80B",
"#. c #E1AC14",
"$. c #E1AA19",
"%. c #E3B315",
"&. c #E8BA14",
"*. c #E2B51C",
"=. c #E4BA1D",
"-. c #DA9126",
";. c #DDA922",
":. c #DFB523",
">. c #DDAC37",
",. c #E2AC27",
"<. c #E2B522",
"1. c #E3BB23",
"2. c #E7BA26",
"3. c #E6BA37",
"4. c #EBC609",
"5. c #E9C619",
"6. c #F3D212",
"7. c #E6C224",
"8. c #E9C424",
"9. c #E9C62A",
"0. c #F1CC27",
"q. c #F4D728",
"w. c #EAC838",
"e. c #EED134",
"r. c #F3D339",
"t. c #FCE52E",
"y. c #F9E239",
"u. c #AE875B",
"i. c #8C837B",
"p. c #92867D",
"a. c #B28F69",
"s. c #BB9874",
"d. c #D19355",
"f. c #DDAF49",
"g. c #E5B84A",
"h. c #C4966D",
"j. c #D3B873",
"k. c #E2B966",
"l. c #DCC357",
"z. c #EBCB45",
"x. c #E8C749",
"c. c #EED347",
"v. c #EED34B",
"b. c #F3D848",
"n. c #E5C859",
"m. c #F2C857",
"M. c #EED453",
"N. c #EED55B",
"B. c #F1DA5A",
"V. c #F9E347",
"C. c #FAE65B",
"Z. c #DCC562",
"A. c #D9C576",
"S. c #E4CB67",
"D. c #EED367",
"F. c #F3DD65",
"G. c #F4DA6A",
"H. c #E4CC77",
"J. c #ECD776",
"K. c #F2DC76",
"L. c #F9E768",
"P. c #FEF26A",
"I. c #F9E677",
"U. c #F4E27B",
"Y. c #FBEB7C",
"T. c #FDF37C",
"R. c #FEF878",
"E. c #827D85",
"W. c #898688",
"Q. c #8E8D8C",
"!. c #958B84",
"~. c #918E8C",
"^. c #92918E",
"/. c #99938D",
"(. c #8C8C93",
"). c #908F91",
"_. c #8E9298",
"`. c #949493",
"'. c #999693",
"]. c #979896",
"[. c #9B9996",
"{. c #949599",
"}. c #96999A",
"|. c #9C9C9B",
" X c #A59D8F",
".X c #A29B94",
"XX c #A19E9B",
"oX c #9EA09F",
"OX c #A7A69B",
"+X c #A2A19E",
"@X c #B2B294",
"#X c #8E9BA7",
"$X c #9D9DA2",
"%X c #989BA5",
"&X c #A19EA7",
"*X c #9EA1A2",
"=X c #9DA5AC",
"-X c #9CA5B3",
";X c #A4A4A3",
":X c #A9A6A3",
">X c #A7A8A6",
",X c #AAA9A6",
"<X c #A3A6AA",
"1X c #A7A9AA",
"2X c #ACACAA",
"3X c #B4AEA5",
"4X c #B0AFAC",
"5X c #AEB0AE",
"6X c #B8BAA6",
"7X c #B2B1AE",
"8X c #A8ABB3",
"9X c #B1AEB5",
"0X c #AEB0B2",
"qX c #AAB2B9",
"wX c #B3B4B3",
"eX c #B8B7B3",
"rX c #B6B8B6",
"tX c #BAB9B6",
"yX c #B3B6BA",
"uX c #B6B9B9",
"iX c #BBBCBB",
"pX c #CCB486",
"aX c #C4B9A8",
"sX c #C0BEBA",
"dX c #BCC0AE",
"fX c #BEC0BE",
"gX c #D5CE8F",
"hX c #EBDD8A",
"jX c #EFE489",
"kX c #F7E886",
"lX c #FBEB83",
"zX c #FEF384",
"xX c #FCF48B",
"cX c #FFFC8A",
"vX c #EBE499",
"bX c #FAED96",
"nX c #FEF394",
"mX c #FDFA96",
"MX c #FEF59B",
"NX c #CDCCAB",
"BX c #CBCFB0",
"VX c #C2C1BE",
"CX c #E2DEA7",
"ZX c #EDEAA9",
"AX c #FDF8A7",
"SX c #FDF9B6",
"DX c #AAB5C1",
"FX c #B6BBC3",
"GX c #BCBEC1",
"HX c #BEC1C2",
"JX c #BEC2C8",
"KX c #C2C3C2",
"LX c #C2C6CC",
"PX c #DADBC3",
"IX c #E0E6CB",
/* pixels */
"wX`.,XwX'.4XwX'.7X7X`.4X7X7XXX+XtXXX+XiX'.+XeXXX2XwX'.2X7X'.2X7X;XXXXXtX|.|.tX|.+XwX].:XiX|.;X2X7X:X'.tX,X].tX,X].tX+X[.iX;X+XeX+X;X7XXX;XtX[.OXiX[.:XiX'.:XtX[.",
"`.iX;X^.sXXX'.VX[.'.tX,X+X^.eX7X~.eX7X^.tX,X`.iX+X^.sX+X|.tX[.[.4X7X2X`.wXwX^.wX2X^.tX,X`.wX2XXX^.,XVX`.;XiX^.2XiX^.2XiX`.wXwX^.wXwX~.tXwXQ.eX2X~.tX,X~.iX,X^.VX",
"2X|.,X2X|.,X4X+X,X2X,X|..XwX;X;X7X;X;XwX|.+X5XoX;X2X|.2X2X|.:X,XXX+X:X0X+X+X0X;X;X2X;X;X2X;X+X+X7X,X+X5X,X+X7X2X;X7X:X+XwX;X;XwX;X;X7X;X;X7X+X;XwXOX;X7X+X,X7XOX",
"2X].,X4X].,X7X|.,X2X;X+X+XwX+X;XwX+X;XwX[.;XwX|.,X2X|.2X2X[.2X2X+XXX;XwX;X+XwX;X;XwX|.;X2X|.;X,XwX;X|.wX>X|.wX2X|.wX;X+XwX;X+XwX;X;XwX+X;XwXXX;XwX+X:XwX+X,XwXXX",
"`.iX;X^.VXXX`.VX[.`.:XeX7XW.wXwXW.rX0XQ.tX,X^.fX;X^.HX|.`.iX|.|.iX2X+X`.wXwX^.wX2X`.tX;X`.7X7XwX^.,XiX`.1XiX~.2XiX~.2XiXQ.wXwXW.wXwX~.tXwX^.tX7XQ.iX2XQ.fX2X^.iX",
"wX`.,XwX`.,XwX].,X2X,X+X+XeX|.|.tX|.+XtX`.+XwX].,XwX`.2X7X].2X2X|.2X2X;X;X;X,X;X2X5X;X;X2X2X;X|.wX>X].wX;X`.wX;X|.tX;X|.iX;X|.tX+X+XtX|.;XtX|.+XtXXX;XtX|.;XeX[.",
",X;X2X2X|.,X2X].2X7X;X;X:X2X;X;X2X;X;X2X+X;X2X;X,X,XXX,X,X+X:X2X;X:X,X4X+X+X7XoX;XwX|.;X7X;X;X;X2X;X+X2X;X;X2X,X;X2X;X;X2X;X;X2X;X;X2X;X;X2X;X;X4X;X,X7X;X,X4X+X",
"`.iX;X`.wX;X|.,X2X2X].7X7X~.wXwXQ.wX0XQ.iX2X`.iX;X`.iX;X|.eX[.|.iX|.XXiX+X+XwX|.+XtX|.;XwX`.:XtX].;XtX`.;XiX`.2XiX`.2XiX^.wXwXQ.wXwX^.wXwX^.wX4X'.iX2X`.iX2X`.iX",
"7X`.;XwX2X+X+XiX+X|.VXXX|.iX|.|.fX|.$XiX`.|.uX`.,XwX~.2X7X`.2X2X`.wXwX`.wX7X`.wX5X`.wX>X`.wX;X`.tX2X*X:X;X;XwX1X+XiX;X|.HX*X|.iX|.|.iX|.XXeX|.;XsX|.;XiX].:XtX[.",
";X|.2X7XXX,X2X,X:X,X,X,X,X,X,X,X,X>X>X1X;X;X;X>X,X;X;X:X;X|.;X,X>X,X;X;X>X;X;X2X2X1X>X;X;X;X>X>X2X;X|.7X;X|.wX;X|.2X2X1X1X1X>X2X;X,X,X:X,X,X;X,X2X,X,X2X,X,X,X,X",
"`.2X2X,X`.2XwX^.7XwX~.7X4XQ.wX7X~.wX2X`.uX1X`.iX;X^.iX;X|.2X|.;XiX|.|.iX|.|.uX].;XiX`.;XwX{.>XwX|.+X+XwX;X].7X,X+X|.2XwX`.0XwX~.7X7X`.7X4X|.2X2X].eX2X^.iX,X`.wX",
"|.wX;X`.iX+X'.VX|.].iX].].sX|.|.iX`.oXiX`.;XiX`.2XwX`.;X7X7X+X|.|.wXwX`.wX0XQ.wX2X~.wX1X`.rX;X|.2X2XtX`.;XuX`.2XiX+X].|.GX|.|.GX|.|.eX;X+X:X.XOXsX].;XKX`.;XiX'.",
"2X|.,X2X+X:X2X+X2X2X|.,X,X|.2X2XoX2X1X|.>X;X;X2X;X|.2X2X:X+X2X1X;X;X;X1X;X;X2X*X;X2X*X;X1X*X;X1X0X;XoX2X;X;X1X>X;X4X,X;X|.1X1X*X1X2X;X,X,XOX4X,X+X4X,X+X2X2X+X7X",
"2X].,X7X'.2XwX].2XwX].2X2X`.4X2X].0X<X_.yX2X`.8X*X`.0X,X+X|.;X<X<X$X*XqX%X$XyX|.*XwX}.*X8X_.<XqX1X%X{.wX1X|.wX;X|.1X8X0X}.8X8X`.5X5X+X,X2X+X4X2X|.wX2X].wX1X|.tX",
"^.rX;X`.iX|.`.KX|.`.HX}.].VX].|.JX`.6XCXvXvXvXNX5X8X`.'.;XyX|.6XCXvXvXgXCX0XW.wX0X(.yX8X6XvXvXvXgXNXwX{.1XiX`.;XiXNXgXvXvXgXNXwX|.XXwX|.;XiX].+XKX`.+XsX`.>XHX'.",
"+X|.,X7X|.,XwX`.2XwX].2X7X].wX8X_.NXcXY.zXxXxXcXmXOX-X<X;X_.BXcXY.T.zXzXcXjX2X#X%XqX#XIXcXP.T.zXzXcXhX8X=X%X8X-XZXT.P.Y.T.R.cXgX<X<X}.wX2X`.wX2X`.wX2X|.wX2X].eX",
"2X].;X7X;X>X2X+X,X2X;X2X2X;X2X7X XvXmXzXzXzXR.T.>.u.fX6X3XOXZXcXzXT.T.T.L.-.pX5X3XsX@XMXmXlXT.R.R.F.Z 3X4XOXtX6XAXnXY.T.R.R.B.Z aX6X+X1X2X;X2X,X;X2X2X;X2X,X+X4X",
"wX].+X;XwX+X].iX|.].HX|.|.iX>XbXnXP.L.bXI.e.` x ; d.kXU.lXxXC.C.bXY.e.` z ; f.jXK.U.I.y.L.bXC.2.! l < k.K.I.I.L.y.lXbXC.2.! > > H.Y.pX_.$XHX`.|.VX].;XiX`.;XiX'.",
"`.uX;X`.2X7X7X'.7XwX`.wXwX{.6XMXnXP.q.q.4.P l < < j j.A.J.I.r.6.6.@.P l < < D j.A.J.K.q.6.4.O.n l < > h.j.S.K.G.6.6.6.O.n < ; > d.H.a.0XwXQ.wX2X^.tX2X`.iX2X^.tX",
";X*X;X2X|.2X7X2X;X;X2X;X;X0XdXnXnXb.q.q.@.m l < # j H.J.K.I.e.6.6.+.m l < # D H.H.K.K.5.6.4.' n l > - h.H.J.I.G.5.6.4.T x < ; @ d.K.j.$X>X2X;X;X2X;X;X,X;X1X2X:X",
"7X^.;XwX`.+X2XtX|.].iX|.|.FX6XnXnXb.5.r.w.-.! b n g.zXY.Y.lXe.@.0.3.-.! n n m.lXI.I.Y.5.@.9.3.-.! n m D.lXI.I.L.4.@.9.>.-.C n n D.zXA.{.*XiX].+XiX].;XiX`.;XuX'.",
"`.iX;X^.iXXX'.+XwXwXQ.wXwXQ.6XMXnXI.Y.xXnXMXmXxXz.b.zXY.Y.Y.F.kXxXnXMXmXlXw.B.xXY.Y.I.b.kXbXnXnXxXlXz.G.lXI.Y.L.c.kXbXxXxXcXY.z.F.zXj.9X0XQ.wX2X~.tX2XQ.tX,X^.tX",
">X|.>X2X|.2X2X[.+X:XwX;X+X0XVXMXxXAXMXlXxXxXnXmXI.m.lXlXlXY.AXnXlXlXxXxXcXJ.D.xXI.I.I.SXnXlXbXbXxXmXK.D.lXkXI.kXSXnXlXlXxXxXmXJ.G.Y.A.}.>X7XoX;XwX;X;X7X+X;X2X+X",
"2X{.1XwX].2X0X;XXX+XuX|.oXuXBXMXnXT.AXSXnXP.C.g.9 d.kXU.U.kXT.MXAXnXP.C.3.6 k.jXK.U.I.T.AXSXnXR.L.>.6 k.hXJ.K.I.xXAXAXxXP.C.>.6 k.U.H.].*XtX|.;XwX|.;XwX|.;XwX|.",
"Q.GX;X^.VX|.`.iX2X+X^.5XrX}.NXmXnXC.y.I.M.$.n > ; G gXA.J.kXV.q.F.M.$.x ; ; d.j.A.J.I.t.r.L.v.$.x ; ; h.j.A.J.I.t.V.I.c.$.z - ; d.A.j.tX0XQ.iX2XQ.iX2XQ.iX,X^.iX",
"2X}.;X7X|.;X2X|.2X2X+X;X1X*XBXMXMXC.y.q.@.P z > # A gXH.U.xXb.q.q.+.P l ; @ D gXJ.kXkXr.q.6.+.P z > # D A.H.kXI.q.q.q.+.P 6 ; # u.gXH..X<XwX|.;XwX+X;XwX|.;XwXXX",
",X`.;X2X].>X2X|.;X2X,X+XoX1XPXAXMXb.q.q.%.P x z 9 f.nXxXxXnXr.5.0.#.P x 9 9 k.bXxXnXnXr.q.0.| P x z y H.bXxXxXlX0.q.0.#.P z 9 y S.nXkX X;XwX|.;XwX+X;XwX|.;X7XXX",
"`.GX;X^.iXoX`.sX|.`.iX|.}.GXIXSXSXL.y.y.q.5.5.5.4.C.AXMXMXAXL.y.y.0.5.5.4.4.I.AXAXAXAXC.V.V.q.5.5.4.6.xXAXAXAXMXV.V.V.q.5.5.5.4.T.AXnXaX8XQ.iX5XQ.iX2XQ.iX2X~.iX",
"2X{.;X5X`.,XwX].2X5X`.2XwX`.CXkXkXU.L.F.B.B.M.M.M.K.jXjXkXkXU.F.F.B.M.M.M.N.hXjXjXU.U.K.G.F.B.b.M.M.B.K.U.U.U.K.G.F.B.v.v.c.c.v.K.jXG.a.-XuX|.+XwX|.;XrX|.;XwX|.",
"2X|.;X,X].;X2X+X2X2X|.2X2X$XZ.+.%.%.%.O.*.%.$.$...} | | | | X.O.' .. .(  . .[ ' ' ' ' | ' ' ..| ) } | ' ' ' ' ' | ' ' } } ) } } ' ' T u.-X0X+X;X0X+X;X0XoX;X2X+X",
").iX+X^.tX|.`.VX|.`.sX|.].GXS.&.=.=.:.J.AXlXw.W _ o.o.o.o.o.%.=.U.MXY.3.R [ o.......X.X.2.I.nXL.3.R _ ........X.| 3.Y.zXC.,.C ( } } T h.DXQ.wX2X`.iX2XQ.iX:X^.iX",
"wX`.,XwX^.2XtX`.2XwX`.wXuX{.Z.&.=.=.jXSXD.x.b.;.9 ^ o.o.o.*.=.nXSXn.x.c.;.0 ~ ......X.1.MXbXn.w.b._ 7 ~ } ....| :.AXbXx.x.e.E 7 L | T S -XiX].;XiX|.;XiX`.;XiX'.",
";X;X;X;X;X;X,X,X>X>X2X1X1X<XS.&.&.v.SX3.| %.%.9.N 5 ^ ..X.%.v.SX,.| X.*.9.N 5 ~ [ ..| N.AX*.| %.*.9.t 5 ~ [ } ' G.bX#.' ..*.9.q 5 / T a.qX;X;X,X1X1X,X;X,X2X,X:X",
"`.uX;X`.tX;X|.iX|.}.GX$X|.GXS.&.%.F.N.%.1.=.=.8.! = d ^ } | B.D...<.*.*.8.! * u ~ [ ' F.N...1.<.=.8.B & d ~ [ ' I.x.#.*.*.*.8.p $ c P s.yX{.wX2X{.rX2X`.uX2X`.tX",
"5X}.2XwX^.2XiXQ.5XuX).yXuX_.Z.&.%.c.z.%.=.*.=.8.! & y E ( ' z.v.X.*.*.*.7.C % 8 J ~ ' z.v.X.=.*.*.8.s $ 0 J ~ Y N.w.*.o.*.*.2.r   0 P S =XHX`.+XHX`.;XKX`.>XfX/.",
"2X`.;X2X2X;X;XwX;X;XwX;X;XyXS.@.=.=.w.1.*.*.1.8.r & 0 v ~ } *.r.1.=.*.=.1.4 $ 8 v I Y ..c.1.=.o.7.<.: $ 8 i L U :.r.*.*.*.5.;.& $ 8 x s.0X|.2X2X|.0X2X|.wX2X|.7X",
"2XXX+X+X7X;X|.wX;X|.wX;X;XFXS.+.=.%.*.,.<.1.*.M % 3 u J /  .| ..;.<.1.;.r $ 3 0 v L Y ' } ;.:.1. .w $ 3 y v L Y Y  .;.*.=. .: + 3 0 x s.qX|.wX2X|.wX2X|.wX1X|.7X",
"`.GX;X^.].4XiX^.wXiX~.wXuX_.Z.&.=.=.*. .E N 4 - 5 a C W ( } ....} ! N 4 = 5 0 c J U ( } } ( R M 6 : 5 y c J ~ ( Y Y Q B a : : 5 0 c b u.=XiX|.;XHX|.;XHX`.;XKX`.",
"2X{.1XwX;XXX;XiX;X|.iX$X|.GXS.+.%.%.=.1.*._ R C V R ~ ( [ ....X.*.$./ R C V C W / (  .} | #.$./ Q R C R W ~ ( [ } } $._ Q R C C R W P a.=X;XwX2X|.wX,X].rX2X|.wX",
";X*X;X2X4X;X+XwX;X;X2X<X;X0XS.&.%.=.=.2.9.8.#. . . . . . ...*.*.=.9.=.}  . ._ ( [  .| ..#.%.2.%.} } } ( ( ( [ } | O.*.2.#.} } } ( ( T s.8X].2X,X|.7X,X|.5X2X;X7X",
"`.uX;X`.tX2X:X+X2X2X|.wXwX{.Z.&.=.%.9.lXmXL.w.P ! <.o.....o.*.w.xXmXP.9.b ! .. .} } ..%.w.xXcXC.$.b ^  . . . .} ' w.xXT.b.$.c / } } T s.0X].;X;X2X,X,X,X;X2XwX:X",
"wX).2XtX^.2XiX`.7XwX`.0XwX<XS.&.&.2.AXSXn.x.v.,.9 C ....o.*.7.AXAXn.x.v.;.7 V  .} ....1.AXMXn.x.b._ 4 J  . . .' 3.SXbXx.w.e.R 4 R } T u.=XiX`.;XsX'.;XiX].:XtX[.",
"*X2X;X;X2X;X;XwX;X;X0X;X;XFXS.@.&.B.SX,.| *.*.e.B : E [  ...M.SX;.| X.o.9.N : E [  .| N.AX:.| X.=.9.t 3 W ( [ ' U.bX| | ..=.9.q 3 L T s.qX+X2X,X;X2X,X;X2X2X;X2X",
"].wX;X].wX;X|.iX;X|.uX*X*XFXS.@.%.L.N.#.1.=.=.8.-.- 0 W ( ' F.D...<.<.<.7.! * y W ( } I.N...1.<.<.7.B * y W ~ Y kXx...*.*.*.9.s $ y b s.yX[.7X,X|.7X,X|.wX2X|.wX",
"wXW.>XiXQ.2XiXQ.wXiXQ.wXiX_.Z.@.%.b.z.*.1.1.1.7.Q * 5 d W Y z.v...<.:.:.7.C % 5 i W Y v.z.X.:.<.*.7.s $ 8 c L I D.w.....*.*.8.s   5 x S =XKX`.XXiX`.;XiX^.;XiX/.",
"|.wX;X|.wX;X|.tX;X$XuX;X;XFXn.+.%.2.c.*.*.*.1.9.t % 5 u R (  .w.:.:.:.1.2.9 $ 3 u J I :.c.:.<.o.7.<.3 $ 5 u J L ;.w.o.X.*.5.,.= $ 3 9 s.qX}.7X2X}.wX2X|.wX2X|.7X",
"|.wX1X+X7X;X;XwX;X;XwX;X>XyXn.+.%.%.<.<.1.8.7.B % = 8 u R ( [  .<.1.7.2.N % = 8 u J I Y ..:.1.7.1.t + = 5 u v L L  .<.=.=.<.r + = 3 9 a.qX;X2X2X*X5X2X+X7X2X+X4X",
"tX`.2XiX~.7XiX^.wXiX).uXiX{.l.+.*.%.*.) R B 7 * = 5 a V ~ (  . ._ E B w * = 5 y d L / ( ( / C N 4 & = 5 0 c J L U U W V s : % = 3 8 9 S =XHX`.;XKX|.;XKX'.,XKX[.",
"].wX;X].iX;X|.iX+X|.iX;X$XJXS.+.*.*.*.%.} C a t a N V W (  . . .*.) B a t a s B R ~ ( }  .| ) C M a a s c v L I ( ( Y R M t 0 0 0 y x s.yX`.wX2X|.wX2X`.wX2X].eX",
"+X2X>X;X2X;X;X7X;X;X0X;X;XyXn.+.*.*.=.%.=.=.$._ / / / ( [ } ..*.#.=.*._ _ / W W / ( [  .$.#.%.$.) _ Q W W ~ / ( [ } O.#.) / Q R C R b a.8X+X2X,X+X2X,X+X2X2X;X2X",
"wX`.2XuX`.2XtX`.7XrX`.wXwX{.l.+.*.&.=.F.zXL.2.P _  . . .}  .#.o.G.zXC.*.b _ [ [ [ [  ...<.L.T.b.) C _ _ _ ( ( } } <.L.P.r./ c Q / / P u.=XiX'.+XiX`.;XiX`.;XiX'.",
"].uX;X`.iX;X|.iX+X|.iX|.|.JXn.+.%.=.kXSXJ.N.b.) 9 ! .. . ...X.lXSXJ.N.v.) 9 E  . . .| o.xXSXJ.M.e.K 7 E _ } [ } ..bXAXD.v.e.c 9 R ( P s.0X{.wX2X`.wX2X`.wX,X'.rX",
";X0X2X;X2X,X:X7X;X;X5X1X1XyXn.+.%.v.SXg.' #.=.9.M 4 ! [  .| w.SX3.} ..*.e.N 3 W [  .} v.SX>.' | 1.7.7 5 W _ ( Y N.SX,.' } =.1.4 5 Q P a.qX;X2X,X;X2X;X+X2X,X;X,X",
"wXQ.,XiXQ.2XiX`.wXiX`.wXuX_.l.@.+.L.J.| =.=.=.8.! - a W ( | B.J.| <.<.*.7.! * a W ( } F.D.} *.X.*.7.B = u W / Y U.m.#.....*.7.s $ u P S =XiX`.|.iX].;XiX^.+XiX/.",
"|.wX>X|.wX;X|.iX;X|.iX*X$XJXn.@.%.b.z.X.*.=.*.8.! - 4 d W Y z.v...*.*.*.7.! % 5 d W ( z.z...*.X.*.8.B % 8 v L U N.w.| ....*.8.s + 5 x a.8X`.7X2X`.7X,X`.wX,X].4X",
";X2X1X;X2X;X:X2X;X1X2X>X1XyXn.+.%.2.z.=.*.*.=.8.M % 3 a C /  .w.<.*.*.*.8.a $ 3 y C L [ w.o.o.o.=.2.q $ 5 u J L ;.9.......=.<., $ = 9 u.=X|.;X;X;X;X+X+X2X,X;X,X",
"wX`.2XuX`.2XiX`.wXwX`.wXyX{.l.+.%.#.,.<.1.7.=.C % = 5 a V ~ ( } <.1.7.1.B % = 3 y c L I _ ;.1.1.1.a + = 5 u v J P _ ;.*.=.<.r + $ 3 9 S }.,X^.].wX^.|.rX`.;XtXOX",
"|.2X:X+X7X+XXXeX2X;X;X,X;X<Xn.+.%.%.#.) R B 7 * = 3 r u C ~ ( ) Q C B w % = 3 8 y v L / / W V s 4 % = 3 r u v J U U C B N 4 % = = 5 9 u.*XW.OX.X!.,X;X^.wX,X[.iX",
"|.iX;X[.tX:XXXiX;XXXrX+X|.GXn.+.%.%.#.#.) B t t t a d C R / ( } } / N t t t y s c J L / ( } Q N t t t y u c v L U ( Y b t w 7 8 r 0 x A W./.!.!..X/.[.,X|.+X3XXX",
">X2X;X+X2X,X,X2X:X;X2X;X;XqXn.+.%.%.%.%.*. .Q Q R R R W / ( } } ' #.$.Q ! R C C R W / ( } ) } ) Q ! R C C J L I ( ) T ) _ R C c c c n A i.p.i.!.'./.'.:X[.+X:X.X",
"wX`.;XwX`.2XwX`.2XwX`.wXwX%Xn.+.%.%.&.B.R.b._ N Q _ / _ ( [ }  .N.P.V.) N ! / W / / ( }  .M.L.r.Q N W Q W W U Y Y  .v.V.0.m M R R K m S i.F p.!.F .X'.W.,X+X~.wX",
"].iX;X].iX;X|.iX+X].HX|.|.LXn.+.%.%.I.AXK.M.e.b 7 E ) ( }  .} I.SXjXN.e.R 7 R / / ( ) ' K.AXU.c.0.N 4 R / / ( Y } I.AXF.c.1.9 7 b Q P f o F F F .X!./.,X~.+XeX'.",
",X;X1X2X;X,X2X;X,X2X;X2X2X8Xn.+.O.v.SXg.$...1.9.9 : W ( } ' w.SXg.} } *.7.9 : R ( ( Y 3.SXg.}  .1.1.6 4 R / U U z.AXg.} } 1.;.: 4 b P f X o F F F !./.`.+X+XXX:X",
"wX{.1XrX`.2XuX}.5XwX`.wXwX%Xn.+.O.L.K.| *.*.*.8.! * t R Y T M.K.} $.$.*.1.E * 0 J U U B.J.'  . .| 1.B * y J L U G.S.'  . .$.2.s % y b f X X F F O p.!.W.,X+X^.7X",
"`.JX<X`.fX+X`.KX|.].KX|.|.LXn.O.#.b.w...*.*.*.1.! * 3 u L U z.x.} ......=.! % 3 u J L x.x. . . ...=.B % 5 u J L N.3.| | } | =.s $ 5 x f . X X o i.O i.:XW.[.eX/.",
"7X|.2XwX|.,XwX|.2XwX|.0XwX*Xx.O.#.2.w.X.*.*.*.5.N % 3 y v L  .w..... . .=.M $ : 0 c K ;.w. . .| ..=.r $ 3 y c b >.w.} } } ..=.q   = 9 f . . X O O i.p.W.+X+X].7X",
"2X|.2XwX].2XwX|.2XwX|.0XwX<Xx.O.#.O.$.<.=.=.5.Q * & 5 y c L U ) o.*.*.=.Q * $ 3 0 u b K ) ..*.*.=.C % & 3 0 d v K ;...*.%.&.B + $ = 7 f . . X O F p.!.!.+XXX[.4X",
"`.fX;X`.VX+X`.KX|.`.KX$X|.LXn.' | } Y / ! ! N * & 3 8 y c J L L R E E M * $ = 5 0 u v J R E E C t * & = 5 0 u v b b R R C t % $ = = 7   . X X O !.F !.,XW.XX7X'.",
"wX].2XwX`.2XwX|.2XwX`.0XwX|.x.+.#.#.#.#.R z 7 q r t a c b P U ) _ R M 7 5 5 8 0 y c b L Q Q C 9 7 5 8 r 0 y c b K Q K c 7 4 4 5 5 9 z f X X F p.i..X.X^.+X:X+X+X",
"2X;X2X2X+X2X2X;X2X2X;X2X2X;Xa.H d k k k k h e e e g p p p p k k k k h g 2 2 2 2 e e p p h h h h e e 2 2 e e p p h s h h p e 2 2 2 e 1 A F p./.'.'.:X+X^.,X,X|.,X",
"`.iX>X].iX;X'.VX|.].KX|.oXGX<X{.).8X<X(.$X{.Q.~.].|.W.$X$XW.$X&X(.$X%XE.).).W.W.Q.$XW.{.<XW.{.=XW.(.%XW.).|.W.|.>XW.$X<XW.].{.E.{.{.W.].;XwX`.|.wX2X:X.X7X:X'.tX",
"7X].2XtX].2XtX].wXwX`.wXwX].7XwX2X;X1XwX;X*X;XwX;X|.uX;X;XuX;X;XiX|.$XFX*X|.2XwX2X}.wX1X|.wX<X}.wX1X}.wX2X].uX2X|.iX;X|.iX;X|.iX+X+XrXXX[.XXwX2X;X|.:XtX|.,XtX[.",
";X;X,X,X2X,X,X2X2X;X2X2X,X,X,X2X7X;X,XwX|.;XwX2X2X2X2X2X2X>X;X2X2X>X>X1X1X2X2X2X2X2X>X;X1X>X;X>X1X1X1X>X2X2X;X2X2X>X>X1X1X1X1X;X2X2X;X,X,X+X,X;X+X2X2X,X2X,X;X2X",
"].iX>X[.iX+X|.iXXX|.iX+X+XiX+X+X7X2X2X4X;X2XiX;X2XwX].wXwX`.5X2X].wX7X`.0XwX2X|.;XiX}.>XuX}.,XrX}.>XrX}.1XwX`.2XuX`.2XwX{.wXwX`.wXwX`.wXwX3XXX|.+XtX4X[.wX2X].iX",
"wX^.2XiX^.2XtX^.wXiX^.wXwX^.wXwX].eX4X].tX2X|.iX;X'.iX$X|.iXXXXXfX|.|.uX>X*X|.uX0X{.iX2X`.iX;X`.iX1X`.iX2X`.iX2X|.iX;X|.KX+XXXVX|.XXiX|.+XtX+X:XsX[.;XVX|.2XVX'.",
";X,X>X;X7X;X;XwX;X;XwX>X;XwX2X2X7X;X;X7X;X>X2X;X2X2X;X2X2X;X2X2X;X2X2X*X2X2X7X;X;X2X;X1X0X;X>X5X;X2X5X;X2X5X;X2X2X;X2X2X;X2X2X+X2X2X+X2X2X+X4X2X;X7X2X;X7X2X;X7X",
"|.wX;X|.wX;X+XiX;X+XiX;X;XuX;X;XtX+X;XuX|.;XwX|.2XwX|.2XwX|.2X0X|.2X2X|.2X5XwX;X;XwX|.1XuX|.2XwX|.2XwX|.1XwX|.2XwX|.2XwX|.wX0X|.wX5X|.wX2X|.7X2X|.wX2X|.wX2X|.eX",
"|.uX2X;X[.7XtX`.wXwX`.wXwX^.iXwX^.iXwX`.iX2X`.uX2X;X2X|.+XiX|.|.HX|.|.HX;X|.oXiX0X`.iX2X{.iX1X`.iX2X`.GX1X`.iX,X|.KX;X].KX*X|.KX|.+XVX[.+XiX].+XKX|.;XKX].2XKX[.",
"2X|.2X7X.X:X4XwX;X+XwX;X;XwX:X,XwX;X;XwX;X;X2XwX;XXX2X:X:X;X;X;X;X2X2X;X+X;XwX;X1XwXoX>XwX*X2XwX;X2XwX$X2XwX+X2XwX+X2X7X|.2XwXXXwX7XXX7X7XXX7X2X+XwX4XXXwX2X+XeX",
"2X|.;X2X;X:X,X7X;X+XwX;X;XwX;X;XwX;X;XwX|.;X2X;X;X+X;X,X;X|.2X2X;X2X2X|.;X,X7X;X;XwXoX;XwX;X2X0X|.,X2X|.,X7X+X2X4XXX2X7XXX2X2X;X7X2X+X2X2XXX7X2XXX7X2XXXwX2X;X7X"
};
