/* XPM */
static char *_4cd8822679d4f509c78d2ef56aa0d078vc8syM14RR3c0RV[] = {
/* columns rows colors chars-per-pixel */
"64 64 241 2 ",
"   c None",
".  c #831E07",
"X  c #A51C00",
"o  c #8C2308",
"O  c #8A2307",
"+  c #93260A",
"@  c #942B0A",
"#  c #9A2D0A",
"$  c #962608",
"%  c #943109",
"&  c #9A340B",
"*  c #9C3B0B",
"=  c #9C3006",
"-  c #A92602",
";  c #B82700",
":  c #A33C0C",
">  c #AA3D0C",
",  c #A1340B",
"<  c #BA3703",
"1  c #AC3910",
"2  c #A42C10",
"3  c #C33300",
"4  c #9F420D",
"5  c #A4420C",
"6  c #AB450D",
"7  c #AB4C0D",
"8  c #A74A0F",
"9  c #B3490B",
"0  c #AC530E",
"q  c #A7500A",
"w  c #B3550D",
"e  c #B45B0D",
"r  c #BB5C0E",
"t  c #BA540E",
"y  c #AB4A11",
"u  c #A94611",
"i  c #B34C11",
"p  c #AD5914",
"a  c #AB5512",
"s  c #B35411",
"d  c #B35B11",
"f  c #BB5C12",
"g  c #B95B16",
"h  c #B6620E",
"j  c #BC640E",
"k  c #BD6B0E",
"l  c #BD710E",
"z  c #B66212",
"x  c #BA6313",
"c  c #BC6D12",
"v  c #B96617",
"b  c #BD7313",
"n  c #BF7118",
"m  c #B0542F",
"M  c #C84800",
"N  c #C95C04",
"B  c #C35012",
"V  c #C5680B",
"C  c #C1730E",
"Z  c #C47D0D",
"A  c #CC770A",
"S  c #C36C13",
"D  c #C46518",
"F  c #C37413",
"G  c #C47C13",
"H  c #CB7B13",
"J  c #C87519",
"K  c #D16D07",
"L  c #CE6C2E",
"P  c #BB794C",
"I  c #C67E47",
"U  c #CC8300",
"Y  c #CB840E",
"T  c #CC8B0D",
"R  c #C7870C",
"E  c #D68705",
"W  c #CE940E",
"Q  c #D2940C",
"!  c #D49B0E",
"~  c #DB9A09",
"^  c #CB8414",
"/  c #CC8C13",
"(  c #C88517",
")  c #D38513",
"_  c #D38C14",
"`  c #D38C1C",
"'  c #D48718",
"]  c #CE9212",
"[  c #CB921A",
"{  c #D29513",
"}  c #D49B13",
"|  c #DB9B14",
" . c #D4931B",
".. c #DA9619",
"X. c #D59B1B",
"o. c #DA9E1C",
"O. c #DA9514",
"+. c #E49E15",
"@. c #DAA30E",
"#. c #DBA70B",
"$. c #D6A114",
"%. c #DBA314",
"&. c #DCAB14",
"*. c #D7A21A",
"=. c #DBA41C",
"-. c #DCAC1B",
";. c #DEB21B",
":. c #DEB113",
">. c #E2AE07",
",. c #E6B909",
"<. c #E2A316",
"1. c #E2AC15",
"2. c #E1AD1C",
"3. c #E6AA1B",
"4. c #E3B315",
"5. c #E2B51B",
"6. c #E4BA1C",
"7. c #E7BA17",
"8. c #F3BB15",
"9. c #CD8921",
"0. c #D68B29",
"q. c #D49222",
"w. c #D99921",
"e. c #DC9937",
"r. c #E09730",
"t. c #DCA521",
"y. c #DEAB22",
"u. c #D7A920",
"i. c #DDB223",
"p. c #DDB029",
"a. c #DFB533",
"s. c #E2AE23",
"d. c #E1A627",
"f. c #E2B523",
"g. c #E3BB22",
"h. c #E9BD23",
"j. c #E2B42A",
"k. c #E4BB2B",
"l. c #E9BE2C",
"z. c #E8B322",
"x. c #E2BA33",
"c. c #E3B937",
"v. c #E2A83C",
"b. c #EFC507",
"n. c #F2CC04",
"m. c #E8C21B",
"M. c #F5C41B",
"N. c #F7C91E",
"B. c #F9C71A",
"V. c #F7D719",
"C. c #EFD01A",
"Z. c #E6C323",
"A. c #EAC424",
"S. c #E6C12B",
"D. c #E9C42B",
"F. c #EBC92B",
"G. c #F4CB27",
"H. c #EDD42B",
"J. c #F3D42B",
"K. c #F5D825",
"L. c #E9C333",
"P. c #EBCA34",
"I. c #E5C43B",
"U. c #E8C637",
"Y. c #F2CD38",
"T. c #EEDB35",
"R. c #EED536",
"E. c #F4D939",
"W. c #FEE73D",
"Q. c #CD8845",
"!. c #D59748",
"~. c #D28A52",
"^. c #DBA150",
"/. c #E5B846",
"(. c #E4A85B",
"). c #E7B65D",
"_. c #CBAA75",
"`. c #EBCB45",
"'. c #EBCC4B",
"]. c #E7C547",
"[. c #EED24D",
"{. c #EFD045",
"}. c #F3D442",
"|. c #F3DA48",
" X c #EACD54",
".X c #E6C856",
"XX c #EED354",
"oX c #EFD758",
"OX c #F4DA58",
"+X c #FAE747",
"@X c #F5E25B",
"#X c #FAE657",
"$X c #D9C375",
"%X c #EBCE65",
"&X c #ECD569",
"*X c #F2DC62",
"=X c #F1DD68",
"-X c #E4CF74",
";X c #EAD779",
":X c #F4DF7A",
">X c #F4E26C",
",X c #F9E964",
"<X c #FEF069",
"1X c #F5E573",
"2X c #F4E27C",
"3X c #F9E77B",
"4X c #F6EB7D",
"5X c #FBEA7C",
"6X c #FAE774",
"7X c #FCF374",
"8X c #FDF77E",
"9X c #D6C883",
"0X c #EDDA84",
"qX c #E6D788",
"wX c #EDD383",
"eX c #F4E484",
"rX c #F6EA84",
"tX c #FCEC84",
"yX c #F4E48C",
"uX c #F6EB8D",
"iX c #F9ED8D",
"pX c #F9E780",
"aX c #FDF483",
"sX c #FFFF84",
"dX c #FDF48D",
"fX c #FFFD8B",
"gX c #F6F087",
"hX c #F7ED94",
"jX c #FAED93",
"kX c #F4E896",
"lX c #FCF294",
"zX c #FFFD94",
"xX c #FBF39C",
"cX c #FEFB9B",
"vX c #F6F194",
"bX c #EFE282",
"nX c #FBF3A2",
"mX c #FEFCA3",
"MX c #FAF8A9",
"NX c #FBFBB9",
"BX c #F5F5C9",
/* pixels */
"                                                                                                                                ",
"                                                                                                                                ",
"                                                                                                                                ",
"                                                                                                                                ",
"                                                                                                                                ",
"                                                                                                                                ",
"                                                                                                                                ",
"                                                                                                                                ",
"                                                                                                                                ",
"                                                                                                                                ",
"                                                                                                                                ",
"                                nXxXMX              nXxXnX              xXhXxX                lXlX                              ",
"                            xXsXzXcXmXzX        NXzXsXzXcXcX          mX8XfXzXmX;X        MX8XsXfXzXgX                          ",
"                          lXzXxXaX,XXX0.!.lXuXhXaXzXlX<XOXr.L hXyXeX8XzXlX7X@Xv.D 0XeXeX4XzXxX8X,X'.J (.hX                      ",
"                        mXzX+X|.P.E M ; ~.yXtXfXW.E.|.1.N ; L qXeXtX+XK.}.2.K 3 B wX2XtX<XV.|.D.E < ; (.jX                      ",
"                        xXaXK.V.>.K 3 ; P -X;X3XJ.n.,.E M ; m $X-X:X}.n.b.E M ; 1 _.-X:XOXb.n.~ N < X I eX                      ",
"                        xXaXH.}.].v.0.A '.aX5XtXY.F.`./.e.A d.tX6X5X}.7.`./.e.' E 6X3X5XOX,.P./.e.0.A /.zX                      ",
"                        xXlXuXiXlXcXcX6XOXtXtX5XuXiXlXcXzXaXOXtX5X5X1XuXhXlXzXzX>X1XtX5X1X4XjXjXzXfX4X=XfX                      ",
"                        cXlXmXnXdX8X7X!.).tX3X3XzXmXlX8X7X/.!.uX2X1XlXMXMXlXaX=XQ.;XeX2XiXMXnXlX8X7X!.(.fX                      ",
"                        mXaX#X5XoX3.V - ~.9X-XpX+X@X>Xl.A - m 9X-X:X#X+X4X{...9 < _.$X;X,X+X5X*Xs.N - Q.0X$X                    ",
"                        MXtXE.K.4.K < - P qX:XtXE.V.m.E < X m 9X;XiXOXK.C.@.N ; 2 _.;XeX>XK.K.4.K < X P yX;X                    ",
"                        NXdXJ.K.7.Q E U oXcXjXlX}.K.m.~ E U c.nXlXxX,XJ.J.1.Q U } jXxXlX5XJ.J.7.~ Y U .XmXyX                    ",
"                      BXNXiX@X#X|.E.T.R.1XhXhXjX>X#X|.R.T.R.*XnXhXjX1X@X@XE.T.T.|.iXjXhXrX@X@X|.R.T.H.>XxX0X                    ",
"                      *XG.g.g.5.k.f.f.j.p.i.i.i.g.5.f.j.t.p.i.u.;.;.i.-.-.j.-.s.f.-.-.-.-.i.-.s.2.t.f.-.5.{                     ",
"                      XXG.7.;.;XxX>Xt./ ;.;.;.;.:. XlX3Xx.^ *.&.&.&.&.L.rXrX{._ { &.&.&.&.;.>XtXOXX.Y %.4.{                     ",
"                      oXG.7.2XkXc.I.P.S ( ;.;.4.`.MX.Xx.P. .d *.-.:.i.lX&Xk.P.j.s ( &.&.#.:XuXx.k.S.x k 1.{                     ",
"                      XXN.Z.4Xf.4.5.A.q.5 [ -.&.>X.X&.5.6.k.6 c $.&.`.2X&.;.5.A.v 7 { $.;.rXj.1.4.m.9.% _ _                     ",
"                      oXN.h.[.5.6.6.A. .& b } %.[.U.5.5.6.f.5 q R ! x.XX;.;.6.A.g & Z W -.*X5.5.5.m.9.. V (                     ",
"                      XXN.7.D.l.6.6.A.f & c / %.f.L.g.g.A.( + q Z W $.U.g.g.A.d.# * l T Q k.S.5.7.h.y O j G                     ",
"                      oXN.6.5.=.=. .f # 0 G ] %.&.-.=.w.J # * h Z Q @.@.=.o.` : # 0 C / ! ! o.X. .s o 5 S F                     ",
"                      XXN.6.6.6...S w x G / } &.-.&.%.H r z c G / } %.&.%.) V h c G T } } %.%.) V r j C _ (                     ",
"                      XXN.6.6.g.F.7.<.=.=.=.-.-.5.5.l.h.%.=.X.} $.%.-.1.6.A.1.%.%.} } $.%.&.1.h.1.%.%.| <._                     ",
"                      XXN.7.S.rXdX@X=.^ y.;.-.5.6.>XcX6Xl.H X.-.&.&.&.I.lX5XY.^ ( -.%.%.%.i.4X8X}...H %.3. .                    ",
"                      XXN.7.uXyXc.I.P.S c -.-.4.XXMX].x.R. .s  .&.&.g.nX&Xa.P.j.7 G *.%.#.bXyXx.k.S.f h <. .                    ",
"                      XXN.D.rXi.4.5.A.w.: G } #.1X.X&.5.6.k.6 z ] $.'.2X&.5.5.F.v 5 / } y.uXy.&.;.Z.q.% H (                     ",
"                      XXB.l.XX;.g.g.Z.w.# d ( ! [.I.i.i.g.f.6 5 G W c.XX;.f.5.A.v & k R u.*X;.;.;.m.q.O e F                     ",
"                      '.M.7.L.g.6.Z.F.v @ w G } 2.L.i.g.Z. .$ 4 c T $.U.g.g.Z.s.& % h Z T j.k.5.6.Z.d . 7 x                     ",
"                      '.M.7.5.y.t.t.S + * z ^ } %.=.t.y.` , % 0 b / ! $.t.t. .u o 5 h Z T Q o.=.=.v o % w z                     ",
"                      [.M.5.5.-._ r > 7 z G ] $.-.-.O.S 6 6 d c ^ ] } %.| H t 6 w h C Y W } { H t : 5 q j c                     ",
"                      '.B.5.7.7.6.2... ./ { $.&.-.1.5.2... ./ / { } %.&.1.5.|  ._ ^ / ] } %.@.1.O.) ^ H ) G                     ",
"                      '.M.7.6.>XdX#X| ) =.-.=.-.&.'.dX,Xs.H X.*.=.%.&.k.4X7Xl.H  .X.} } %.&.*X7X}._ H { | ^                     ",
"                      '.B.4.2XkX].U.D.V F =.-.&.U.nX.XI.U.` d X.=.&.;.vX0Xc.P.=.i ( $.%.@.&XkX/.L.k.r k +./                     ",
"                      `.B.h.uXj.4.4.A.` > ^ } %.=X%X#.;.6.k.9 x X.%.I.eX%.&.;.D.g 7 / } -.jXc.@.&.Z.9.& ) (                     ",
"                      '.M.h.oX;.6.5.Z.w., d ( !  XI.;.5.f.g.i 5 G { x.[.&.5.;.A.v & C T *.OX2.-.-.6.q.O e F                     ",
"                      '.M.4.L.l.6.6.A.D + 7 b ] s.l.g.g.A.w.@ * z R { k.g.5.m.f.: % h Z T s.f.;.5.A.g . 6 z                     ",
"                      '.M.4.1.t.=.=.S $ & w b / } %.t.y.` & @ 8 h Z W { X.=.X.y o 5 e C Y Q  .X.=.c o % 8 d                     ",
"                      '.M.4.1.%.) f > y w c G ] } %._ V 6 6 a z l ^ ] } { F i : 7 e k Z / { Q F t : 5 8 r z                     ",
"                      '.M.7.4.4.6...' ^ ^ ^ / } %.%.1.<.' ' H G ^ / } %.%.=._ ) ^ G Z Y { } ! | _ H F C A c                     ",
"                      `.M.7.7.OX7XY.H H X.} } %.@.I.5X#Xo.S  .{ { { ~ -.>X#Xz.S ^ _ / Q ! } `.#XF.A S ) _ F                     ",
"                      '.M.4.1XhX'.U.f.t F | $.@.x.nX&X].D.H s ] } } @.eXyX].F...9 H { { Q  XxX].L.-.9 r O.H                     ",
"                      '.M.h.uXj.1.2.Z.' , G } @.oX%X%.&.5.s.> e ] Q k.uXt.%.-.Z.g 6 ^ W ! rX/.@.%.g.( # A G                     ",
"                      `.8.h.oX-.5.5.g.w.# w ^ Q '.x.-.-.2.f.y : l T a. X%.-.&.6.S = j Z X.*X-.&.%.7.q.+ w k                     ",
"                      `.8.1.D.g.5.5.m.J $ 0 C T y.l.;.&.5.o.# & e Z { x.-.&.:.6.5 @ w C Y c.f.&.&.7.J . : e                     ",
"                      `.8.&.%.=.-.5.( $ & 0 k Y Q } =.-.| 6 o 5 e C Y _ *.-.=.f o * w k Z Y X.=.1.^ + O : 7                     ",
"                      `.B.7.1.<.) D > u f S H _ O.| ` J i : y f S H _ O._ J t > 8 s j C ) _ _ H D > : 8 t w                     ",
"                        o./ ( ( G v p p z v c b G ( ( n d p a a d z b b G c z p a a d z c b G b z 0 q q d 8                     ",
"                                                                                                                                ",
"                                                                                                                                ",
"                                                                                                                                ",
"                                                                                                                                ",
"                                                                                                                                ",
"                                                                                                                                ",
"                                                                                                                                ",
"                                                                                                                                "
};
