/* XPM */
static char *_0faeb1a292d4299b689ffd6000e4b1bNjXOjZv8etj0kxSj[] = {
/* columns rows colors chars-per-pixel */
"64 64 255 2 ",
"   c #0B7E3A",
".  c #187E39",
"X  c #327A37",
"o  c #585731",
"O  c #744729",
"+  c #446A33",
"@  c #557631",
"#  c #6D6F2D",
"$  c #68792B",
"%  c #733455",
"&  c #783554",
"*  c #6D3B60",
"=  c #197D4C",
"-  c #167866",
";  c #166B7C",
":  c #734A56",
">  c #666D4D",
",  c #525472",
"<  c #69586A",
"1  c #4F6A79",
"2  c #5C7B7C",
"3  c #6E666C",
"4  c #637A7A",
"5  c #AE0F1C",
"6  c #A8181D",
"7  c #B8191B",
"8  c #96231F",
"9  c #B62C1E",
"0  c #B2301E",
"q  c #9E1525",
"w  c #AA1422",
"e  c #A41D20",
"r  c #AB1D20",
"t  c #AD1428",
"y  c #B61623",
"u  c #B41D21",
"i  c #BA1E22",
"p  c #903429",
"a  c #A82323",
"s  c #B42123",
"d  c #BB2224",
"f  c #BA2729",
"g  c #B23129",
"h  c #A72735",
"j  c #C41A1A",
"k  c #C22D1E",
"l  c #C6371C",
"z  c #D6361B",
"x  c #C40F21",
"c  c #C31A23",
"v  c #C32425",
"b  c #CA2825",
"n  c #C2242A",
"m  c #C32B2B",
"M  c #D12829",
"N  c #C43129",
"B  c #B95C1B",
"V  c #8C751A",
"C  c #AF6F1A",
"Z  c #B36E1A",
"A  c #8D472B",
"S  c #B5512D",
"D  c #8C712A",
"F  c #B86D2C",
"G  c #AA663A",
"H  c #DC4E09",
"J  c #DD580C",
"K  c #CA4719",
"L  c #D44A15",
"P  c #CE5316",
"I  c #D35515",
"U  c #DA5416",
"Y  c #D45A15",
"T  c #DB5C13",
"R  c #E65C0B",
"E  c #E34D10",
"W  c #E35B12",
"Q  c #C46D19",
"!  c #DD6213",
"~  c #D76719",
"^  c #CD741B",
"/  c #DC7919",
"(  c #EB660B",
")  c #F46808",
"_  c #ED750E",
"`  c #F87809",
"'  c #E36511",
"]  c #E46B12",
"[  c #E96A12",
"{  c #F26910",
"}  c #E67314",
"|  c #E97513",
" . c #E57A16",
".. c #EA7B13",
"X. c #F57811",
"o. c #C54824",
"O. c #C65923",
"+. c #D25421",
"@. c #C76527",
"#. c #D36622",
"$. c #C8772E",
"%. c #D67825",
"&. c #8D3048",
"*. c #8B5951",
"=. c #91654F",
"-. c #1F882F",
";. c #0C873D",
":. c #1C8435",
">. c #14853B",
",. c #1C843A",
"<. c #148B3C",
"1. c #1D8B3B",
"2. c #1B933D",
"3. c #258B34",
"4. c #228539",
"5. c #238B3B",
"6. c #298E3B",
"7. c #378638",
"8. c #26953A",
"9. c #2D923C",
"0. c #33953D",
"q. c #38963A",
"w. c #3A9A3E",
"e. c #4B8534",
"r. c #469939",
"t. c #589934",
"y. c #659832",
"u. c #43A23C",
"i. c #1B894A",
"p. c #25854A",
"a. c #289741",
"s. c #359C41",
"d. c #248452",
"f. c #34A141",
"g. c #489543",
"h. c #5E915C",
"j. c #688678",
"k. c #798F73",
"l. c #B2A61E",
"z. c #8D9A2A",
"x. c #95A62C",
"c. c #97A930",
"v. c #ABAE2E",
"b. c #D68E1D",
"n. c #F8810C",
"m. c #E98517",
"M. c #E6981B",
"N. c #DCA91C",
"B. c #DCB21D",
"V. c #E9A81C",
"C. c #F4A61D",
"Z. c #E3B41D",
"A. c #EAB61A",
"S. c #E5BA1D",
"D. c #EABA1E",
"F. c #F4BA17",
"G. c #D68F28",
"H. c #E49925",
"J. c #C8AB28",
"K. c #D0AA2E",
"L. c #CBB726",
"P. c #D7BB2A",
"I. c #D9BA35",
"U. c #EAA825",
"Y. c #E9B725",
"T. c #ECBC21",
"R. c #EDB229",
"E. c #F3B823",
"W. c #EBC21B",
"Q. c #ECC11E",
"!. c #F7C418",
"~. c #FBC51D",
"^. c #FECA1C",
"/. c #FED61C",
"(. c #D9C231",
"). c #EDC322",
"_. c #ECC629",
"`. c #F4C424",
"'. c #F7C627",
"]. c #F4CB25",
"[. c #FDCB23",
"{. c #F5CC29",
"}. c #F5D424",
"|. c #FCD424",
" X c #F7D826",
".X c #FDDB25",
"XX c #F6D42C",
"oX c #FBD42A",
"OX c #F7DA2B",
"+X c #FBDC2A",
"@X c #EAC933",
"#X c #FEE326",
"$X c #FBE22B",
"%X c #959758",
"&X c #93905E",
"*X c #A2905A",
"=X c #9CA357",
"-X c #BEAD49",
";X c #BFB84F",
":X c #AAA455",
">X c #C6B449",
",X c #0C5994",
"<X c #13549D",
"1X c #1A599C",
"2X c #344D8C",
"3X c #275699",
"4X c #375795",
"5X c #0D6B8F",
"6X c #156A85",
"7X c #186A96",
"8X c #306897",
"9X c #3B7498",
"0X c #044DA8",
"qX c #0C54A5",
"wX c #0856AA",
"eX c #0C5AAC",
"rX c #1255A2",
"tX c #135AA5",
"yX c #195CA6",
"uX c #145DAA",
"iX c #0357B6",
"pX c #055AB4",
"aX c #0B5CB3",
"sX c #095EBA",
"dX c #1157B0",
"fX c #275BA4",
"gX c #1561AD",
"hX c #1C66A9",
"jX c #1B64AC",
"kX c #0C63B5",
"lX c #0A65BB",
"zX c #1563B2",
"xX c #1965B2",
"cX c #146BB4",
"vX c #1D6AB5",
"bX c #1667BB",
"nX c #1D6BBB",
"mX c #2667A8",
"MX c #2C71AE",
"NX c #226CB6",
"BX c #236DBA",
"VX c #454C83",
"CX c #44588C",
"ZX c #47658B",
"AX c #4C7789",
"SX c #48748F",
"DX c #557C86",
"FX c #035AC3",
"GX c #0564C5",
"HX c #156AC3",
"JX c #0F70CB",
"KX c #1772C2",
"LX c #236CC1",
"PX c #598388",
"IX c #618584",
/* pixels */
"U._.`.:XpXjXjXgXjXcXCX7 f s u f f u u f n o 2.4.q.Y._._.T._._.Y./ ! ~ ! ! ! ~ 9 u s 7 u s i + 1.4.:.4.6.4.:.4.3.= uXjXaX%X~._.T.",
"U. X#X:XiXBXBXtXzXKXCX7 b m r d N d r v M o 2.s.r.Y..X+XT.].$X{.~ [ m.! ! m.| f d N d s m b + 8.u.6.5.w.s.,.9.u.d.tXnXHX%X/.$X{.",
"N.S./.:X0XuXxXtXrXkX4X5 5 y w 6 y y e w x o <.6.q.B.Q.{.T.Z.].{.~ T } ! P ! ] g e d s 6 u c + 1.9.5.,.6.9.,.4.9.d.rXtXsX%X!. X X",
"R.D.^.:XpXtXgXzXtXaXZX~ @.#.#.@.@.+.l 0 z # <.>.q.).D.`.`.T.T.`.I l K U ! T ' N r u i u r 7 + <.,.5.,.,.1.5.,.:.d.uXtXsX=./ %.b.",
"U.XX.X:XpXNXvXuXxXHXDX/.$XOX]. X$X`.' ..X.$ 2.s.q.T.XX{.`.].OX`.f i f l ] ..] f d m i s m v + 8.w.5.5.w.0.,.9.w.d.uXvXKX* j f i ",
"b.}..X:X0XxXvXrXuXbXAXF. XXXZ.).OXY.P ] X.$ 1.w.r.B.|.OXD.D..X{.0 7 n l Y | } a u m s e v v X 8.w.5.,.w.w.,.6.w.d.rXzXbX* 7 v d ",
"U.Z.^.:X0XtXzXuXrXpXAXF.S.`.`.Z.).E.Y I { $ ;.,.q.Z.A.`.`.Z.Q.`.g 6 u l Y Y ' 9 e u i e r i + <.5.5.,.4.5.1.,.3.d.tXrXlX: 7 u d ",
"I.[.[.v.= d.d.d.d.d.g.[.`.`.`.`.{.E.] ] { $ <.6.p.9X9X9X9X9XSX9X4X4XfX3 ) ] ' k d d i d d i G.(.(.K.Q Q Q Q Q ^ G zXxXsX&XE.R.U.",
"K.|.+Xv.:.r.q.:.0.q.t.`.OXXXT.].OXR.Y | X.$ 2.r.p.wXbXnXeXaXHXbXwXcXJX, R m.} 9 d N s r m f M..X$XR.U X.X.W [ n.@.tXvXHX%X/.$XXX",
"J.W.|.v.  6.9.,.4.5.t.A.).{.D.S.}.E.Y ! { $ ;.8.i.<XuXxXuX<XgXxXrXtXlX< H ! ' 0 w d s e u i b.W.}.R.P ! [ Y Y ) F qXdXFX&XF.].{.",
"I.D.[.v.>.,.1.5.,.>.t.`.D.`.`.D.`.R.K K U D + + + gXtXgXzXtXtXzXgXtXpX3 ../ m.9 w u i u 6 7 H.Q.`.R.T Y ' ' Y R F 6X6X,X=X!.T.`.",
"I.|.oXv.<.w.6.1.9.a.t.`.XX{.`.{.+XU.u f f i c M h yXvXNXgXzXNXxXgXvXHXk./.+X{.0 i m i d m d H.XXXXR.' | } ' ] X.Q 3.0.5.c.[.XX`.",
"J.}.+Xv.>.w.0.,.9.s.t.D. XXXA.).$XU.e d m a r b h <XzXBXtXtXvXvX<XgXHXj.!.+X{.0 u m s 6 v f b.}.$XU.I _ ..Y ! X.Q ,.0.a.z.~.OX{.",
"K.A.[.v.  1.1.>.>.;.t.F.F.^.~.A.^.C.r e d u e 7 h rXwXaXaXqXwXkXwXwXFXj.!.).].0 q u i 6 7 7 M.W.^.C.U J ( ' I R Q ,.,.<.c.F.).`.",
"$... ./ C Z C Z C Z D SXAXAXDXAXPX4 d d d i d i f -X-X-X-X-X-X-XG G G $.m.m.m.T I W G 4X4X2XSXAXDXAXZXZXZXZXZXZX1 5.5.>.c.[.`._.",
"S ( ..W W X.X.W { ` G iXHXbXiXaXJXfXs v m u s m N F..X.X~.^.#X[.] ) n.R T ..] T } n.=.lXKXnXiXsXHXaXaXbXHXpXkXKXgX4.w.a.x.[.OX@X",
"S J ] ! P ' ] I Y ) G qXgXxXtXrXcX4Xr 7 c u 6 c N N.).{.T.Z.].{.~ T ] ! P ' ] I Y ) =.pXkXbXwXwXsXaX0XpXlXwXwXsXuX. 6.5.x.~. X@X",
"@.T ! ] T Y ' ' Y R G eXtXgXgXtXeX3Xp p p p p p A T.A.`.`.D.D.`.} I ! ] T Y ' ' Y ( G 2X2X2XSX1 AXAXAXAXAXAXAXAXAX,.,.>.x.C.V.U.",
"Q [ } ' ' | ] ' ] ` G kXvXxXgXxXBX7X1.9.8.1.8.a.0.).oX{.`.].XX`.} ] } ' ' | ' ' ] ..L 7 v i M..X|.^.[.|.[.~.[.|.P.4.9.2.V { } ' ",
"B [ ..! Y ..| I ' ` G wXvXNXtXuXBX7X,.q.w.,.6.s.q.B. XOXT.).+X{.Y ] ..! Y ..} I ' m.I w v n b.}.+X`.S. XXXA.).$XP.4.w.a.D W ..] ",
"B L T ' P I ' T Y ) G pXpXlXkXwXlXcX,.4.6.,.,.1.q.B.D.].`.Z.).`.' H ) ( U W { W U { E 5 7 x H.S.`.`.Z.S.].).Z.[.P.<.<.i.D U T ' ",
"J.U.U.U.U.U.U.+.9 l g & & & & & &.: 5.5.1.5.5.,.7.).`.`.`.`.`._.4 , ZX> $ $ $ $ $ $ $ o o o J.].`.`.`.).`.`.`.`.Y.A A A B ' ! ' ",
"L..XOX].].$XOXS y m i 7 b b 7 j M 0 4.s.w.,.6.s.q.Y.XXXXT.`.+X@XmXGXJX5X2.s.a.;.8.s.<.2.f.a.v.|.OX`.).OXXXT.].$XU.7 b M K ] m.] ",
"l.`.XX`.Z.}.XXS 6 d d e d d r r c g . 9.0.,.4.9.q.N.].XXT.Z.}.@X8XeXbX6X3.0.9.,.6.w.4.,.9.8.l.^..X[.A.}.oXD.D..XR.e u d K Y ] ] ",
"L.A.`.`.D.D.[.o.6 7 i r r i i e 7 a 4.,.1.5.,.>.0.Y.A.`.`.Z.D._.8XqXaX6X:.,.5.5.,.,.5.,.,.,.c.K.K.I.L.J.P.P.J.L.K.s e u L Y T ' ",
"L.oX{.`.`.XX{.o.i m i i m d i d n a 4.9.6.1.6.9.q.).oX{.`.].oX_.mXbXnX; 3.0.6.5.9.9.5.6.0.6.7XxXnX7X3.0.6.5.9.0.+ d n d K } } ' ",
"l.|.OX).S.+XOXS y m f 6 v m r s b g 4.w.w.,.6.w.q.B. XOXT.).+X@X8XkXLX6X3.r.0.,.0.w.4.4.w.w.6XdXLX7X:.w.w.>.6.w.+ a v m l ! ..] ",
"J.Q.].{.S.).XXS q u u e w i w q y a . 5.6.,.,.5.q.B.Q. X].S.}.XX8XqXzX6X  >.<.  >.<.>.  <.<.,X0XiX,X,.4.6.,.,.5.+ w 5 5 l Y ! ] ",
"b.m.m.m.m.m.m.T K K L L K K #.G.%.F 5.1.1.5.4.1.7.@.O.#.#.#.#.@.mXeXsXj.v.c.c.v.c.c.v.c.c.v.=X%X=Xk.1.,.1.5.1.<.e.G.G.G.} ! ! ' ",
"B [ | T T | ] ! } m.] ! ..| V.+X$X(.5.w.w.,.6.s.7.w i f y y n f 3XcXHXk./.+X|.~.|..X[.[.+XoX^./.#XL.,.w.0.,.9.s.r.].$X$Xm.T ..] ",
"B ( _ ' U _ _ U ' _ ' P ' ] M.)..XP.<.8.9.:.3.0.7.8 i f s r v f 3XgXlXj.!. XoXZ.).OX`.S. XXXS.)..Xv.  9.9.:.3.9.r.Z./..Xm.J _ ( ",
"F S O.#.O.B #.@.S O.~ ~ ~ ] V.S.~.P.7.X 7.p.= i.X a 6 u i r 7 s 3XqXiXj.F.Z.E.T.N.Y.E.V.N.R.Y.N.E.J.6.7.0.p.= i.g.P.K.@XG.S O.#.",
"4XmXmXhXmXmXmXhXmXxXAX~.{.`.`.{.{.E.~ ~ [ 3 kXvXmXf v d i d v f fXcXlX3 ) } ] ' } } I d N f f N m o._._.].IXaXvXhXmXMXMXhXmXmXhX",
"3XkXBXgXeXnXnXqXzXHXSXW.+XXXD.].$XR.T _ ` < sXnXmXa v m r s b g 3XzXKX< R ..} I ' m.P w n m 6 u n o.Q.+X.X4 iXBXxXqXbXnXeXuXnXzX",
"3XqXgXgX<XuXzXtXrXaXSXF.~.|.~.F.|.E.U W ) < wXgXfXq 5 y w q 5 t <XiXFX, J ! ] Y I ] I e r d r e y o.S.Q.|.2 0XgXjXrXtXzXuX<XuXzX",
"3XuXgXzXgXuXzXzXuXaX8Xx.z.x.c.z.x.x.D # V 1 aXeXmX$.^ %.%.%.%.%.&X&Xk.*XR T ' ' T ' I u s i i s y o.].T.^.IXiXuXgXgXuXgXzXuXuXzX",
"3XcXBXgXgXBXvXuXxXBX7X>.a.1.;.1.a.<.<.a.8.; zXnX9X_.$XOX{. X$X X^..X#XC.T ..} T ] m.I u m m 7 d n o.].OX.X2 sXBXjXuXNXNXuXjXBXxX",
"3XaXvXuXqXzXvXqXuXnX7X4.q.0.,.6.w.6.,.0.q.; aXbXMXB.}.XXT.S. X{.Z.].+XH.P } } P ! ..I e v v r u c o.S. X.X2 iXvXgXrXzXnXtXqXzXzX",
"4X1XhXjX1XyXjXyX<XuX7X:.,.5.1.,.4.5.,.,.3.; rXqX8XY.Z.`.`.Z.D.`.T.Z.].U.I Y ' ! P ' I e e s s 8 w o.D.Z.^.4 0XtXuX<X<XuXjX1XyXjX",
"K.(.I.I.I.(.(.S h h p 1.6.5.1.6.6.5.5.6.2.O h h g `.{.`.`.].{.`.`.{.{.H.' ] ' ' ] { C X 7.X X 7.X y.[.{.|.S h h h h h h $.@XI.I.",
"V..X+X~.Q.#X.Xo.7 M p 1.w.w.,.9.g.6.4.w.f.O j b N Z.OXXXT.).+X{.D. X$XH.I ..} Y ] X.C <.f.0.>.8.s.t.T.OXOXO.7 b v 7 v n / /.#X[.",
"N.Q.{.`.Z.).oXS 6 c p ;.2.2.;.<.2.<.:.3.8.O 7 j l A.^./.~.S.}.|.S.).OXM.H ( ) R R ) Z >.6.6.,.4.1.t.F.^./.O.6 d d e r y ^ W.].`.",
"Y.D.`.`.T.T.[.o.w i 0 $ $ $ $ $ $ $ - - - , % * : %X%X%XK.M.M.M.V.M.C.G.: *.=.=.*.=.> 1.,.1.5.,.>.s.%X%X=XS 7 u i u r y b.].T.`.",
"P.oXXX`.`.XXXXo.i m k ( X.{ R { ` @.dXnXBXkXlXKXlXiXlXGX< ) | ' T ] ` *.GXHXlXpXlXJX5X3.w.9.,.9.w.= iXHXGX& j m d u m i %. XXX`.",
"J.].OX).S. X+XS w n N Y } | I T X.@.<XzXNXtXtXvXxX<XzXHX< R | ] P ' ` =.wXvXvXrXuXnX6X3.w.0.. 6.q.d.tXxXbX% 7 m d e d i ^ ].OX[.",
"L.Z.).`.Z.S.{.o.6 u k Y I ' ' P R @.tXqXgXgX<XtXzXtX<XlX3 J T [ T P ) =.wXtXzXuX<XdX6X,.4.5.1.,.3.d.tXrXlX& 6 u i r 6 y %.S.T.`.",
" . . .}  . . .l i d k ] ] ' ' ] ( @.zXzXzXzXzXxXgXzXxXlX3 ) ] ' ' ' ) =.lXxXgXgXjXsXDX(.P.P.P.P.(.:XzXxXlX&.j d i i d c # r.r.r.",
"T ] ..T Y ..| 9 i m N T ....T ' n.@.tXvXBXuXgXBXxXtXvXKX< ( m.} Y } n.=.pXBXNXtXjXHXDX^.+XoXF.|.#X>XeXvXnX% j N d r m M o 2.s.1.",
"Y Y ] ! P ! [ 0 e i N P ! ] Y I ( @.0XiXsXiX0XpXsXwXkXGX3 R ] } Y ! ` =.wXgXxXrXtXsXPX!.}.OXQ.W./.>XqXuXbX& 7 c c 6 w x o ;.5.<.",
"' Y T ' ! Y ' k w u k ! Y ' ' Y W #.2 2 DXPX2 DXDXVX, 2X*.L K I I K E *.pXtXgXgXtXpXDXm.b.H.H.b.m.*XeXtXkX: p p A O.S +.D t.y.y.",
"' ] | ' ' ..} k d m k ' | } ' ] | } ^..X|.^.|..XE.k v b 7 i m i u d b & lXNXxXgXxXKXVX7 d i y i v &.kXvXnX- 8.a.r.{..XXX[.[.oX[.",
"I ' ..! I ..| 0 u n f Y | ..Y ! |  .Z. XXXD.).$XY.a i m u r v d 6 i b & pXvXvXrXgXKXVX7 v m e u b &.qXvXnX- 3.s.r.Z. XXXT.).OX{.",
"W I ( [ P Y ' 9 q y k Y Y ' ! P T } Z.S.`.`.Z.).E.9 6 7 7 6 7 j r e j % iXwXkXeXqXlXVX7 6 d s e 7 &.qXtXzX- :.<.r.Z.S.`.`.Z.).`.",
"e.@ @ z.E.R.R.U.H.U.H.' ' ' ' ' ' } `.`.`.`.`.[.I.CX4XCXCX4X4XCXG.U.H.K.-X-X-X-X-X;XG.y d d i d j &.zXjXkX> Z Z Z `.`.`.`.`.`.`.",
"<.8.a.t.[.$XXX). X$XR.Y ....T ] .. .T.OXXXT.].+XI.gXbXKXkXkXKXBXI.#X$X~.^.#X.X!./.#XH.w m m r d M &.eXvXHX=.) X.| T.OXXXT.].OX].",
",.4.6.y.F.}.XXS.Q.OXR.K T ] J J ) _ B.).XXT.S.|.I.1XeXxXuXrXzXmXK.!.XXT.Z.].{.Z.D. XG.q s d r 6 j &.wXpXGX*.R ]  .S.}.OX).W. X|.",
"1.,.>.y.V.V.R.V.N.V.U./ ~  .$.G G $.T.A.`.`.D.F.I.hXqXuXzXtXeXjXI.D.`.`.D.D.`.`.Z.].H.w 6 7 i r 7 h SXZX9XG J T } H.b.H.U.b.H.U.",
"5.9.a.@ ( } ' ! ] ]  .].XX|.PXsXHX9X`.oX{.`.{.oXI.hXxXvXgXgXnXmXI.|.{.`.].XX{.`.{.OXH.y m d 7 d d o.[.oXoXm.' ..T u d d u d m h ",
",.0.s.@ U ..| I ! .. .S. X.X4 iXbX9XZ. XXXT.).#XI.1XzXBXtXtXnXMXK..XOXT.D.+X{.Z.].$XG.w v m r s n o.D..XOX%.T m.! r d m r u v f ",
",.4.1.$ U Y ] T P T  .Z.D.^.4 0XpX9XZ.D.].`.Z.~.I.1XqXgXgX<XeXhXK.F.[.^.F.!.^.!.F./.M.5 7 j 7 6 7 K S.D.{.m.P ! W a r d u e 7 f ",
"5.5.<.$ ( ! ' ] ! W  .].`.^.IXpXaX9X`.`.`.`.`.[.I.hXuXgXzXgXgXjXy.y.y.h.DX4 j.j.j.j.2 VXVXVXVXVXVX3 [.`.].m.T ' T d s i i s s s ",
",.w.s.@ W ..} T ' .. .).OX.X4 sXKX9XT.OXXXT.].+XI.yXvXBXuXgXBXvX= 8.9.- iXHXbXiXsXHXpXkXKXKXkXlXJXSX~.OXXX/ ! m.! s m m u s m f ",
",.9.a.@ W [ | T ! [ ..D. X.X4 iXbX9XS..X.XT.D..X@X1XzXnXuXtXbXvXi.9.q.- dXvXnXtXuXnXxXtXzXnXtXuXHXSXF.|.+X%.U | ' a i v s s v f ",
",.. >.@ U P ! ! P Y / Z.B.!.2 0XwX8XY.B.T.).B.D.I.1X<XtXuX<XtXgX= . -.- rX<XuXtX<XtXgXrX<XuXuX<XwXAXA.B.).m.K T T a e 7 u e 6 a "
};
