/* XPM */
static char *_956b58d528e4c60859c2f1a683a7cebOsD5dSglSWUTSFoZ[] = {
/* columns rows colors chars-per-pixel */
"64 65 255 2 ",
"   c None",
".  c #8A1D05",
"X  c #A51C00",
"o  c #8E2B0A",
"O  c #8B2408",
"+  c #942B0A",
"@  c #9A2D0A",
"#  c #942808",
"$  c #95320A",
"%  c #9C330B",
"&  c #9C3B0B",
"*  c #983608",
"=  c #9A380E",
"-  c #AD2601",
";  c #B72900",
":  c #A33B0C",
">  c #A4360A",
",  c #B2380C",
"<  c #C43900",
"1  c #9F420B",
"2  c #A4440C",
"3  c #AC440C",
"4  c #A64A0C",
"5  c #AB4C0D",
"6  c #AD4502",
"7  c #B24B0D",
"8  c #B74807",
"9  c #AD520D",
"0  c #AC580D",
"q  c #B2540E",
"w  c #B35B0D",
"e  c #BA5C0E",
"r  c #BB540E",
"t  c #AA4912",
"y  c #B24D11",
"u  c #B94C15",
"i  c #B45311",
"p  c #B55C12",
"a  c #BA5C13",
"s  c #B85915",
"d  c #AD5211",
"f  c #B6620D",
"g  c #BA640D",
"h  c #BC6B0D",
"j  c #BD720E",
"k  c #BE7A0E",
"l  c #BC6313",
"z  c #BC6B11",
"x  c #B96516",
"c  c #BE7512",
"v  c #B25431",
"b  c #BD6E35",
"n  c #C64B02",
"m  c #C75903",
"M  c #C35F14",
"N  c #C54816",
"B  c #C36C0F",
"V  c #C86608",
"C  c #C2740D",
"Z  c #C57C0E",
"A  c #CB780C",
"S  c #D47B05",
"D  c #C26413",
"F  c #C36C13",
"G  c #CB6913",
"H  c #C37513",
"J  c #CB7312",
"K  c #C47B13",
"L  c #CB7C13",
"P  c #CA7B1A",
"I  c #C4751B",
"U  c #D27D12",
"Y  c #D37819",
"T  c #D26D08",
"R  c #CC712D",
"E  c #B17D61",
"W  c #CA830D",
"Q  c #CD8C0D",
"!  c #C7840B",
"~  c #D48909",
"^  c #CE930D",
"/  c #D2940D",
"(  c #D49B0C",
")  c #D99D0C",
"_  c #D89704",
"`  c #C68313",
"'  c #CB8314",
"]  c #CC8B12",
"[  c #CD831A",
"{  c #CB8918",
"}  c #D28314",
"|  c #D38C14",
" . c #DB8D14",
".. c #D28B1B",
"X. c #D58516",
"o. c #CE9212",
"O. c #CE921C",
"+. c #D29413",
"@. c #DA9415",
"#. c #D49C13",
"$. c #DA9C14",
"%. c #D3941A",
"&. c #D59C1B",
"*. c #D99C1B",
"=. c #DA941A",
"-. c #E29B17",
";. c #E08F13",
":. c #D6A30E",
">. c #DBA30D",
",. c #DDAA0E",
"<. c #D9A60B",
"1. c #D6A214",
"2. c #DBA413",
"3. c #DCAB15",
"4. c #D6A31A",
"5. c #DAA41A",
"6. c #DDAC1A",
"7. c #D6AA16",
"8. c #DEB21C",
"9. c #DEB115",
"0. c #E2A907",
"q. c #ECB809",
"w. c #E2AC14",
"e. c #E2AD1B",
"r. c #E5A316",
"t. c #E3B215",
"y. c #EDBB14",
"u. c #E2B41B",
"i. c #E4BB1D",
"p. c #EAB717",
"a. c #F2BD19",
"s. c #F1BB0D",
"d. c #D48923",
"f. c #D89724",
"g. c #CF8233",
"h. c #DCA422",
"j. c #DDAB22",
"k. c #DEAA29",
"l. c #DEB222",
"z. c #DEB42B",
"x. c #DEB036",
"c. c #E2AD22",
"v. c #E1AB26",
"b. c #E2B423",
"n. c #E4BB23",
"m. c #E9BD24",
"M. c #E2B52B",
"N. c #E5BC2C",
"B. c #E9BE29",
"V. c #E4BC32",
"C. c #E3BC3C",
"Z. c #E6B735",
"A. c #E3AE3C",
"S. c #E09F3E",
"D. c #ECC40A",
"F. c #F2C80B",
"G. c #EDC21D",
"H. c #ECC418",
"J. c #F0C418",
"K. c #F5D419",
"L. c #F5D20C",
"P. c #E6C223",
"I. c #EAC323",
"U. c #EAC42B",
"Y. c #EAC829",
"T. c #F2C523",
"R. c #F3CB26",
"E. c #F3C829",
"W. c #EDD82B",
"Q. c #F4D729",
"!. c #E6C234",
"~. c #EAC533",
"^. c #E6C33B",
"/. c #E9C53B",
"(. c #EACA3C",
"). c #ECCA32",
"_. c #F1CC37",
"`. c #EDD535",
"'. c #F4D937",
"]. c #FAE234",
"[. c #CE8E49",
"{. c #DBAC56",
"}. c #E4B850",
"|. c #C3966A",
" X c #D0B173",
".X c #E1B670",
"XX c #E0924C",
"oX c #E6C442",
"OX c #ECCC44",
"+X c #EBCD4B",
"@X c #E7C749",
"#X c #EDD14C",
"$X c #EDD545",
"%X c #F5DB4C",
"&X c #F3D747",
"*X c #E7CB53",
"=X c #E9CA58",
"-X c #EDD254",
";X c #EED35A",
":X c #EED95C",
">X c #F3DB5B",
",X c #F4D955",
"<X c #F1CD49",
"1X c #F9E54C",
"2X c #F6E254",
"3X c #F9E659",
"4X c #D9C67A",
"5X c #EBCA69",
"6X c #EDD566",
"7X c #F3DB6A",
"8X c #E3CB77",
"9X c #EBD373",
"0X c #EBD778",
"qX c #F2DB74",
"wX c #F4DD7A",
"eX c #F3D678",
"rX c #F9E667",
"tX c #F4E373",
"yX c #F5E37B",
"uX c #FAE57B",
"iX c #FBEA7B",
"pX c #F9E875",
"aX c #FCF27B",
"sX c #FDF678",
"dX c #FEF268",
"fX c #D9CB82",
"gX c #EBD783",
"hX c #F2DA82",
"jX c #F5E583",
"kX c #FBEB83",
"lX c #FAED8C",
"zX c #F5E787",
"xX c #FCF384",
"cX c #FEFB84",
"vX c #FBF38B",
"bX c #FEFD8C",
"nX c #F7F083",
"mX c #F5EB93",
"MX c #FAEE93",
"NX c #F6EC9A",
"BX c #FBF394",
"VX c #FEFC94",
"CX c #FBF39B",
"ZX c #FEFC9C",
"AX c #F6F19A",
"SX c #EDE283",
"DX c #F7EEA3",
"FX c #FBF5A2",
"GX c #FEFDA5",
"HX c #FDFBAA",
"JX c #F8F4A6",
"KX c #FDFDB3",
"LX c #F8F8B7",
"PX c #FCFCCC",
"IX c #FBF9E3",
/* pixels */
"            JXDXCXCXDX                    LXJXNXNXFXJX                  LXAXBXAXCXJX                    FXMXMXBXAX              ",
"        LXZXbXVXVXVXZXGXGX              GXVXbXvXVXVXGXZX              KXZXcXcXvXbXGXGX              LXZXcXxXcXcXbXGXZX          ",
"        HXGXbXcXbXbXVXVXqX            LXGXVXcXcXbXbXVXrX{.          LXKXVXcXcXbXbXVXiX{.            LXGXsXsXcXcXbXcX}.          ",
"    JXVXvXBXCXvXdX3X+XS.R g.0XBXlXBXBXxXxXBXBXaXrX#XA.Y R 5XMXzXzXkXsXcXBXBXaX3X#XC.Y M .XzXkXjXkXiXsXBXBXaXrX2X@Xf.M XXGX      ",
"  DXKXbXdX3XpXrX).-.T , ; R gXlXkXvXcX3X].rXtX&Xu.U n ; R 8XzXkXkXxX1X].2XrX$Xe.S n ; N .XjXiXkXxX3X].2XtX>XB.@.m ; ; XXVXzX    ",
"  CXGXxX1XQ.K.D._ V < ; ; b  X4X9XyXpX1XK.L.J.0.S n < ; v |.4X8X0XwX&XL.L.D.0.S n < ; , |.4X9XqXtX,XK.L.L.q.~ m ; ; - R hXgX    ",
"  CXGXiX'.K.K.D._ m n ; - b .X0XqXyXtX_.F.F.D.0.S n < - v  X8X9XqXtXOXD.F.D.0.S n < ; , |.8X0XqXtX#XH.L.F.0.~ m < - X b eXjX    ",
"  MXGXaX`.K.Q.U.h.X.Y V V S.tXkXuXkXpX_.J.G.U.v.f.Y V m d.9XjXtXpXiXOXq.D.I.v.d.Y G m U =XjXuXuXiX%Xq.D.G.M.f.Y G m m S.xXvX    ",
"  CXGXiX>X>XtXyXwXeX7X*XN.<XiXxXiXkXiX>X-X7XtXwXwX7X=XZ./.tXkXuXiXiX%X(.>XyXwXeX7X6X}.Z.7XkXkXuXiX,X).-X7XwXeX7X6X@XZ.<XcXvX0X  ",
"  CXZXBXNXMXlXBXVXZXGXZXpX>XpXkXkXiXkXMXBXlXlXBXZXZXZXiX6XtXlXuXiXpXkXMXMXMXCXVXZXZXVXtX7XjXkXuXuXyXzXMXMXMXBXVXVXVXpX7XaXxXqX  ",
"  GXZXBXHXJXCXBXvXcXbXyX}.}.wXkXkXuXkXCXGXCXBXvXcXcXaX}.{.eXlXuXuXtXCXKXHXFXBXvXcXcX5X{.5XjXzXyXyXMXKXHXCXBXvXcXcXyX{.}.iXkX0X  ",
"  GXGXxXsXBXJXBXrX%XoXd.r [.8XSX0XyXuXdXaXCXCXiX2X<Xf.8 R .XgX0XwXtXdXaXFXJXvXrX,XA.D u {.gXgX0XyXiXsXBXFXBXdX2XoXg.8 g.eXjX8X  ",
"  GXGXaX1X1XrX:XN.~ m ; - R  XfX8XwXiX1X'.%X:X/.$.V , X v  XfX8X0XyX1X].2XrX#Xu.S 8 - , |. X4X9XyXrX].1XrX>XB. .m - - R  XgX4X  ",
"  HXGXkX1X'.Q.G.) V n ; - v  XfX0XjXuX%XQ.Q.G.,.S n ; X v |.fX0XjXkX2XQ.Q.Q.t._ V < - > E  X8XwXjXrXQ.Q.Q.G.) T 8 - X v  XzX8X  ",
"  KXKXuX&XQ.Q.p._ V m 8 7 [.gXlXzXlXkX&XR.K.H.) S m 8 6 b 8XmXzXlXMX>XQ.Q.J.,.~ V n 8 p  XzXlXlXlXrXQ.Q.R.p._ V n 8 6 [.gXZXzX  ",
"IXPXPXvX1X'.'.R.t.2.$._ <.<XBXGXBXCXBX3X'.Q.R.p.0.>.) _ /.MXHXCXFXFXrX'.'.'.G.t.>.) _ 8.jXHXGXCXCXiX'.'.'.Y.i.2.$.( :.#XVXKXCX  ",
"PXLXKXlXrX2X2X&X'.`.`.W.W.rXBXCXBXCXBXpX2X1X1X`.`.W.W.W.2XBXJXCXBXBXpX2X2X2X'.`.W.W.W.1XxXCXCXCXCXkX3X3X2X&X`.`.`.W.W.3XBXGXBX  ",
"mX7X>X-X#XOX(./././.(.(.OX@X=X=X=X;X=X-XOX(./.!.!.!.^.oX@X=X=X=X-X*X*X@XoX!.!.!.!.^.(.OX@X*X*X=X*X@X@XOX^.V.N.V.V.~.!.oX*X>X@X  ",
";XT.y.u.t.t.u.V.V.b.6.6.6.6.7.7.7.3.3.3.,.3.M.V.M.4.&.5.7.1.:.1.<.<.3.,.,.l.V.M.6.$.5.6.2.:.:.<.<.3.3.3.6.M.b.e.$.$.5.2.( 0.0.  ",
";XR.J.i.t.V.9XAXvX>Xv.] &.8.8.8.8.8.9.t.8.-XzXlX7XZ.%.o.7.7.7.7.7.7.3.u.OXyXlXtXOX*.] 1.3.7.7.7.7.3.3.V.7XkXrX<Xh.' +.2.2.p.r.  ",
";XR.J.t.!.SXJXzX6X>X/.%.F %.8.8.8.8.t.i.7XJXmX6X;XOXh.H K 4.6.6.6.9.9.+XBXmX7X-X$XN.K z o.6.9.7.3.,.V.zXCXwX;X#XV.' g L 2.p.r.  ",
";XR.J.i.7XDX6XN.b.n.Y.b.z l O.8.8.9.t.(.AXSXC.l.b.U.U.P q c 4.6.7.9.N.jXMXoXl.u.m.U.f.i g +.7.7.<.8.6XAX;Xb.8.n.I.j.i 5 ! p.r.  ",
":XR.D.U.tXqX8.w.t.t.I.U.P 2 z &.6.3.u.:XzXoX<.t.t.u.Y.f.y 5 { 1.7.,.OXjX6X3.3.t.u.I.v.s 2 c #.1.:.M.yXqXb.<.3.9.i.B.x % w r.-.  ",
">XR.s.~.>XOX9.u.n.n.P.I...: d ` #.:.u.-X6XN.9.n.u.i.P.h.i & j o.#.:.OX7X^.u.u.n.u.I.b.x $ w ` #.( M.tX@Xu.t.u.u.i.m.I o 1  .@.  ",
":XR.s.m.OX(.i.u.u.u.I.m.P % 4 c o.#.3.!.#X!.8.u.u.i.I.f.: $ f ` ^ :.z.#X(.8.8.u.i.R.h.d + 9 k ] ^ j.-XOXb.u.u.u.G.b.s O * L X.  ",
";XE.J.u.B.~.n.i.i.i.I.v.y @ 4 c ] #.2.6.~.!.n.n.i.P.b.l + * f Z ^ ( 1.V.(.l.i.i.G.m.P @ o 9 j W ^ #.M./.m.u.u.i.m...= . & J U   ",
":XR.H.u.u.u.c.b.n.n.*.a @ & p K ] #.2.3.6.l.b.b.n.j.F % + 4 g Z Q ( :.2.6.l.l.n.b.[ : O & w j W o.( ( 5.j.j.u.i.%.t O $ 9 J U   ",
":XE.J.i.u.u.5.%.[ F 7 > : w j ` o.1.7.3.3.2.*...I i > % 4 f j ! o.#.>.:.1.$.| ' D : % 2 w h K ] o.( ( ( @...' F 5 @ % 5 g U }   ",
";XE.a.u.u.u.u.5.X.F e w z H ] o.#.7.6.6.8.3.2.| H e w l z H W Q #.1.2.3.3.2.@.U B e g z H ` ] +.#.#.1.>.$.| L B e e g B Z  . .  ",
";XE.a.u.u.u.p.i.u.2.@.&.%.%.&.1.2.7.6.8.u.t.t.w.2.@.&.%.o.] +.#.1.2.6.3.w.t.t.r.$.@.&.%.%.+.#.#.1.2.2.,.w.w.r.$.@.@.+.+.+.r.@.  ",
";XE.J.u.p.i.(.%X&XE.e.$.5.6.6.6.6.6.8.u.u.~.#X%X_.e.*.4.5.4.1.1.2.6.3.3.b.OX&X_.e.$.#.5.5.1.1.1.2.2.3.e.!.OX_.m.$.@.2.2.2.r.-.  ",
";XE.J.t.i.-XvXVXiX,XM.} X.h.8.8.6.8.u.u.(.nXZXvXrX~.| L %.6.6.7.7.7.3.n.6XBXvXrX~.@.H { 4.5.2.2.2.:.6.+XnXvXrX_.5.L ' @.2.p.r.  ",
";XR.J.i.#XFXFX9X*X#X(.f.M H 4.8.6.8.u.!.nXJXhX*X+X$Xb.D l O.6.7.7.3.u.:XHXmX=X@X$XN.H 0 K &.5.2.:.2.oXAXNX6XoX`.!.' q z @.p.r.  ",
";XR.D.I.yXDX@Xl.8.n.Y.N.F 5 c 4.6.3.u.#XAX9Xl.8.l.n.Y...5 l %.7.7.,.!.lXmXC.6.8.n.).f.5 9 ` #.1.) l.wXNX@X6.6.u.U.b.s 2 j r.-.  ",
":XR.s.).tX6X6.3.u.u.I.U.d.> 9 ` #.:.8.:XSXC.,.u.u.u.Y.h.y : H o.1.2.@XjX=X7.9.u.u.Y.z.a : g ] +.( Z.zX6X6.,.3.8.i.U.I $ 4  .=.  ",
";XR.s.~.>X^.8.u.n.n.P.U...> : z { ^ 2.#X;XV.8.n.b.n.P.h.y @ w ` o.( oX6X^.8.l.n.b.I.b.x $ 9 C Q Q z.qXoXu.6.u.8.i.P.P o * J U   ",
"-XT.y.n.OX(.u.u.b.i.P.B.P % & l K Q #.N.OXN.8.l.l.n.U.%.: + 9 c ` ^ z.#X(.8.l.8.i.Y.h.t + 4 h Z ! &.@X(.b.6.8.8.G.n.x O o D J   ",
"+XI.y.u.B.~.n.i.m.I.Y.h.y + : l K ] #.5.N.N.n.n.n.P.b.D @ $ 9 z ` ^ #.N.~.l.n.n.P.m.I @ o 2 f C ! Q h.V.n.u.i.G.I.f.& . $ e F   ",
"+XT.a.u.u.b.b.b.n.m.h.a # @ 4 g K ] #.1.5.c.b.b.n.j.I % # & 0 h ! o.( 1.6.l.l.b.b.[ : O * 5 f C W Q / 4.j.c.u.b.%.t O O & e D   ",
"#XI.y.u.u.e.5.%.[ F 7 @ @ 2 p j ` o.1.2.2.4.%.{ P p > @ & 9 l c ` o.#.1.1.%.{ P a > @ & 4 w h H W ^ ^ +.%.] ' F 2 + + & 4 D F   ",
"-XT.y.u.u.u.e.$.L l 7 5 i l H K ] #.7.5.6.6.$.] F r 5 q p z H ` ] #.#.1.2.$.| J e 7 q p l z Z W Q ^ #.( ( ] H e 5 4 5 0 w J J   ",
"#XT.y.u.u.u.t.w.2.+.....{ ' ] o.#.1.7.6.e.w.w.2.+.| [ { ' ' { o.#.#.2.2.3.,.2.$.| | { L L ` ] o.+.#.#.>.>.) / ' L L H H H X.X.  ",
"+XI.y.u.t.u.~.#X%XU.r.@.*.4.*.4.7.5.6.3.3.b.OX%X).w.| %.&.&.#.#.1.2.7.3.u.(.&X_.e.+.%.*.@.+.+.#.#.2.1.>.N._._.c.| } | | | -.@.  ",
"+XI.y.t.i.+XnXBXiX%Xc.} } *.6.6.6.6.3.3.N.qXCXxX2XN.| L %.7.7.5.7.7.3.b.:XBXxX3XB.| H { &.#.#.#.2.1.3.^.iXxXrX(.*.C L | @.r.@.  ",
"+XI.y.t.OXAXAXqX-X$X~.| e K &.6.6.6.3.b.tXDXhX=X+XOXj.F l { 5.5.5.7.3.-XFXmX6X+X`.l.F i ` &.2.1.1.2.C.mXNX6X@X(.N.L r B | r.-.  ",
"+XT.s.m.tXDX@X8.3.u.U.b.F 7 H &.7.2.3.OXBX9Xk.3.8.n.)...7 p %.4.2.:.N.zXmXx.2.3.n.Y.f.7 q ` &.#.( 6.qXDX*X2.2.8.P.v.a 2 F -.@.  ",
"+XT.q.~.tX6X8.3.u.u.P.I.[ : q ` +.1.6.;XyXC.,.8.8.u.Y.h.i : H %.#.:.oXyX=X2.3.3.8.Y.v.a : g ] +./ z.yXqXv.>.3.3.i.N.I $ 4  .@.  ",
"+XT.s.U.>XOXu.u.i.u.m.I...: : l ' +.7.+X;XN.3.b.u.u.P.v.s @ w K o.( C.:X!.3.8.u.8.P.b.x @ 9 K ] Q k.7XOXe.3.6.6.i.m.P o $ J }   ",
"#XT.s.m.(.(.u.u.u.u.P.B.P % % p H Q #.M.OXN.8.u.8.n.Y.f.t + 5 z ` o.h.!.~.8.8.8.8.Y.j.y o 2 h Z ! &.C.~.u.3.6.6.i.b.x O o a G   ",
"+XT.y.t.n.!.n.i.i.I.I.*.t + & q z ` +.2.b.N.n.m.P.I.b.x + + 4 f K Q o.5.b.b.n.i.P.n.I + + 2 f C ! Q $.b.b.u.u.G.m.d.: . o q D   ",
"+XG.y.w.e.e.j.j.u.u...i # @ 2 w z ` o.#.$.5.j.j.b.*.x @ O & 5 f j W Q / &.5.j.j.h.I % O * 5 f j Z Q Q +.&.h.6.6.{ 2 O O = r M   ",
"#XG.y.t.e.w.@...L D 3 @ > 2 q l H ` o.#.) #.] L F i % @ : 5 w h C ] o.( +...L H i % + & 4 q g C Z Q / / ] K I l 2 + $ & 2 e D   ",
"#XG.y.t.t.w.w.$.U D i i p l z H ` ] +.#.1.2.$.} B r i i p l z H ` ] +.#.$.&.| H a i i p g h C Z ` Q +.( ( W B e 7 5 5 9 w G G   ",
"+Xa.y.t.t.t.t.e.5.X.[ [ ' K ' ' ] o.#.1.2.>.2.$.@.} [ ' K K K ` ] +.#.#.1.$.$.+.X.} ' L H H Z W Q +.#.) ) / | } L H B h B U J   ",
"+XG.y.t.t.t.~.%X&Xc.} L %.@.%.+.+.&.#.1.>.b.OX%XU.@.L ..%.] ] ] +.+.$.) 5.V.OX).-.U ' %.| ] Q Q / #.( #.l.).E.r.U J ' ' L X.U   ",
"OXa.y.t.i.#XnXxXrX_.=.V F %.*.#.#.2.1.1.V.tXBXaX2XM.L l [ +.+.+.+.#.) 6.=XxXsX1XB.} a H | +.+.+.#.( #.C.tXsX1XU.| e D L | ;.X.  ",
"+Xa.s.t.OXBXmX6XOX`.N.} 7 z %.2.1.1.1.6.tXFXhX=XOX~.5.e i K +.#.#.) <.@XCXzX=X(.).j.D 7 F | +.+.( ( Z.zXBX6X/.~.6.H 3 e L ;.X.  ",
"+XG.q.n.tXNX}.6.w.u.U.b.l : z %.#.>.2./.BX9Xk.2.2.u.m.[ 3 9 ] +.#.( 8.yXmXA.2.2.8.P.f.7 3 H | / ~ 2.;XCX=X5.$.e.m.j.i > e  .X.  ",
"+Xa.q.~.tX6X6.e.u.u.m.m.P > 4 K +.( 2.+XqXC.2.e.6.u.m.f.y > g ] +./ V.tX=X2.2.5.3.i.j.l > w Z Q ~ j.qX6Xj.>.e.2.u.b.I % 2 U }   ",
"OXa.q.U.,X/.u.u.u.u.i.m...> : l K Q #.oX-Xz.3.e.6.e.i.h.i @ 5 h W Q Z.:XC.2.6.6.3.i.j.x @ 3 h Z ! h.:XoX6.2.6.2.u.b.P $ $ V J   ",
"OXa.q.u.~.U.u.u.u.u.i.n.P @ % q j W / j./.n.7.6.3.6.i.%.3 # 2 f C ! &.C.V.6.7.3.3.i.5.d # 2 w C Z %.C.!.6.2.2.2.t.b.z O O r V   ",
"OXa.p.w.u.m.b.i.i.i.G.*.3 # & q h Z Q #.c.b.u.u.t.i.e.l # # 2 w h Z Q *.b.8.8.u.i.u.H @ o 2 w h C W %.v.u.t.t.t.p.=.2 . O 3 r   ",
"oXp.t.2.>.2.5.5.6.e.%.i # @ 2 q h Z Q Q +.&.4.5.6.@.F % O * 4 w h C ! Q +.&.4.5.4.H : O $ 2 0 g C Z A | &.4.2.2.| d O O o 3 q   ",
"OXa.p.w.w.2.@...} P i % % 2 i g B L ] +.+.| | ..P l : @ & 4 q g h H ] Q ] { [ P D 3 % & 2 9 w g C Z W W ' [ L F d @ + & 1 r r   ",
"OXT.a.p.p.e.r. .G r y i a D F J L X. .@.-.-.=.Y G i y i i a l F J } | @.=.=.U D r q i p a l F J L X.| @. .U G r 7 5 y i r G G   "
};
