/* XPM */
static char *_8a2cd0481d24280f32112b142a9dbfdcaFAjyUf42MemO1O[] = {
/* columns rows colors chars-per-pixel */
"64 64 168 2 ",
"   c None",
".  c #050000",
"X  c #0E0002",
"o  c #1E1213",
"O  c #2A1D1B",
"+  c #231616",
"@  c #2F2325",
"#  c #322729",
"$  c #3F3334",
"%  c #44393B",
"&  c #52423A",
"*  c #74662B",
"=  c #5D4D42",
"-  c #605045",
";  c #675549",
":  c #685A50",
">  c #6E6255",
",  c #726256",
"<  c #7B6B5F",
"1  c #77675B",
"2  c #996000",
"3  c #9C6E19",
"4  c #A46E07",
"5  c #AB7405",
"6  c #B67502",
"7  c #B67900",
"8  c #BE7A00",
"9  c #947D36",
"0  c #AE4B4D",
"q  c #A95758",
"w  c #BD5C5F",
"e  c #897B6D",
"r  c #AB6361",
"t  c #B77D76",
"y  c #BE8004",
"u  c #AEA207",
"i  c #B2A506",
"p  c #BAAF07",
"a  c #B3AC07",
"s  c #BDB506",
"d  c #B98B38",
"f  c #A59731",
"g  c #C58502",
"h  c #CA8601",
"j  c #CC8902",
"k  c #D28E02",
"l  c #DC8E00",
"z  c #DB9502",
"x  c #D69207",
"c  c #CF9114",
"v  c #E29901",
"b  c #E29300",
"n  c #CBBE05",
"m  c #F2A401",
"M  c #FCAC01",
"N  c #FFB200",
"B  c #FFBB00",
"V  c #C3953C",
"C  c #C8993F",
"Z  c #CFC704",
"A  c #CBC606",
"S  c #D1C502",
"D  c #D7CB04",
"F  c #D9CD03",
"G  c #DED407",
"H  c #DFD71F",
"J  c #E1D503",
"K  c #E5DB03",
"L  c #E8DC03",
"P  c #E6DC1C",
"I  c #EDE201",
"U  c #EFE803",
"Y  c #F3E701",
"T  c #F5EC01",
"R  c #F8EC02",
"E  c #F7F003",
"W  c #FEF401",
"Q  c #FFFC01",
"!  c #EFE411",
"~  c #E8E11B",
"^  c #FAF516",
"/  c #DCD221",
"(  c #9D8E54",
")  c #9F9058",
"_  c #AD9E5C",
"`  c #BD9959",
"'  c #948476",
"]  c #978779",
"[  c #978878",
"{  c #9B8B7C",
"}  c #A4937D",
"|  c #B5A76B",
" . c #BDB464",
".. c #BFB977",
"X. c #C29542",
"o. c #C1BB71",
"O. c #D1C843",
"+. c #DCD346",
"@. c #CBC550",
"#. c #D6D057",
"$. c #DCD65C",
"%. c #E5DC44",
"&. c #D7C671",
"*. c #968B88",
"=. c #989294",
"-. c #B38680",
";. c #A59784",
":. c #A1948A",
">. c #B79687",
",. c #B2A28F",
"<. c #BBB685",
"1. c #9F9AB7",
"2. c #B4B1B4",
"3. c #D6BA88",
"4. c #C3B39A",
"5. c #C9AEAD",
"6. c #C5B9A9",
"7. c #C0B8B7",
"8. c #CDBFB0",
"9. c #C0BCBC",
"0. c #D6C791",
"q. c #E1DB92",
"w. c #CAC6A8",
"e. c #DCC4A8",
"r. c #C3C5BA",
"t. c #D4C4B3",
"y. c #DACAB3",
"u. c #DCCDBA",
"i. c #DAC7B7",
"p. c #E7CEA3",
"a. c #E3CCB6",
"s. c #E3D3BC",
"d. c #F1E1B7",
"f. c #B6B1CF",
"g. c #C1BECF",
"h. c #CFCDCC",
"j. c #DACFC1",
"k. c #DED5C7",
"l. c #CECCD9",
"z. c #D2CFD2",
"x. c #D7D4D3",
"c. c #DBD8D6",
"v. c #ECDCC5",
"b. c #E8DCC9",
"n. c #EEE6CB",
"m. c #F0E0C7",
"M. c #F4E4CC",
"N. c #F9E8C9",
"B. c #EAE5D8",
"V. c #F3E5D2",
"C. c #FDEDD4",
"Z. c #F5F0D7",
"A. c #FFF1D6",
"S. c #FFF4DA",
"D. c #FFF9DE",
"F. c #F5F3D9",
"G. c #D8D7EC",
"H. c #DDDDEC",
"J. c #E0DFFB",
"K. c #E9E7E7",
"L. c #FAF2E2",
"P. c #FFFCE3",
"I. c #FEFDEB",
"U. c #ECECF6",
"Y. c #F3F2F3",
"T. c ivory",
"R. c #FEFFFF",
"E. c #F0F0FD",
/* pixels */
"                                                                                                                                ",
"                                                                                                                                ",
"                                                                                                                                ",
"                                                                                                                                ",
"                                                                                                                                ",
"                                                                                                                                ",
"                                                                                                                                ",
"                                                                                                                                ",
"                                                                                                                                ",
"                                                                                                                                ",
"                                                                                                                                ",
"                                                                                                                                ",
"                                                                                                                                ",
"                                                                                                                                ",
"                                                                                                                                ",
"                                                                                                                                ",
"                                                              5 j k                                                             ",
"                                                            z N M M v                                                           ",
"                                                          m m h j g M h                                                         ",
"                                                        4 B h z z v j                                                           ",
"                                                          h M h 8 x 4 h y                                                       ",
"                                                              X.3.8.V l k v v h                                                 ",
"                                                      <       L.L.b.y.C h 8 g B v                                               ",
"                                                    ] 4.{     D.m.S.D.k.p.3.C b k k                                             ",
"                                                    *.I.}   6.I.,.- ' y.S.T.C.d 2 g h                                           ",
"                                                    * | 4.s.F.' o *.# < I.M.t.k.` 3 m                                           ",
"                                                      &.I.P.P., O =.@ } V.& O : u.8.c 7                                         ",
"                                                    f S.A.A.u.t.e = [ P.; % 9.X , V.` 6   :.{                                   ",
"                                                    _ P.C.C.C.v.C.P.P.P.1 + $ . ' I.3.6 9 u.V.                                  ",
"                                                    ) P.C.C.D.S.C.A.C.A.y.] > ;.C.D.y.e.M.( ]                                   ",
"                                                      d.D.D.a.t r e.D.C.A.m.m.D.A.A.A.P.N.                                      ",
"                                                      ;.Z.a.q w q y.D.A.S.D.S.A.M.s.s.I.M.                                      ",
"                                                      2.B.-.0 q >.n.v.v.y.u.j.7.f. .G 0.t.                                      ",
"                                                    1.Y.R.K.5.c.K.K.x.h.c.Y.H.<.$.^ T                                           ",
"                                          n   Z     @.x.R.R.R.r.x.R.R.R.K.l.l.P Q T                                             ",
"                                          Q J Q K F Q 6.J.E.Y.Y.U.q.O.g.w./ P W W                                               ",
"                                        i Q Q W Q Q W %.#.o.G.z...Y S H ! Q W Q D                                               ",
"                                          p u Q W W W I W T +.~ F T J I Q W W W                                                 ",
"                                              D Q W Q L n W Q Q J R Q D W W Q S                                                 ",
"                                                W Q Q W K R W R J Q Q J Y Q E                                                   ",
"                                                  Z I Q W W W W W W Q J R Q p                                                   ",
"                                                      U Q Q W W W W W F Q G                                                     ",
"                                                        A K Q Q W W W W W                                                       ",
"                                                            s K Q Q Q Q i                                                       ",
"                                                                  s a                                                           ",
"                                                                                                                                ",
"                                                                                                                                ",
"                                                                                                                                ",
"                                                                                                                                ",
"                                                                                                                                ",
"                                                                                                                                ",
"                                                                                                                                ",
"                                                                                                                                ",
"                                                                                                                                ",
"                                                                                                                                ",
"                                                                                                                                ",
"                                                                                                                                ",
"                                                                                                                                ",
"                                                                                                                                ",
"                                                                                                                                ",
"                                                                                                                                ",
"                                                                                                                                ",
"                                                                                                                                ",
"                                                                                                                                "
};
