/* XPM */
static char *a07f9d23d57742d69d97c86f52e7cde7VUogpAqzlf2WIq86[] = {
/* columns rows colors chars-per-pixel */
"64 64 239 2 ",
"   c #221C1C",
".  c #221C1D",
"X  c #31292A",
"o  c #44373C",
"O  c #48443F",
"+  c #4D3D44",
"@  c #50484C",
"#  c #6E5955",
"$  c #70655D",
"%  c #4F5B67",
"&  c #6B5760",
"*  c #785C6B",
"=  c #765E71",
"-  c #7D5D71",
";  c #5F6B78",
":  c #78636B",
">  c #757568",
",  c #676D7D",
"<  c #796573",
"1  c #8B2E2E",
"2  c #CE171C",
"3  c #CE191C",
"4  c #D0191C",
"5  c #D0201F",
"6  c #C91F22",
"7  c #D01F20",
"8  c #C52125",
"9  c #CC2527",
"0  c #D02022",
"q  c #D02629",
"w  c #C52B33",
"e  c #B73D47",
"r  c #CC3F46",
"t  c #8A5052",
"y  c #A64848",
"u  c #A84A4A",
"i  c #AD5355",
"p  c #B95857",
"a  c #97665A",
"s  c #B85A64",
"d  c #826475",
"f  c #876978",
"g  c #856A7D",
"h  c #977376",
"j  c #B36E6E",
"k  c #A87677",
"l  c #D3434C",
"z  c #DA4B4D",
"x  c #D44952",
"c  c #CD5153",
"v  c #C7655D",
"b  c #D0655F",
"n  c #CA5C6D",
"m  c #CE6D69",
"M  c #CB7768",
"N  c #CA687A",
"B  c #D5797C",
"V  c #8C8B7C",
"C  c #958D7B",
"Z  c #AB8D7A",
"A  c #CB8779",
"S  c #D5837C",
"D  c #557E89",
"F  c #6F7385",
"G  c #687987",
"H  c #787B8B",
"J  c #866C80",
"K  c #8A6E83",
"L  c #887486",
"P  c #8D758C",
"I  c #957888",
"U  c #8A7A91",
"Y  c #937E98",
"T  c #AC7B8C",
"R  c #D56F83",
"E  c #CB7689",
"W  c #D87688",
"Q  c #DD758A",
"!  c #37889F",
"~  c #398CA5",
"^  c #578B92",
"/  c #5A8894",
"(  c #638A95",
")  c #688995",
"_  c #718A90",
"`  c #758897",
"'  c #4E8FA5",
"]  c #4A98AC",
"[  c #5598A9",
"{  c #4B9EB3",
"}  c #539DB2",
"|  c #5A9DB2",
" . c #569FB8",
".. c #6798A8",
"X. c #6F98AD",
"o. c #7599AB",
"O. c #4CA1B8",
"+. c #58A2B6",
"@. c #67A6A8",
"#. c #77ACAD",
"$. c #68A7B9",
"%. c #76A5B8",
"&. c #79A2B9",
"*. c #71AEC2",
"=. c #7AB4C4",
"-. c #928F8C",
";. c #949982",
":. c #8B8399",
">. c #9C8492",
",. c #96839D",
"<. c #98849E",
"1. c #B18D8D",
"2. c #AE9682",
"3. c #A79B8A",
"4. c #A78696",
"5. c #B4889C",
"6. c #AA9399",
"7. c #95A792",
"8. c #A7A797",
"9. c #ADAF95",
"0. c #A8B594",
"q. c #9888A3",
"w. c #8791A3",
"e. c #9C97AC",
"r. c #999DB5",
"t. c #AD8FA2",
"y. c #BB8BA2",
"u. c #A898A9",
"i. c #B996A6",
"p. c #A495B2",
"a. c #A49AB6",
"s. c #A89BB7",
"d. c #8FB2AD",
"f. c #95B5A7",
"g. c #89A8B5",
"h. c #9AA7BA",
"j. c #95B5B9",
"k. c #B7A6AC",
"l. c #A8B0AB",
"z. c #B7B7A4",
"x. c #A9A1BD",
"c. c #A6A8BB",
"v. c #BAACB2",
"b. c #B8ABB4",
"n. c #B8B5B7",
"m. c #BBBBBB",
"M. c #D2908B",
"N. c #C8859D",
"B. c #D0AE96",
"V. c #CCB999",
"C. c #C98AA4",
"Z. c #D48EA9",
"A. c #C696AC",
"S. c #D994A9",
"D. c #CB9CB3",
"F. c #D39BB5",
"G. c #D799B4",
"H. c #DD9EBB",
"J. c #EA9DBC",
"K. c #C7A5B5",
"L. c #D4A3BA",
"P. c #D7A8BC",
"I. c #CFB6B1",
"U. c #E4A1BB",
"Y. c #E2B3BB",
"T. c #ADC791",
"R. c #B2CB95",
"E. c #B5C89B",
"W. c #BAD29D",
"Q. c #98C2B1",
"!. c #BBC9A5",
"~. c #BED4A4",
"^. c #B5D2AE",
"/. c #BED2A9",
"(. c #B4CDB9",
"). c #C6C49E",
"_. c #C3CCA9",
"`. c #D3CCAC",
"'. c #C1D5A5",
"]. c #C2D9A5",
"[. c #C2D4AC",
"{. c #CAD2AD",
"}. c #C6DCAB",
"|. c #C9DDAC",
" X c #CBC4B3",
".X c #CBDCB3",
"XX c #C8DBB7",
"oX c #D5DAB9",
"OX c #C7E0AD",
"+X c #CBE1AE",
"@X c #CDE3B3",
"#X c #CDE2BA",
"$X c #D1E4B7",
"%X c #D2E5B9",
"&X c #D5E9BB",
"*X c #D6EABB",
"=X c #86ADC1",
"-X c #9AAFC3",
";X c #86BAC8",
":X c #ACA5C2",
">X c #A4A9C2",
",X c #AEA9C4",
"<X c #B2A9C5",
"1X c #AAB3C4",
"2X c #B4B8C6",
"3X c #DAA8C1",
"4X c #DDAAC2",
"5X c #CAB5CA",
"6X c #CDB8CD",
"7X c #D4B7C8",
"8X c #E5A7C4",
"9X c #E3AAC5",
"0X c #E5AEC9",
"qX c #EAADCB",
"wX c #F1ACCE",
"eX c #E4B5C9",
"rX c #EAB1CD",
"tX c #F1B0CF",
"yX c #EEB5D2",
"uX c #ECB9D4",
"iX c #F0B5D3",
"pX c #F1B9D4",
"aX c #8DC1CE",
"sX c #95C2CD",
"dX c #B7C6C7",
"fX c #B8D4C2",
"gX c #A7CDD2",
"hX c #B0C9D1",
"jX c #C3C4C3",
"kX c #C8C9CB",
"lX c #DAC5C4",
"zX c #C3DBC5",
"xX c #DBD7C3",
"cX c #C7D4D6",
"vX c #E4C7CA",
"bX c #E1D5C6",
"nX c #DBECC3",
"mX c #D0E3CE",
"MX c #DEEBCA",
/* pixels */
"~.+X$X%X%X%X%X%X%X%X%X%X%X%X%X%X%X%X%X@XW.R.].$X@X@X@X$X$X@X@X@X@X@X$X$X$X$X@X@X@X@X@X@X@X@X@X@X@X@X$X$X@X@X@X@X@X@X@X@X@X$X&XnX",
"~.+X$X%X%X%X%X%X%X%X%X%X%X%X%X%X%X%X%X@XW.R.}.%X%X%X%X%X%X$X@X$X$X$X$X$X$X%X$X$X$X$X$X$X$X$X$X$X$X$X%X$X$X$X$X$X%X%X%X$X%X&XnXMX",
"~.+X$X%X%X%X%X$X$X%X$X.X$X%X%X%X%X%X%X@XW.R.}.%X%X%X%X%X%X%X#X%X%X%X%X%X$X%X%X$X$X$X$X$X%X%X%X%X%X%X%X%X%X.X.X.X#X%X%X%X%X&XnXMX",
"~.+X$X%X%X%X%X$X%X$X!.9.9. XxXbXxX%X%X@XW.R.}.%X$X$X$X$X@X@X$X@X%X%X%X%X%X$X$X$X$X%X$X$X$X%X$X%X%XxXbXxX X8.7.z..X%X$X$X%X&XnXMX",
"~.+X$X%X%X%X%X$X%X.X8.> > 6.P.vXvXxX%X@XW.R.}.%X$X$X$X$X$X$X$X$X$X%X%X%X%X%X%X%X%X$X%X%X%X$X%X%XxXvXvXP.>.& $ ;..X%X$X$X%X&XnXMX",
"~.+X$X$X$X$X%X%X%X.X;.@ X # >.P.uXvXxXoX~.R.}.%X$X%X$X$X$X$X$X$X$X$X%X%X%X%X$X%X%X%X%X$X$X%X%XxXvXuXL.I @ X @ V .X%X%X%X%X&XnXMX",
"~.+X$X$X%X$X%X%X%X.X;.O . X @ I L.eXvXxX'.R.}.%X$X%X$X$X$X$X$X$X$X$X$X%X%X%X$X%X%X%X$X%X%X%XxXvXeXD.f @ . . O V }.%X%X%X%X&X&XMX",
"'.@X$X%X%X$X$X%X%X.X8.$ X . . + h A.eXvX X!.}.%X$X$X%X%X$X$X$X$X$X$X$X%X%X%X$X%X%X$X$X%X%XxXvXeXA.f o . . X : 8..X%X$X$X%X&X&XMX",
"~.@X$X%X%X$X%X%X%X%X X6.: + X . o d A.eXlX X.X%X$X%X%X%X%X$X$X$X%X$X$X$X$X$X$X$X$X%X%X%XxXvX4Xy.: o X X @ f t.I.oX%X$X$X$X&XnXMX",
"~.@X$X%X%X%X%X%X%X%X XK.A.T * + X o * y.4XlXoX%X%X%X%X%X%X$X$X$X%X%X%X%X%X%X%X%X%X%X%XxXvX4X5.& o X @ d 4.D.K.I.oX$X%X%X$X&XnXMX",
"'.@X$X%X%X%X%X%X%X.Xz.4.y.A.i.I & + @ < i.7XlXxXXX#X#X#X#X#X%X%X%X&X%X%X#X#X#X#XXXXXxXlX7Xt.: @ @ * T A.A.4.>.8..X%X%X%X%X&XnXMX",
"'.@X$X%X$X$X%X%X$X.X;.& : 4.K.K.4.< % % ` x.<X2XdXfX(.fXzXzXzXzXzXzXzXzXzXzXfXfXfXdX2X2Xa.H % % , 4.K.D.>.& & V [.%X%X$X%X&XnXMX",
"'.@X%X%X$X$X$X$X$X.X;.@ @ , :.w.w.` ..[ ....X.%.=X;XsXsXgXgXgXgXgXgXgXgXgXgXsXsX;X=X&.X.........` ` w.` ; @ % ;.{.%X%X%X%X&XnXMX",
"'.@X%X%X%X$X$X$X$XXXl._ D / [ ....X.$.$. .} | $.*.=.;X;X;XaXaXaXaXaXaXaXaX;X;X;X=.*.$.| } } $.$.......[ / / ` f.XX%X%X$X%X&X&XMX",
"'.@X$X%X%X%X$X$X#X(.j.g.*.$.+.] } +.$.+.O.{ +.$.$.$.*.$.$.=.=.=.=.=.=.=.=.$.$.*.*.$.$.+.} } | | | [ ] +.$.*.=Xj.(.XX%X%X%X&XnXMX",
"'.@X$X%X%X$X$X$XXXQ.j.=.=.*.+.O.] } +.} O.O.} +.+.+.{ ~ ' $.%.$.$.$.%.%.$.] ~ { +.+.+.+.O.{ [ } } ] { +.*.=.*.%.Q.^.%X%X%X&XnXMX",
"'.@X$X%X$X$X$X$XXXQ.%.$.$.+.O.O.] ] } { { { { O.O.] ] ! ! [ [ [ [ [ [ [ [ ~ ! ] ] } } { { { ] { { ] { O.+.$.$.%.j.^.%X%X%X&X&XMX",
"'.+X$X%X%X$X$X$X#XfX;X%.%.$.+.+.| | | | | | | +.+.| [ ' ' [ [ [ [ [ [ [ [ ' ' [ } | | | | | | | | }  .+.$.$.%.g.(.XX%X%X%X&X&XMX",
"'.+X$X%X%X$X$X$X%XzXhX-X=X=X=X&.&.&.&.&.&.&.&.&.&.&.o.o.X.o.o.X.X.X.X.o.o.X.X.o.&.&.&.&.&.&.&.&.&.&.&.g.=X=X;XgXfX#X$X$X$X$X&XMX",
"'.+X$X%X%X%X$X%X&XmXcXhX1X>X>X>X>Xc.c.c.c.h.h.c.h.h.h.r.r.r.r.r.r.r.r.r.r.r.r.h.h.>X>X>X>X>X>X>X>X>X>X>X>X1XhXhXzX}.].].].].+X%X",
"'.+X$X%X%X%XoXoXxXmXcXkX<X,X,X,X:X:X:X:X:X:X:X:X:X:Xx.x.x.x.x.x.x.x.x.x.x.x.x.:X:X:X:X:X:X:X:X:X:X:X:X:X:X,XdXhX(._.).E.E.R.W.[.",
"'.+X$X%X%XoX`.I.I.lXkXdX,X:X:Xx.s.a.a.a.a.a.a.a.a.a.a.a.a.a.a.a.a.a.a.a.a.a.a.a.a.a.p.a.a.a.a.a.a.a.x.:X:X,X2XdXI.B.B.B.).W.W.!.",
"'.+X$X$XoXI.M.B W A.2X2X:X:Xx.p.q.,.<.<.<.q.<.,.,.,.<.<.<.,.,.<.q.<.,.,.,.<.q.,.,.,.,.q.q.q.<.<.<.q.p.x.:X:X,Xb.i.E N B B.`.|.[.",
"'.+X$X$X`.M.b x N 5.s.c.:X:Xx.p.Y P P P P P P P P P P P P P P P P P P P P P P P P P U U U P P P U Y e.x.:X:Xc.u.4.N x c S V.|.[.",
"'.+X$X`.B.b c n E 4.u.c.:X:Xx.p.Y P P K J K L P K f g J K K K K K K K K K K K K K P U P K K K L U ,.e.x.:X:Xc.u.4.T n c b S )._.",
"'.+X.XV.M c v M.B.k.l.1X,X:X:Xp.:.U H J g f L P L < < d g g g g J J g g g g d d J P U K J J L H H :.p.x.:X:Xc.c.8.k.M.M c m B.!.",
"~.+X{.M.b c Z z.!.z.n.2X<X:X:Xp.:.H G H g d g J g < * * - d d d d d d d d d d d g K L g g J H G G U e.:X:X,X1Xc.l.!.!.3.p b A z.",
"~.[.z.A c i -.f.^.f.l.1X<X<X:Xp.:.G / _ H < < < < - * * * - - - - - - - - - - - d g < d H H ) / G U e.x.:X,X>Xj.f.Q.Q._ a p M 8.",
"~.^.8.j p f / @.Q.f.d.1X,X<X:Xp.:.G / ( _ H < = = = = = = = = = = - = = < = = < < < < < H ) / ^ G U e.s.:X:Xc.d.7.f.#.^ < i j -.",
"~.^.7.k s _ [ @.Q.f.d.1X,X<X:Xp.q.` ^ ^ ( ( G , , F F , , F , , , , , , F , , G , , , G ( [ ^ ^ _ :.e.s.:X:X>Xd.d.f.#.' G a j w.",
"/.^.7.k p f ^ @.Q.f.d.1X<X<X<Xs.q.o...@.@...../ / / ( ( ( ( ( ( ( ( ( ( ( / / / / D ^ ..@.@.....` ,.p.x.<X<X>Xd.d.f.@.^ < i j -.",
"/.^.8.k p a G #.(.l.l.c.s.s.p.u.u.r.g.j.j.j.g.o.o.g.g.g.g.g.g.g.g.g.g.g.g.g.g.g.o.o.o.g.-Xj.j.h.h.u.u.p.p.p.e.e.8.l.#.D t i j -.",
"~.^.z.1.v i -.f.jXK.i.4.>.>.>.>.6.i.b.5X6X6X6X5X5X5X6X6X6X6X6X6X6X6X6X6X6X6X6X6X5X5X5X6X6X6X5X5Xk.t.4.Y P L L >.k.m.f._ t p j 8.",
"~.}.[.B.m p Z I.lXK.4.I I >.I I g K 4.D.0XuXuXuXuXuXuXuXuXuXuXuXuXuXuXuXuXuXuXuXuXuXuXuXuX0XK.4.g : : < f I I >.A. X X2.p v M.z.",
"~.+X@X).A v M B.lXP.y.4.6.6.6.4.I I I I i.4XpXpXpXpXpXpXpXpXpXpXpXpXpXpXpXpXpXpXpXpXpXiX3Xy.I d : < g I >.4.y.A.P.vXI.A v S V._.",
"~.+X$X{.B.m v S Y.eX3XK.k.v.v.v.i.6.T f f 5.4XyXpXpXpXpXpXpXpXpXpXpXpXpXpXpXpXpXpXpXyXP.5.f * < -.u.v.v.v.k.L.0XuXY.M.v m M.{.[.",
"~.@X$X$X`.M.v m S.P.K.v.I.jXjXjXm.k.i.5.f d y.9XpXpXpXpXpXpXpXpXpXpXpXpXpXpXpXpXpXpX4X4.f < I u.m.jXkXkXjXm.K.P.rXU.B c A V.}./.",
"~.@X$X%X.XV.A B S.K.v.n.m.m.m.(.jXn.k.L.4.d f A.yXpXpXpXpXpXpXpXpXpXpXpXpXpXpXpXpX0Xi.d f 4.u.n.jXjXjXdXdXm.v.K.eXU.M.A B.{.|./.",
"'.@X%X%X%X.XV.B.P.K.v.m.n.n.n.n.jXn.v.4XL.T d y.rXpXpXpXpXpXpXpXpXuXpXpXpXpXpXpXpX4X5.f 4.K.v.m.(.m.n.n.m.m.v.K.eXY.I.V.{.$X|./.",
"'.@X%X%X%X%XoXoXlXK.v.m.n.n.m.m.jXn.K.0XrXL.4.D.rXpXpXpXpXpXyXqX8X8X0XrXyXpXpXpXpX9XD.A.F.P.v.m.m.n.n.m.m.m.v.K.eXvXoXoX$X$X|./.",
"~.}..X.X@X@X@XoXlXP.v.v.m.jXjXm.n.v.K.rXpXrX4X0XyXpXpXpXpXrXG.E N N E Z.0XyXpXpXpXyX0X0XrX4Xk.v.m.m.jXjXjXn.k.K.eXvXxX%X%X$X+X/.",
"R.W.W.W.W.W.W.{.I.K.6.6.k.v.v.v.u.t.i.4XyXpXpXpXpXpXpXpXyX9XE p w w e N H.yXyXpXpXpXpXpXyX0XK.k.k.k.v.v.k.u.4.y.3XvXxX%X%X$X+X/.",
"~.W.R.R.R.R.R._.I.i.T I I >.4.4.4.I 4.F.rXiXiXyXyXyXyXyXyXU.N e 6 3 w s G.rXyXyXyXyXyXyXyXrXP.5.>.>.>.>.I I I 4.L.lXxX%X%X%X+X/.",
"%X|.}.}.}.}.}.oXlXP.5.I f f f f f I 5.L.0XrXqX0X0XqXqXqXqX8XN.s e e i E H.0XqXqX0X0X0X0XrX9XL.4.f f f f f f I y.3XvXxX%X%X%X+X/.",
"nX&X%X%X%X$X%XoXvXP.A.5.4.T 4.5.5.A.F.9X0X9XL.L.4X0X0X9X9X0XL.C.T T N.G.9X9X9X0X9XL.F.4X0X0X4XA.y.5.4.5.5.5.A.F.4XvXxX%X%X%X+X/.",
"nX&X%X%X%X%X%XoXvXP.D.A.A.A.D.L.9XqXqXqXrX9XF.F.3XqX9X9X9XqXrX9XD.A.L.qXqX9X9X0X9XL.A.L.9XrXrX0X0X4XL.F.F.F.F.L.3XvXxX%X%X$X+X/.",
"nX&X%X$X$X%X%XoXlXP.A.y.5.5.y.D.9XiXiXiXiX9XF.F.9XqXqX9X0XqXrX8XA.C.F.qXrXqX0XqXqX8XF.F.9XiXiXiXrX9XA.y.y.y.A.D.P.eXxX%X%X$X+X'.",
"nX&X%X$X%X%X%XoX7XL.A.y.5.5.5.A.8XwXtXtXiXqXG.F.P.qXqXqXqXqXqXH.C.y.D.8XqXqXqXqXqX8XF.G.8XtXtXtXqX8XC.5.5.5.y.A.L.7XxX%X%X$X+X/.",
"nX&X%X%X%X%X.XoX7XL.A.C.C.C.C.G.8XwXwXwXwXqXH.F.F.H.H.U.J.H.G.F.Z.C.A.F.H.H.H.H.H.G.A.H.8XwXwXwXqX8XA.y.y.y.C.A.L.7XlXoX%X$X+X/.",
"nX&X%X%X%X%X.X XP.L.G.Z.Z.Z.S.J.J.J.J.J.J.J.J.Z.C.C.C.C.C.C.N.C.S.J.Z.N.N.C.C.C.N.N.Z.J.J.J.U.U.J.J.Z.C.C.C.C.C.G.P. XXX$X$X+X/.",
"nX&X%X%X%X@X/.z.i.Z.Q R R R R Q Q Q Q Q Q Q Q R R N N N N N N R Q Q R N N N N N N N R Q Q Q Q Q Q Q W W R R R W Z.A.z._.@X$X+X/.",
"nX&X%X%X$X.XE.3.1.W b l l l l l l l l l l l l l l l r r r r l l l l l l l r r r l l l l l l l l x x x x l l x b M.1.3.!..X$X+X/.",
"nX&X%X$X%X.X0.V h B z q 5 3 6 5 4 7 0 0 0 7 0 0 0 7 7 7 7 7 0 0 0 0 0 0 0 0 0 7 7 0 0 0 0 5 0 0 0 0 0 0 7 7 q z B k C 0..X&X@X/.",
"MX&X%X$X%X.X0.V h B z 5 3 2 2 4 4 4 3 3 3 4 4 4 4 3 4 4 4 4 3 3 3 3 3 3 4 4 4 4 4 4 4 4 4 3 3 3 3 3 3 3 2 2 0 z B k C 0.}.&X@X[.",
"MX&X%X$X%X.X0.V h B z 5 3 2 2 3 4 3 3 3 3 3 4 4 3 2 2 2 2 2 3 3 3 2 2 2 3 3 3 3 3 4 4 3 3 3 2 2 2 3 3 3 2 2 7 z B k C 0.}.%X@X[.",
"MX&X%X$X$X.X0.;.k B z 0 3 2 2 2 2 2 2 2 2 2 2 2 2 2 2 2 2 2 2 2 2 2 2 2 2 2 2 2 2 2 2 2 2 2 2 2 2 2 2 3 2 2 0 z W k C 0..X%X@X[.",
"MX&X%X$X$X@XE.;.h j c 8 6 8 8 9 q q q q 9 8 8 8 8 8 8 8 8 8 8 8 8 8 8 8 8 8 8 8 8 6 6 6 8 9 q q q q 9 8 8 8 8 c B k ;.E..X%X+X[.",
"MX&X%X%X$X$X!.;.$ # t 1 1 1 u v M M M M v i u y y y u y y u u u u u u u u u u u y y y y i v M M M M v u 1 1 1 t t $ V !.@X%X@X[.",
"MXnX%X%X$X$X}.8.> $ $ # # a Z V.V.V.V.V.V.2.2.2.2.2.2.2.2.2.2.2.2.2.2.2.2.2.2.2.2.C C Z 2.B.V.V.V.V.V.Z a # # # $ > ;.[.$X%X@X[.",
"MX&X%X$X$X$X@X!.8.;.;.;.;.7.E..X$X$X$X$X.X.X.X.X.X.X.X.X.X.X.X.X.X.X.X.X.X.X.X.X[.R.T.~..X@X$X$X$X$X.XE.7.;.C C ;.7.!..X%X%X@X[.",
"nX&X%X$X%X%X$X.X}.[.[.[.[.}..X%X%X%X%X%X%X%X%X%X%X%X%X%X%X%X%X%X%X%X%X%X%X%X%X%X@XW.R.}.@X$X%X%X%X%X$X.X[.[.[.[.[.}..X%X%X%X@X[.",
"nX&X%X$X$X$X$X$X$X$X$X@X@X$X$X$X$X$X$X$X$X@X@X$X$X$X$X$X$X$X$X@X$X$X$X$X$X$X$X$X@XW.R.}.$X$X%X#X%X%X%X%X%X%X%X%X%X%X%X%X%X%X+X/.",
"&X@X+X+X|.|.+X|.|.+X+XOX}.}.|.|.+X+X|.|.|.}.}.|.|.|.|.|.|.|.}.}.|.|.|.|.|.|.|.+X].R.T.}.@X%X$X@X@X@X@X%X%X%X%X%X%X%X%X$X%X$XOX~.",
"@X}.].].].].].].].].].].].].].].].].].].].].].].].].].].].].].].].].].].].].].].W.T.R.}.%X&X%X%X%X%X%X%X&X&X&X&X&X&X&X%X&X%X@X/."
};
